<svg xmlns="http://www.w3.org/2000/svg" width="200" height="120" fill="none" viewBox="0 0 200 120">
    <g fill="#fff" clip-path="url(#prefix__clip0)">
        <path d="M95.683 84.392H69.832c-.438 0-.882.027-1.317-.02-.866-.091-1.28-.501-1.383-1.36-.047-.382-.022-.775-.022-1.166 0-5.052-.036-10.104.008-15.156.055-6.205 3.546-10.802 9.557-12.284a24.022 24.022 0 015.517-.67c9.33-.067 18.661-.017 27.993-.05a10.398 10.398 0 002.897-.446c1.169-.344 1.78-1.26 1.802-2.507.024-1.332.019-2.665.005-3.997-.014-1.33-.685-2.246-1.917-2.595a10.844 10.844 0 00-2.902-.421c-8.891-.03-17.782-.006-26.676-.033a16.742 16.742 0 01-3.256-.352c-1.744-.355-3.294-2.36-3.43-4.432-.088-1.327-.064-2.665-.009-3.997.044-1.072.718-1.734 1.755-1.839.436-.044.877-.017 1.318-.017 9.879 0 19.758-.041 29.638.023 3.064.019 6.12.36 9.009 1.55 4.493 1.85 7.182 5.136 7.691 10.077.186 1.812.323 3.642.293 5.462-.044 2.576-.649 5.033-1.971 7.288-1.536 2.623-3.894 4.177-6.616 5.218-2.995 1.147-6.122 1.692-9.323 1.7-8.399.02-16.797-.008-25.192.028a9.052 9.052 0 00-2.889.474c-1.292.449-2.053 1.451-2.067 2.903-.017 1.61.005 3.221-.02 4.83-.013.762.28 1.144 1.06 1.106.438-.023.88 0 1.317 0h42.317c2.971 0 3.423.44 3.392 3.47-.011 1.158-.024 2.338-.254 3.462-.529 2.604-2.005 3.745-4.628 3.745-8.611.008-17.229.006-25.846.006zM134.01 58.92V36.283c0-.443-.025-.89.011-1.333.088-1.146.745-1.878 1.87-1.9 2.577-.044 5.156-.044 7.733-.002 1.155.019 1.81.712 1.908 1.858.033.385.011.776.011 1.163 0 11.152.022 22.306-.011 33.457-.013 4.587-1.56 8.553-4.945 11.714-1.273 1.19-2.79 1.947-4.348 2.636-.337.15-.748.156-1.126.164-.651.017-1.029-.332-1.081-.992-.033-.44-.025-.886-.025-1.33.003-7.594.003-15.197.003-22.798zM59.246 58.785v22.812c0 .443.027.892-.02 1.332-.098.942-.528 1.424-1.48 1.44-2.744.042-5.488.045-8.232.003-1.027-.016-1.42-.504-1.503-1.581-.025-.333-.008-.665-.008-1 0-11.71-.003-23.422.002-35.133 0-3.617 1.364-6.67 3.78-9.287 1.396-1.512 2.932-2.806 4.881-3.559 2.166-.836 2.574-.582 2.574 1.83.006 7.715.006 15.429.006 23.143zM149.338 32h-.216l-.022-.002c-.06-.006-.12-.009-.181-.014a2.748 2.748 0 01-1.886-1.083 2.775 2.775 0 01-.559-1.482 3.527 3.527 0 00-.008-.102v-.227c0-.009.003-.017.003-.025.013-.12.019-.239.041-.358.087-.49.287-.928.608-1.307a2.708 2.708 0 011.936-.989c.369-.028.734.022 1.081.147.682.244 1.2.69 1.542 1.335a2.78 2.78 0 01.307 1.629 2.68 2.68 0 01-.178.714 2.78 2.78 0 01-2.306 1.756c-.052 0-.107.006-.162.009zm-2.313-2.8a2.22 2.22 0 002.204 2.233c1.218.003 2.207-.997 2.21-2.23a2.22 2.22 0 00-2.205-2.232c-1.218-.003-2.207.997-2.209 2.23z"/>
        <path d="M148.763 29.491v1.11h-.744v-2.927l.019-.003h1.18c.189 0 .378.023.561.084a.75.75 0 01.31.19c.093.1.142.225.161.358.022.15.019.296-.022.443a.66.66 0 01-.358.418c-.05.025-.104.045-.154.067.066.02.126.047.181.086a.84.84 0 01.244.29c.085.158.164.319.243.48l.239.484c.002.009.008.017.011.025-.009 0-.014.003-.022.003h-.753c-.017 0-.025-.006-.03-.022-.121-.25-.241-.496-.365-.745a1.58 1.58 0 00-.101-.166.39.39 0 00-.287-.17c-.102-.005-.206-.002-.313-.005zm.003-.518h.014c.109 0 .222.003.331 0 .058-.003.115-.01.17-.022a.28.28 0 00.219-.213.542.542 0 000-.283.262.262 0 00-.2-.205 1.002 1.002 0 00-.183-.027c-.113-.006-.228-.003-.34-.003-.005 0-.011 0-.016.003.005.252.005.5.005.75z"/>
    </g>
    <defs>
        <clipPath id="prefix__clip0">
            <path fill="#fff" d="M48 26.4H152V84.4H48z"/>
        </clipPath>
    </defs>
</svg>
