<svg width="355" height="113" viewBox="0 0 355 113" fill="none" xmlns="http://www.w3.org/2000/svg">
<rect width="355" height="113" rx="10" fill="white"/>
<mask id="mask0" mask-type="alpha" maskUnits="userSpaceOnUse" x="0" y="0" width="355" height="113">
<rect width="355" height="113" rx="10" fill="white"/>
</mask>
<g mask="url(#mask0)">
</g>
<path d="M34 47.2394L60.212 47.2446L76.1506 47.2473V31.457L34 47.2394Z" fill="#FF9D28"/>
<path d="M76.1523 31.4562V87.2039L96.0594 24L76.1523 31.4562Z" fill="#68C5ED"/>
<path d="M76.1496 47.2449L60.2109 47.2422L76.1496 87.2023V47.2449Z" fill="#044D80"/>
<path d="M34 47.2383L64.2993 57.4967L60.212 47.2435L34 47.2383Z" fill="#E54747"/>
<path d="M130.56 72.5279C130.329 72.7591 129.944 73.0474 129.406 73.3937C128.866 73.7404 128.164 74.0867 127.298 74.4334C126.432 74.7794 125.373 75.0772 124.123 75.3283C122.872 75.5778 121.438 75.7033 119.822 75.7033C116.704 75.7033 114.009 75.2026 111.739 74.2025C109.467 73.2023 107.591 71.806 106.11 70.0167C104.628 68.2268 103.541 66.1103 102.848 63.6656C102.155 61.2217 101.809 58.5373 101.809 55.6116C101.809 52.6872 102.184 49.9826 102.934 47.5001C103.685 45.0174 104.811 42.8724 106.312 41.0625C107.813 39.254 109.689 37.8393 111.941 36.819C114.193 35.7998 116.838 35.2891 119.879 35.2891C121.381 35.2891 122.737 35.4242 123.95 35.6932C125.162 35.9627 126.22 36.2805 127.125 36.6458C128.029 37.0121 128.78 37.3962 129.377 37.8005C129.973 38.2046 130.425 38.5422 130.734 38.8107C131.08 39.1194 131.378 39.4847 131.629 39.9076C131.879 40.3317 132.004 40.7936 132.004 41.2935C132.004 42.0638 131.715 42.8332 131.138 43.6028C130.561 44.3732 129.926 45.0852 129.232 45.7391C128.771 45.2772 128.251 44.8064 127.674 44.3247C127.096 43.8437 126.452 43.4208 125.74 43.0545C125.027 42.6892 124.219 42.3815 123.315 42.1307C122.41 41.8808 121.4 41.7553 120.284 41.7553C118.321 41.7553 116.676 42.1505 115.347 42.9389C114.02 43.7283 112.951 44.7575 112.143 46.0278C111.335 47.2981 110.758 48.7512 110.411 50.3867C110.065 52.0231 109.892 53.6876 109.892 55.3809C109.892 57.1904 110.065 58.9224 110.411 60.5767C110.757 62.2319 111.354 63.6949 112.201 64.9646C113.047 66.2346 114.154 67.2549 115.521 68.0244C116.886 68.7949 118.59 69.1792 120.63 69.1792C121.707 69.1792 122.699 69.0449 123.603 68.7753C124.507 68.5062 125.307 68.1787 125.999 67.7932C126.692 67.4093 127.299 67.0054 127.818 66.5815C128.338 66.158 128.771 65.7929 129.117 65.4842C129.348 65.7541 129.617 66.0816 129.925 66.466C130.235 66.8544 130.524 67.2591 130.791 67.6784C131.06 68.1023 131.291 68.5254 131.484 68.9481C131.676 69.3724 131.773 69.7567 131.773 70.1026C131.773 70.6036 131.676 71.0267 131.484 71.3731C131.291 71.7196 130.983 72.1048 130.56 72.5279ZM160.313 68.1C160.313 71.1592 160.758 73.3858 161.649 74.7797C160.952 75.0502 160.304 75.2441 159.703 75.3603C159.103 75.4766 158.474 75.5344 157.816 75.5344C156.422 75.5344 155.366 75.2633 154.65 74.7214C153.934 74.1798 153.479 73.4054 153.286 72.398C152.433 73.2896 151.31 74.0443 149.917 74.664C148.523 75.2823 146.818 75.593 144.805 75.593C143.76 75.593 142.715 75.4479 141.669 75.1594C140.623 74.8685 139.674 74.3966 138.823 73.7412C137.971 73.0844 137.274 72.2063 136.732 71.1061C136.189 70.0058 135.919 68.6648 135.919 67.0826C135.919 65.1141 136.393 63.5116 137.342 62.2771C138.29 61.0413 139.481 60.067 140.914 59.3526C142.346 58.6391 143.895 58.1479 145.561 57.877C147.225 57.6065 148.755 57.4334 150.149 57.3552C150.614 57.317 151.069 57.2971 151.514 57.2971H152.763V56.2399C152.763 54.7515 152.365 53.6941 151.572 53.068C150.778 52.4417 149.49 52.1278 147.71 52.1278C146.044 52.1278 144.563 52.3991 143.266 52.9408C141.968 53.4836 140.701 54.1025 139.462 54.7996C138.919 54.1415 138.483 53.4157 138.155 52.6215C137.826 51.8284 137.661 51.2376 137.661 50.85C137.661 50.3082 137.961 49.7854 138.562 49.2817C139.161 48.7791 139.985 48.3234 141.03 47.9168C142.076 47.5102 143.276 47.1817 144.632 46.9294C145.986 46.678 147.419 46.5519 148.93 46.5519C151.02 46.5519 152.792 46.7652 154.244 47.1908C155.696 47.6174 156.877 48.2753 157.787 49.1655C158.696 50.0569 159.345 51.1695 159.733 52.5053C160.119 53.8413 160.314 55.4005 160.314 57.1809V68.1H160.313ZM152.879 61.3626H152.066C151.794 61.3626 151.523 61.3828 151.253 61.421C150.284 61.4989 149.326 61.6149 148.378 61.769C147.428 61.9244 146.586 62.1954 145.851 62.5825C145.115 62.9699 144.515 63.4736 144.05 64.0924C143.586 64.7123 143.353 65.5065 143.353 66.4741C143.353 67.5584 143.663 68.4775 144.282 69.2328C144.901 69.988 145.947 70.3655 147.419 70.3655C148.154 70.3655 148.851 70.2694 149.51 70.0747C150.168 69.8819 150.749 69.6301 151.253 69.3202C151.755 69.0104 152.153 68.6718 152.443 68.3034C152.734 67.9359 152.879 67.5974 152.879 67.2873V61.3626H152.879ZM174.775 49.9204C175.392 49.1853 176.358 48.4394 177.67 47.6841C178.982 46.9291 180.642 46.5515 182.65 46.5515C184.078 46.5515 185.439 46.7937 186.732 47.2775C188.024 47.7621 189.173 48.5464 190.177 49.6299C191.181 50.7144 191.982 52.1474 192.58 53.928C193.179 55.7096 193.478 57.8978 193.478 60.4912C193.478 63.5115 193.13 66 192.436 67.9549C191.74 69.911 190.843 71.4599 189.744 72.6018C188.644 73.7441 187.417 74.5476 186.067 75.012C184.716 75.4766 183.364 75.7093 182.014 75.7093C180.894 75.7093 179.919 75.5833 179.09 75.3318C178.26 75.0795 177.555 74.7997 176.976 74.4895C176.397 74.18 175.954 73.8707 175.645 73.5601C175.336 73.2506 175.143 73.0371 175.066 72.9208V87.1988H167.167V47.3646C167.361 47.3266 167.595 47.2876 167.869 47.2486C168.103 47.2106 168.376 47.1813 168.689 47.1614C169.001 47.1424 169.371 47.1325 169.8 47.1325C171.087 47.1325 172.18 47.3458 173.077 47.7714C173.974 48.198 174.541 48.9139 174.775 49.9204ZM185.23 60.6653C185.23 59.5039 185.134 58.4203 184.941 57.413C184.749 56.4067 184.431 55.5353 183.989 54.7994C183.546 54.0641 182.948 53.4925 182.198 53.0857C181.446 52.6793 180.533 52.4762 179.455 52.4762C177.838 52.4762 176.712 52.7865 176.076 53.4052C175.441 54.0251 175.124 54.7032 175.124 55.4383V67.7519C175.431 68.0622 175.979 68.4294 176.769 68.8554C177.559 69.2818 178.472 69.4939 179.512 69.4939C181.476 69.4939 182.92 68.7203 183.844 67.171C184.768 65.6225 185.23 63.4535 185.23 60.6653ZM199.575 70.656C199.303 69.8819 199.129 69.0683 199.052 68.2163C198.974 67.3649 198.936 66.5133 198.936 65.6603V38.7103C199.206 38.6723 199.497 38.6333 199.807 38.5941C200.077 38.5561 200.368 38.5272 200.678 38.5071C200.988 38.4881 201.297 38.4782 201.607 38.4782C202.226 38.4782 202.846 38.5364 203.466 38.6523C204.085 38.7687 204.647 39.0009 205.151 39.3492C205.654 39.6976 206.06 40.1725 206.37 40.7723C206.68 41.373 206.835 42.1573 206.835 43.1245V47.2482H214.967V53.115H206.835V65.5009C206.835 68.202 207.938 69.5521 210.146 69.5521C210.688 69.5521 211.2 69.4654 211.685 69.2907C212.169 69.1166 212.604 68.9233 212.992 68.7102C213.379 68.4973 213.718 68.2747 214.008 68.0422C214.299 67.8097 214.502 67.6358 214.618 67.5196C215.199 68.372 215.643 69.1098 215.954 69.7324C216.263 70.3558 216.418 70.9408 216.418 71.4875C216.418 71.9961 216.216 72.4948 215.809 72.983C215.402 73.4713 214.83 73.9215 214.095 74.3316C213.359 74.7417 212.469 75.0739 211.423 75.3281C210.378 75.5823 209.235 75.7095 207.997 75.7095C205.595 75.7095 203.727 75.2445 202.391 74.3155C201.056 73.3858 200.116 72.1659 199.575 70.656ZM234.973 69.9008C235.944 69.9008 236.799 69.7947 237.538 69.5812C238.276 69.3691 238.936 69.1075 239.519 68.7976C240.102 68.4882 240.607 68.1492 241.035 67.7812C241.462 67.4136 241.85 67.0748 242.201 66.7644C242.667 67.3449 243.152 68.0911 243.658 69.0003C244.163 69.911 244.415 70.656 244.415 71.2366C244.415 72.0888 243.931 72.8632 242.964 73.5601C242.15 74.18 240.997 74.7125 239.508 75.1571C238.016 75.6021 236.264 75.8251 234.251 75.8251C232.43 75.8251 230.64 75.593 228.879 75.1282C227.116 74.6638 225.548 73.8504 224.174 72.6885C222.799 71.5274 221.685 69.969 220.834 68.0133C219.982 66.058 219.556 63.59 219.556 60.6076C219.556 58.1679 219.934 56.0681 220.688 54.3057C221.444 52.5441 222.45 51.0823 223.709 49.9206C224.967 48.7589 226.39 47.9077 227.978 47.3648C229.565 46.8232 231.192 46.5517 232.857 46.5517C235.025 46.5517 236.865 46.8912 238.375 47.5682C239.885 48.246 241.114 49.1562 242.063 50.2981C243.011 51.4404 243.699 52.7473 244.125 54.2187C244.55 55.6906 244.764 57.2389 244.764 58.8652V59.6782C244.764 59.9888 244.754 60.3171 244.735 60.6655C244.715 61.0144 244.696 61.3537 244.677 61.682C244.657 62.0118 244.628 62.2728 244.59 62.4663H227.455C227.611 64.5961 228.271 66.3675 229.437 67.7812C230.601 69.1949 232.447 69.9008 234.973 69.9008ZM237.62 58.1099C237.62 56.2513 237.259 54.7412 236.539 53.5795C235.818 52.4181 234.523 51.8369 232.654 51.8369C231.057 51.8369 229.782 52.389 228.828 53.4925C227.873 54.5962 227.397 56.1352 227.397 58.1097H237.62V58.1099ZM258.51 50.0672C258.742 49.7217 259.052 49.3377 259.44 48.9146C259.826 48.4919 260.301 48.1078 260.863 47.7623C261.424 47.4165 262.043 47.1278 262.721 46.8975C263.398 46.6669 264.124 46.5517 264.9 46.5517C265.364 46.5517 265.858 46.5907 266.381 46.6669C266.903 46.7441 267.387 46.8883 267.832 47.0989C268.277 47.3105 268.636 47.598 268.907 47.963C269.178 48.3279 269.314 48.7789 269.314 49.3162C269.314 50.161 269.1 51.1313 268.675 52.2267C268.248 53.323 267.823 54.2578 267.397 55.0319C266.738 54.4899 266.08 54.0736 265.422 53.7831C264.763 53.4929 263.989 53.3474 263.099 53.3474C261.898 53.3474 260.892 53.6971 260.079 54.3957C259.265 55.0945 258.859 55.9295 258.859 56.9003V75.7029H250.96V47.3646C251.153 47.3266 251.385 47.2876 251.656 47.2486C251.889 47.2106 252.16 47.1813 252.47 47.1614C252.779 47.1424 253.147 47.1325 253.573 47.1325C254.812 47.1325 255.886 47.3727 256.797 47.8522C257.706 48.3312 258.278 49.0699 258.51 50.0672ZM280.969 50.0672C281.201 49.7217 281.511 49.3377 281.898 48.9146C282.285 48.4919 282.76 48.1078 283.321 47.7623C283.882 47.4165 284.502 47.1278 285.18 46.8975C285.857 46.6669 286.583 46.5517 287.358 46.5517C287.822 46.5517 288.316 46.5907 288.839 46.6669C289.361 46.7441 289.845 46.8883 290.291 47.0989C290.736 47.3105 291.094 47.598 291.366 47.963C291.636 48.3279 291.772 48.7789 291.772 49.3162C291.772 50.161 291.559 51.1313 291.133 52.2267C290.706 53.323 290.281 54.2578 289.855 55.0319C289.197 54.4899 288.538 54.0736 287.88 53.7831C287.222 53.4929 286.448 53.3474 285.557 53.3474C284.357 53.3474 283.35 53.6971 282.537 54.3957C281.724 55.0945 281.317 55.9295 281.317 56.9003V75.7029H273.418V47.3646C273.612 47.3266 273.844 47.2876 274.115 47.2486C274.348 47.2106 274.618 47.1813 274.928 47.1614C275.238 47.1424 275.605 47.1325 276.032 47.1325C277.271 47.1325 278.345 47.3727 279.255 47.8522C280.165 48.3312 280.736 49.0699 280.969 50.0672ZM318.665 68.1C318.665 71.1592 319.11 73.3858 320.001 74.7797C319.304 75.0502 318.655 75.2441 318.055 75.3603C317.454 75.4766 316.825 75.5344 316.167 75.5344C314.773 75.5344 313.718 75.2633 313.002 74.7214C312.285 74.1798 311.83 73.4054 311.637 72.398C310.785 73.2896 309.662 74.0443 308.268 74.664C306.874 75.2823 305.17 75.593 303.157 75.593C302.111 75.593 301.066 75.4479 300.02 75.1594C298.975 74.8685 298.025 74.3966 297.174 73.7412C296.322 73.0844 295.625 72.2063 295.083 71.1061C294.541 70.0058 294.27 68.6648 294.27 67.0826C294.27 65.1141 294.744 63.5116 295.693 62.2771C296.642 61.0413 297.833 60.067 299.266 59.3526C300.697 58.6391 302.246 58.1479 303.912 57.877C305.576 57.6065 307.107 57.4334 308.501 57.3552C308.965 57.317 309.42 57.2971 309.866 57.2971H311.114V56.2399C311.114 54.7515 310.717 53.6941 309.923 53.068C309.129 52.4417 307.842 52.1278 306.061 52.1278C304.396 52.1278 302.915 52.3991 301.618 52.9408C300.32 53.4836 299.052 54.1025 297.813 54.7996C297.271 54.1415 296.835 53.4157 296.506 52.6215C296.177 51.8284 296.013 51.2376 296.013 50.85C296.013 50.3082 296.312 49.7854 296.913 49.2817C297.513 48.7791 298.336 48.3234 299.381 47.9168C300.427 47.5102 301.627 47.1817 302.982 46.9294C304.338 46.678 305.771 46.5519 307.281 46.5519C309.372 46.5519 311.143 46.7652 312.595 47.1908C314.047 47.6174 315.228 48.2753 316.138 49.1655C317.048 50.0569 317.696 51.1695 318.084 52.5053C318.47 53.8413 318.665 55.4005 318.665 57.1809V68.1ZM311.23 61.3626H310.417C310.146 61.3626 309.874 61.3828 309.604 61.421C308.636 61.4989 307.677 61.6149 306.729 61.769C305.779 61.9244 304.938 62.1954 304.202 62.5825C303.466 62.9699 302.866 63.4736 302.402 64.0924C301.937 64.7123 301.705 65.5065 301.705 66.4741C301.705 67.5584 302.014 68.4775 302.634 69.2328C303.253 69.988 304.299 70.3655 305.771 70.3655C306.506 70.3655 307.203 70.2694 307.862 70.0747C308.52 69.8819 309.1 69.6301 309.604 69.3202C310.106 69.0104 310.505 68.6718 310.795 68.3034C311.085 67.9359 311.23 67.5974 311.23 67.2873V61.3626H311.23Z" fill="#044D80"/>
</svg>
