<svg xmlns="http://www.w3.org/2000/svg" width="72" height="72" viewBox="0 0 72 72">
    <g fill="none" fill-rule="evenodd">
        <path d="M7 7h58v58H7z"/>
        <path fill="#6B7179" fill-rule="nonzero" d="M60.167 14H11.833C9.175 14 7 16.2 7 18.889V53.11C7 55.8 9.175 58 11.833 58h48.334c2.658 0 4.809-2.2 4.809-4.889L65 18.89C65 16.2 62.825 14 60.167 14zm-33.834 7.333c4.012 0 7.25 3.276 7.25 7.334 0 4.057-3.238 7.333-7.25 7.333-4.011 0-7.25-3.276-7.25-7.333 0-4.058 3.239-7.334 7.25-7.334zm14.5 29.334h-29v-2.445c0-4.889 9.667-7.578 14.5-7.578 4.834 0 14.5 2.69 14.5 7.578v2.445zm9.305-9.778H54.1l3.649 4.889-4.81 4.864a18.368 18.368 0 0 1-6.597-9.753A18.22 18.22 0 0 1 45.667 36c0-1.687.241-3.324.676-4.889a18.276 18.276 0 0 1 6.598-9.753l4.809 4.864-3.65 4.89h-3.962c-.532 1.54-.846 3.177-.846 4.888 0 1.711.314 3.349.846 4.889z"/>
    </g>
</svg>
