<svg xmlns="http://www.w3.org/2000/svg" width="72" height="72" viewBox="0 0 72 72">
    <path fill="#6B7179" fill-rule="nonzero" d="M37.745 33.075c-5.238-1.657-8.707-2.308-8.707-6.11 0-2.697 2.356-5.265 6.874-5.265 5.204 0 6.874 2.86 6.874 6.305h6.219c0-5.817-3.83-10.042-9.82-11.18V10h-6.547v6.858c-5.172 1.04-9.82 4.452-9.82 10.14 0 7.312 5.827 9.1 13.094 11.44 6.153 1.982 7.365 3.38 7.365 6.792 0 2.925-2.194 5.07-7.365 5.07-3.928 0-7.365-2.73-7.365-6.695H22c0 6.11 4.517 10.4 10.638 11.57V62h6.547v-6.727c6.678-.943 10.475-4.843 10.475-10.076 0-6.077-3.077-9.327-11.915-12.122z"/>
</svg>
