<svg width="160" height="160" viewBox="0 0 160 160" fill="none" xmlns="http://www.w3.org/2000/svg">
<g clip-path="url(#clip0)">
<path d="M80.0009 144.859C115.821 144.859 144.859 115.821 144.859 80.0009C144.859 44.1808 115.821 15.1429 80.0009 15.1429C44.1808 15.1429 15.1428 44.1808 15.1428 80.0009C15.1428 115.821 44.1808 144.859 80.0009 144.859Z" fill="url(#paint0_linear)"/>
<path d="M32.1809 91.8444V59.1377H46.3611C48.8542 59.1377 50.9483 59.4738 52.6451 60.1443C54.3419 60.8147 55.6253 61.762 56.4935 62.9861C57.3616 64.2101 57.7948 65.6535 57.7948 67.3126C57.8074 68.4558 57.536 69.5846 57.0057 70.5966C56.4755 71.5888 55.717 72.439 54.7931 73.0789C53.7955 73.7673 52.6631 74.2382 51.4713 74.4611V74.7793C52.8158 74.817 54.1316 75.1801 55.3035 75.8416C56.4395 76.4851 57.3868 77.4144 58.0501 78.5396C58.7313 79.6828 59.0728 81.0273 59.0728 82.5713C59.0998 84.2681 58.6127 85.9326 57.6762 87.3472C56.7451 88.742 55.4222 89.8367 53.7074 90.6311C51.9926 91.4256 49.9489 91.8265 47.5744 91.8283L32.1809 91.8444ZM41.0604 72.3635H44.7021C45.4067 72.376 46.1059 72.252 46.762 71.995C47.3192 71.7811 47.8045 71.4126 48.1622 70.9327C48.5091 70.4348 48.6853 69.838 48.6655 69.2323C48.6655 68.2221 48.3024 67.4456 47.578 66.9063C46.8536 66.3671 45.9387 66.0975 44.8315 66.0993H41.0604V72.3635ZM41.0604 84.7552H45.2126C46.7027 84.7552 47.8207 84.4748 48.5666 83.9158C49.3126 83.3568 49.6847 82.5281 49.6829 81.4317C49.7044 80.7451 49.5211 80.0674 49.1562 79.485C48.7913 78.9404 48.27 78.518 47.6625 78.2717C46.9237 77.9788 46.1311 77.8386 45.3366 77.8619H41.0604V84.7552Z" fill="white"/>
<path d="M84.9742 81.624V79.5821C84.9742 77.6336 84.6866 75.8829 84.1115 74.3281C83.5812 72.8452 82.74 71.4935 81.6489 70.3593C80.5651 69.2556 79.2511 68.4018 77.8005 67.8608C76.2997 67.2856 74.6226 66.998 72.7712 66.998C70.2368 66.998 68.0385 67.5247 66.1745 68.578C64.3375 69.6061 62.8348 71.1412 61.8462 73.0016C60.8235 74.8961 60.313 77.1106 60.313 79.645C60.313 82.2855 60.8217 84.5521 61.8372 86.4412C62.8187 88.2962 64.3393 89.8097 66.1979 90.7839C68.087 91.7869 70.3411 92.2884 72.9618 92.2884C75.2284 92.2884 77.211 91.9451 78.9096 91.2584C80.6082 90.5718 81.9725 89.6048 83.0042 88.3573C84.0503 87.0847 84.7298 85.5533 84.9742 83.9248H76.9198C76.7544 84.3759 76.4794 84.7786 76.1217 85.0967C75.7442 85.4311 75.3003 85.6845 74.8203 85.8391C74.2811 86.0134 73.7185 86.1015 73.1523 86.0943C72.374 86.1159 71.6029 85.9343 70.9162 85.5677C70.3123 85.2297 69.818 84.7246 69.4945 84.1135C69.1565 83.4628 68.9876 82.7384 69.0001 82.0051V81.6222L84.9742 81.624ZM69.5663 74.9033C69.9258 74.3676 70.4184 73.9362 70.9953 73.6504C71.6047 73.3431 72.2787 73.1867 72.96 73.1939C73.6448 73.1831 74.3224 73.3395 74.9318 73.6504C75.498 73.9416 75.9779 74.3766 76.3212 74.9123C76.6735 75.4695 76.8587 76.113 76.8569 76.7726H69.0001C69.0055 76.1058 69.2015 75.4569 69.5663 74.9033Z" fill="white"/>
<path d="M108.618 79.3988C107.387 78.3185 105.518 77.5474 103.007 77.0908L98.024 76.1975C97.0875 76.0285 96.4584 75.7876 96.133 75.4785C95.8077 75.1693 95.6513 74.8332 95.6603 74.4719C95.6513 73.9596 95.9156 73.5678 96.4602 73.2892C97.5836 72.7787 98.8634 72.7373 100.019 73.1705C100.478 73.3503 100.886 73.6361 101.209 74.0081C101.518 74.373 101.702 74.826 101.736 75.3023H109.839C109.733 72.705 108.654 70.672 106.605 69.2017C104.556 67.7314 101.757 66.998 98.2127 66.998C95.8832 66.998 93.8682 67.309 92.1696 67.9309C90.471 68.5528 89.1661 69.4588 88.2565 70.6469C87.3434 71.8332 86.8941 73.2784 86.9066 74.9824C86.8959 76.9093 87.5142 78.4856 88.7598 79.7097C90.0055 80.9338 91.8802 81.7642 94.3805 82.201L98.725 82.9667C99.683 83.1357 100.388 83.3604 100.841 83.6372C101.294 83.914 101.525 84.2879 101.536 84.7552C101.525 85.2657 101.256 85.6593 100.729 85.9361C100.203 86.213 99.5339 86.3496 98.725 86.346C97.722 86.346 96.8934 86.1357 96.2409 85.7151C95.6046 85.3214 95.1786 84.6617 95.0833 83.9194H86.3333C86.5777 86.4322 87.7568 88.4544 89.8707 89.9876C91.9845 91.5209 94.9144 92.2884 98.6585 92.292C100.927 92.292 102.947 91.9433 104.72 91.2459C106.492 90.5484 107.894 89.558 108.922 88.2746C109.95 86.9931 110.468 85.4796 110.479 83.7324C110.468 81.9224 109.848 80.479 108.618 79.3988Z" fill="white"/>
<path d="M126.537 85.2351C126.367 85.2783 126.104 85.3304 125.746 85.3933C125.439 85.4526 125.126 85.485 124.814 85.4886C124.492 85.4993 124.17 85.4436 123.87 85.3214C123.633 85.2207 123.438 85.0392 123.322 84.8091C123.196 84.5431 123.135 84.2501 123.145 83.9553V73.7044H127.362V67.3162H123.156V61.4402H114.338V67.3162H111.208V73.7044H114.338V84.7893C114.316 86.5023 114.651 87.9295 115.344 89.0691C116.036 90.2087 117.07 91.0409 118.443 91.5676C119.811 92.0943 121.51 92.3046 123.537 92.1985C124.413 92.1626 125.283 92.0511 126.138 91.8624C126.868 91.6934 127.429 91.5496 127.822 91.431L126.537 85.2351Z" fill="white"/>
<path d="M46.0861 117.802V111.336H43.7764V110.021H49.9614V111.336H47.6589V117.802H46.0861Z" fill="white"/>
<path d="M50.7686 111.399V110.019H52.2605V111.399H50.7686ZM50.7686 117.802V112.165H52.2605V117.802H50.7686Z" fill="white"/>
<path d="M53.6787 112.165H55.0538V112.934C55.5463 112.336 56.1323 112.037 56.8117 112.037C57.173 112.037 57.4857 112.111 57.7518 112.26C58.0178 112.409 58.2353 112.634 58.4043 112.934C58.6523 112.634 58.9183 112.409 59.2059 112.26C59.4917 112.111 59.7991 112.037 60.1244 112.037C60.5378 112.037 60.8884 112.122 61.1759 112.289C61.4617 112.458 61.6774 112.704 61.8176 113.029C61.9201 113.27 61.9722 113.658 61.9722 114.198V117.802H60.4803V114.579C60.4803 114.02 60.4282 113.658 60.3257 113.497C60.1873 113.285 59.9752 113.179 59.6894 113.179C59.4809 113.179 59.285 113.241 59.0999 113.369C58.9147 113.497 58.7835 113.684 58.7026 113.93C58.6217 114.176 58.5804 114.564 58.5804 115.095V117.802H57.0885V114.712C57.0885 114.164 57.0615 113.809 57.0094 113.65C56.9573 113.49 56.8746 113.371 56.7632 113.294C56.6517 113.216 56.5007 113.177 56.3084 113.177C56.0783 113.177 55.8716 113.238 55.6865 113.362C55.5031 113.486 55.3701 113.664 55.291 113.898C55.212 114.131 55.1706 114.519 55.1706 115.061V117.8H53.6787V112.165Z" fill="white"/>
<path d="M66.721 116.008L68.2075 116.258C68.017 116.802 67.715 117.217 67.3016 117.501C66.89 117.785 66.3741 117.929 65.754 117.929C64.7744 117.929 64.0482 117.609 63.5772 116.968C63.2052 116.455 63.02 115.806 63.02 115.025C63.02 114.09 63.2645 113.358 63.7534 112.83C64.2423 112.301 64.8588 112.035 65.6066 112.035C66.446 112.035 67.1075 112.312 67.5928 112.866C68.0781 113.419 68.31 114.268 68.2884 115.411H64.5515C64.5623 115.853 64.6827 116.198 64.9128 116.443C65.1428 116.689 65.4286 116.811 65.7719 116.811C66.0056 116.811 66.2015 116.748 66.3615 116.621C66.5197 116.495 66.6401 116.29 66.721 116.008ZM66.8055 114.5C66.7947 114.068 66.6833 113.739 66.4712 113.515C66.2591 113.29 66.0002 113.177 65.6965 113.177C65.3711 113.177 65.1015 113.295 64.8894 113.533C64.6773 113.77 64.573 114.092 64.5766 114.5H66.8055Z" fill="white"/>
<path d="M74.2848 117.802V111.336H71.9751V110.02H78.1602V111.336H75.8558V117.802H74.2848Z" fill="white"/>
<path d="M79.9917 117.802H78.4998V112.165H79.8856V112.966C80.1229 112.587 80.335 112.337 80.5255 112.219C80.7142 112.098 80.9299 112.039 81.1708 112.039C81.5105 112.039 81.8376 112.132 82.1522 112.321L81.6903 113.623C81.4386 113.459 81.2049 113.378 80.9892 113.378C80.7807 113.378 80.6028 113.436 80.459 113.551C80.3134 113.666 80.2002 113.874 80.1157 114.174C80.033 114.475 79.9917 115.105 79.9917 116.064V117.802Z" fill="white"/>
<path d="M83.9102 113.883L82.5567 113.639C82.7095 113.094 82.9701 112.69 83.3422 112.429C83.7142 112.167 84.2661 112.035 84.9976 112.035C85.6627 112.035 86.1588 112.114 86.4841 112.271C86.8095 112.429 87.0395 112.629 87.1708 112.871C87.302 113.114 87.3703 113.558 87.3703 114.207L87.3541 115.948C87.3541 116.445 87.3775 116.809 87.426 117.045C87.4745 117.28 87.5626 117.532 87.6938 117.802H86.2181C86.1786 117.703 86.1318 117.555 86.0743 117.361C86.0491 117.273 86.0312 117.214 86.0222 117.187C85.7669 117.435 85.4955 117.62 85.2043 117.744C84.9149 117.868 84.604 117.929 84.275 117.929C83.6945 117.929 83.2379 117.771 82.9036 117.457C82.5693 117.142 82.4021 116.743 82.4021 116.263C82.4021 115.945 82.4776 115.661 82.6304 115.411C82.7832 115.161 82.9953 114.971 83.2703 114.838C83.5453 114.705 83.9407 114.59 84.4566 114.491C85.154 114.36 85.6375 114.237 85.9053 114.124V113.975C85.9053 113.689 85.8352 113.484 85.6932 113.362C85.5512 113.24 85.2852 113.179 84.8916 113.179C84.6256 113.179 84.4188 113.231 84.2697 113.335C84.1223 113.439 84.0018 113.623 83.9102 113.883ZM85.9053 115.095C85.7148 115.158 85.411 115.235 84.9976 115.323C84.5842 115.411 84.3128 115.497 84.1852 115.584C83.991 115.722 83.894 115.896 83.894 116.108C83.894 116.317 83.9713 116.498 84.1277 116.649C84.284 116.8 84.4818 116.878 84.7226 116.878C84.9922 116.878 85.2475 116.79 85.4919 116.612C85.6717 116.477 85.7903 116.313 85.8478 116.117C85.8874 115.99 85.9053 115.747 85.9053 115.389V115.095Z" fill="white"/>
<path d="M93.7569 113.831L92.2866 114.097C92.2362 113.804 92.1248 113.583 91.9486 113.434C91.7725 113.285 91.546 113.211 91.2674 113.211C90.8953 113.211 90.5987 113.339 90.3776 113.596C90.1566 113.853 90.0451 114.282 90.0451 114.883C90.0451 115.551 90.1566 116.024 90.383 116.301C90.6077 116.578 90.9097 116.714 91.289 116.714C91.573 116.714 91.803 116.633 91.9846 116.473C92.1643 116.312 92.292 116.035 92.3675 115.643L93.8324 115.893C93.6796 116.565 93.3884 117.074 92.957 117.417C92.5256 117.76 91.9468 117.933 91.2207 117.933C90.3956 117.933 89.7377 117.672 89.2488 117.153C88.7581 116.633 88.5137 115.913 88.5137 114.992C88.5137 114.061 88.7599 113.337 89.2506 112.819C89.7431 112.301 90.4082 112.041 91.2458 112.041C91.9325 112.041 92.4789 112.188 92.8833 112.485C93.2896 112.776 93.5807 113.225 93.7569 113.831Z" fill="white"/>
<path d="M94.8352 117.802V110.02H96.3271V114.151L98.0743 112.165H99.9113L97.9844 114.225L100.05 117.803H98.4409L97.0245 115.271L96.3289 115.999V117.803H94.8352V117.802Z" fill="white"/>
<path d="M100.934 111.399V110.019H102.426V111.399H100.934ZM100.934 117.802V112.165H102.426V117.802H100.934Z" fill="white"/>
<path d="M109.082 117.802H107.59V114.924C107.59 114.315 107.558 113.921 107.495 113.743C107.432 113.565 107.328 113.425 107.184 113.326C107.04 113.227 106.868 113.177 106.666 113.177C106.407 113.177 106.176 113.247 105.971 113.389C105.766 113.531 105.626 113.718 105.548 113.951C105.473 114.185 105.435 114.617 105.435 115.247V117.802H103.943V112.165H105.329V112.993C105.821 112.357 106.44 112.037 107.188 112.037C107.516 112.037 107.817 112.096 108.09 112.215C108.363 112.334 108.568 112.485 108.708 112.668C108.848 112.851 108.945 113.062 108.999 113.295C109.055 113.529 109.082 113.863 109.082 114.298V117.802Z" fill="white"/>
<path d="M110.457 118.174L112.161 118.38C112.19 118.578 112.254 118.715 112.357 118.788C112.499 118.895 112.722 118.948 113.026 118.948C113.416 118.948 113.707 118.891 113.901 118.774C114.032 118.697 114.131 118.571 114.198 118.397C114.242 118.273 114.266 118.044 114.266 117.712V116.889C113.82 117.498 113.257 117.802 112.578 117.802C111.821 117.802 111.221 117.482 110.779 116.84C110.432 116.333 110.259 115.704 110.259 114.951C110.259 114.005 110.488 113.285 110.941 112.785C111.395 112.285 111.961 112.035 112.637 112.035C113.335 112.035 113.91 112.341 114.363 112.954V112.163H115.76V117.223C115.76 117.888 115.704 118.386 115.594 118.715C115.485 119.044 115.33 119.303 115.132 119.489C114.935 119.676 114.67 119.824 114.338 119.93C114.005 120.036 113.588 120.09 113.083 120.09C112.127 120.09 111.449 119.926 111.05 119.599C110.651 119.272 110.45 118.857 110.45 118.353C110.452 118.305 110.453 118.244 110.457 118.174ZM111.789 114.866C111.789 115.465 111.904 115.902 112.136 116.18C112.368 116.459 112.654 116.597 112.993 116.597C113.358 116.597 113.665 116.455 113.917 116.17C114.169 115.886 114.295 115.463 114.295 114.904C114.295 114.32 114.174 113.887 113.933 113.603C113.692 113.319 113.389 113.179 113.02 113.179C112.663 113.179 112.368 113.317 112.136 113.596C111.906 113.872 111.789 114.297 111.789 114.866Z" fill="white"/>
<path d="M57.437 126.237L58.9667 126.088C59.0583 126.6 59.2453 126.978 59.5275 127.219C59.8097 127.459 60.1889 127.58 60.6653 127.58C61.1722 127.58 61.5532 127.472 61.8085 127.258C62.0655 127.044 62.1931 126.794 62.1931 126.507C62.1931 126.323 62.1392 126.167 62.0313 126.038C61.9235 125.908 61.7348 125.797 61.4651 125.7C61.2818 125.637 60.8612 125.524 60.2069 125.36C59.3639 125.151 58.7743 124.894 58.4346 124.591C57.9565 124.163 57.7174 123.64 57.7174 123.025C57.7174 122.63 57.8289 122.258 58.0553 121.912C58.28 121.567 58.6036 121.305 59.026 121.123C59.4484 120.942 59.9589 120.852 60.5574 120.852C61.5334 120.852 62.2686 121.066 62.7629 121.494C63.2572 121.921 63.5161 122.493 63.5412 123.208L61.9702 123.277C61.9037 122.878 61.7581 122.59 61.537 122.414C61.3159 122.24 60.9834 122.152 60.5412 122.152C60.0847 122.152 59.727 122.245 59.4682 122.434C59.3028 122.554 59.2183 122.714 59.2183 122.917C59.2183 123.101 59.2956 123.259 59.452 123.39C59.6497 123.557 60.1314 123.73 60.8953 123.909C61.6593 124.089 62.2255 124.276 62.5922 124.47C62.9588 124.663 63.2446 124.927 63.4513 125.261C63.6581 125.595 63.7623 126.009 63.7623 126.501C63.7623 126.947 63.6383 127.364 63.3902 127.754C63.1422 128.144 62.7917 128.434 62.3387 128.622C61.8857 128.811 61.3213 128.906 60.6455 128.906C59.6623 128.906 58.9055 128.68 58.3789 128.225C57.854 127.77 57.5395 127.107 57.437 126.237Z" fill="white"/>
<path d="M64.7295 125.87C64.7295 125.374 64.8517 124.896 65.0962 124.433C65.3406 123.969 65.6857 123.615 66.1333 123.37C66.5809 123.126 67.0806 123.004 67.6324 123.004C68.4862 123.004 69.1836 123.28 69.7301 123.834C70.2747 124.388 70.5479 125.089 70.5479 125.933C70.5479 126.787 70.2729 127.494 69.7229 128.054C69.1728 128.615 68.479 128.896 67.645 128.896C67.1273 128.896 66.6348 128.779 66.1657 128.545C65.6965 128.311 65.3406 127.97 65.0962 127.519C64.8517 127.068 64.7295 126.518 64.7295 125.87ZM66.2591 125.95C66.2591 126.509 66.3922 126.936 66.6582 127.235C66.9242 127.531 67.2513 127.681 67.6396 127.681C68.0278 127.681 68.355 127.531 68.6192 127.235C68.8834 126.938 69.0147 126.505 69.0147 125.939C69.0147 125.387 68.8834 124.963 68.6192 124.664C68.355 124.368 68.0296 124.219 67.6396 124.219C67.2495 124.219 66.9224 124.368 66.6582 124.664C66.3922 124.963 66.2591 125.391 66.2591 125.95Z" fill="white"/>
<path d="M71.0637 123.131H71.8924V122.707C71.8924 122.232 71.9427 121.878 72.0433 121.645C72.144 121.411 72.3291 121.22 72.6006 121.075C72.872 120.927 73.2135 120.854 73.6269 120.854C74.0511 120.854 74.4681 120.917 74.8744 121.044L74.673 122.085C74.4358 122.027 74.2075 122.001 73.9882 122.001C73.7725 122.001 73.6179 122.051 73.5245 122.152C73.431 122.252 73.3843 122.446 73.3843 122.732V123.129H74.4987V124.303H73.3843V128.768H71.8924V124.303H71.0637V123.131Z" fill="white"/>
<path d="M77.9211 123.131V124.321H76.9019V126.593C76.9019 127.053 76.9109 127.321 76.9307 127.397C76.9505 127.472 76.9936 127.535 77.0637 127.585C77.132 127.636 77.2165 127.659 77.3154 127.659C77.4538 127.659 77.6533 127.61 77.9157 127.515L78.0433 128.673C77.6964 128.822 77.3028 128.896 76.8642 128.896C76.5946 128.896 76.3537 128.851 76.1362 128.761C75.9187 128.671 75.7623 128.554 75.6617 128.41C75.561 128.267 75.4909 128.072 75.4514 127.83C75.419 127.657 75.4029 127.307 75.4029 126.778V124.321H74.718V123.131H75.4029V122.011L76.9001 121.141V123.131H77.9211Z" fill="white"/>
<path d="M80.0079 128.768L78.2249 123.131H79.6736L80.7305 126.827L81.7029 123.131H83.1409L84.081 126.827L85.1595 123.131H86.6298L84.8198 128.768H83.3872L82.4165 125.143L81.4603 128.768H80.0079Z" fill="white"/>
<path d="M88.5278 124.851L87.1744 124.607C87.3271 124.062 87.5878 123.658 87.9598 123.397C88.3319 123.135 88.8837 123.004 89.6153 123.004C90.2804 123.004 90.7765 123.083 91.1018 123.239C91.4272 123.397 91.6572 123.597 91.7885 123.839C91.9197 124.082 91.988 124.526 91.988 125.175L91.9718 126.917C91.9718 127.413 91.9952 127.778 92.0437 128.013C92.0922 128.249 92.1803 128.5 92.3115 128.77H90.8358C90.7962 128.671 90.7495 128.524 90.692 128.329C90.6668 128.241 90.6489 128.182 90.6399 128.155C90.3846 128.403 90.1132 128.588 89.822 128.712C89.5326 128.836 89.2217 128.897 88.8927 128.897C88.3122 128.897 87.8556 128.739 87.5213 128.425C87.1869 128.11 87.0198 127.711 87.0198 127.231C87.0198 126.913 87.0953 126.629 87.2481 126.379C87.4008 126.129 87.6129 125.939 87.8879 125.806C88.163 125.673 88.5584 125.558 89.0743 125.459C89.7717 125.328 90.2552 125.205 90.523 125.092V124.943C90.523 124.657 90.4529 124.452 90.3109 124.33C90.1689 124.208 89.9029 124.147 89.5093 124.147C89.2432 124.147 89.0365 124.199 88.8873 124.303C88.7399 124.406 88.6195 124.589 88.5278 124.851ZM90.523 126.061C90.3325 126.124 90.0287 126.201 89.6153 126.289C89.2019 126.377 88.9305 126.464 88.8029 126.55C88.6087 126.688 88.5117 126.863 88.5117 127.075C88.5117 127.283 88.589 127.465 88.7453 127.616C88.9017 127.767 89.0994 127.844 89.3403 127.844C89.6099 127.844 89.8652 127.756 90.1096 127.578C90.2894 127.443 90.408 127.28 90.4655 127.084C90.5051 126.956 90.523 126.713 90.523 126.356V126.061Z" fill="white"/>
<path d="M94.8874 128.768H93.3955V123.131H94.7814V123.933C95.0186 123.554 95.2307 123.304 95.4213 123.185C95.61 123.065 95.8257 123.005 96.0665 123.005C96.4063 123.005 96.7334 123.099 97.048 123.288L96.586 124.589C96.3344 124.425 96.1007 124.344 95.885 124.344C95.6765 124.344 95.4985 124.402 95.3547 124.517C95.2092 124.632 95.0959 124.841 95.0114 125.141C94.9287 125.441 94.8874 126.072 94.8874 127.03V128.768Z" fill="white"/>
<path d="M100.956 126.974L102.442 127.224C102.252 127.769 101.95 128.184 101.536 128.468C101.125 128.752 100.609 128.896 99.9886 128.896C99.009 128.896 98.2828 128.576 97.8119 127.934C97.4398 127.422 97.2546 126.773 97.2546 125.991C97.2546 125.056 97.4991 124.325 97.988 123.796C98.4769 123.268 99.0934 123.002 99.8412 123.002C100.681 123.002 101.342 123.279 101.827 123.832C102.313 124.386 102.545 125.234 102.523 126.377H98.7861C98.7969 126.82 98.9173 127.165 99.1474 127.409C99.3774 127.655 99.6632 127.778 100.007 127.778C100.24 127.778 100.436 127.715 100.596 127.587C100.753 127.463 100.873 127.256 100.956 126.974ZM101.04 125.466C101.029 125.035 100.918 124.706 100.706 124.481C100.494 124.256 100.235 124.143 99.9311 124.143C99.6057 124.143 99.3361 124.262 99.124 124.499C98.9119 124.736 98.8077 125.058 98.8112 125.466H101.04Z" fill="white"/>
<path d="M62.3534 41.1037C61.3415 41.1037 60.5362 40.7676 59.9358 40.0971C59.3355 39.4249 59.0371 38.4686 59.0371 37.2283C59.0371 36.628 59.1324 36.087 59.3265 35.6034C59.5188 35.1199 59.7741 34.7101 60.094 34.374C60.4122 34.0378 60.7807 33.779 61.1995 33.5957C61.6165 33.4123 62.0569 33.3206 62.5188 33.3206C62.9808 33.3206 63.3816 33.3961 63.7231 33.5489C64.0646 33.7017 64.4097 33.9102 64.762 34.1744L64.6955 32.9072V30.0546H66.0652V40.9221H64.9436L64.8286 40.0522H64.7782C64.4583 40.338 64.0934 40.5842 63.68 40.7927C63.2683 40.9994 62.8262 41.1037 62.3534 41.1037ZM62.65 40.0522C63.0239 40.0522 63.3762 39.9677 63.7069 39.8005C64.0377 39.6334 64.3666 39.3763 64.6973 39.0294V35.1523C64.3558 34.8683 64.0287 34.667 63.7159 34.5501C63.4032 34.4333 63.0814 34.374 62.7507 34.374C62.4307 34.374 62.1323 34.4423 61.8519 34.5807C61.5715 34.7173 61.3271 34.9114 61.1168 35.1613C60.9083 35.4111 60.7429 35.7077 60.6225 36.0546C60.502 36.4015 60.4409 36.788 60.4409 37.214C60.4409 38.1091 60.6333 38.8065 61.0179 39.3044C61.4008 39.8023 61.9454 40.0522 62.65 40.0522Z" fill="white"/>
<path d="M69.4642 31.9779C69.2 31.9779 68.9771 31.9024 68.7956 31.7497C68.614 31.5969 68.5242 31.4045 68.5242 31.1691C68.5242 30.9246 68.6158 30.7287 68.7956 30.5813C68.9771 30.4339 69.2 30.3602 69.4642 30.3602C69.7285 30.3602 69.9514 30.4339 70.1329 30.5813C70.3144 30.7287 70.4043 30.9246 70.4043 31.1691C70.4043 31.4028 70.3126 31.5969 70.1329 31.7497C69.9514 31.9006 69.7285 31.9779 69.4642 31.9779ZM68.7722 40.9221V33.504H70.1257V40.9221H68.7722Z" fill="white"/>
<path d="M75.5361 44.3409C75.0418 44.3409 74.5906 44.2978 74.1826 44.2115C73.7745 44.1252 73.4258 43.9958 73.1346 43.8215C72.8434 43.6489 72.617 43.4404 72.4588 43.1959C72.2988 42.9515 72.2197 42.6675 72.2197 42.3421C72.2197 42.0258 72.324 41.7256 72.5325 41.4416C72.741 41.1558 73.0268 40.897 73.3899 40.6633V40.6022C73.1922 40.4908 73.0232 40.3344 72.8866 40.1367C72.7482 39.9389 72.6799 39.6909 72.6799 39.3961C72.6799 39.0815 72.7733 38.8065 72.9603 38.5711C73.1472 38.3374 73.3449 38.154 73.5534 38.021V37.9599C73.2892 37.7568 73.0502 37.4836 72.8363 37.1439C72.6224 36.8023 72.5145 36.4087 72.5145 35.9611C72.5145 35.5549 72.5936 35.1882 72.7536 34.8629C72.9136 34.5375 73.131 34.2607 73.4061 34.0306C73.6811 33.8024 74.0028 33.6262 74.3713 33.504C74.7398 33.3818 75.128 33.3206 75.5343 33.3206C75.7536 33.3206 75.9603 33.3404 76.1526 33.3746C76.4815 33.4321 76.7511 33.5094 77.143 33.7377L78.5882 32.7634L79.1993 33.5202L77.8117 34.4656C77.9986 34.6382 78.155 34.8575 78.2826 35.1217C78.4084 35.3859 78.4731 35.6771 78.4731 35.9917C78.4731 36.3889 78.3958 36.7466 78.2412 37.0684C78.0867 37.3883 77.8782 37.6579 77.6139 37.8772C77.3497 38.0965 77.0387 38.2655 76.681 38.3877C76.3233 38.5099 75.9405 38.5711 75.5343 38.5711C75.3365 38.5711 75.1334 38.5477 74.9231 38.5028C74.7146 38.4578 74.5151 38.3931 74.3282 38.3122C74.1844 38.4237 74.0639 38.5495 73.9651 38.6861C73.8662 38.8227 73.8159 38.9935 73.8159 39.1966C73.8159 39.4302 73.9147 39.6244 74.1125 39.7772C74.3102 39.9299 74.6841 40.0054 75.2341 40.0054H76.7853C77.72 40.0054 78.421 40.1456 78.8883 40.4242C79.3557 40.7047 79.5894 41.154 79.5894 41.7759C79.5894 42.1211 79.4959 42.45 79.3089 42.761C79.122 43.0719 78.8524 43.3433 78.5001 43.577C78.1478 43.8107 77.7218 43.9958 77.2221 44.1342C76.7278 44.2708 76.1634 44.3409 75.5361 44.3409ZM75.7338 43.471C76.1184 43.471 76.4689 43.4278 76.7817 43.3415C77.0945 43.2553 77.3623 43.1438 77.5816 43.0054C77.8009 42.8688 77.9716 42.707 78.0939 42.5255C78.2143 42.3421 78.2754 42.1534 78.2754 41.9611C78.2754 41.6142 78.137 41.3751 77.862 41.2439C77.587 41.1109 77.1861 41.0462 76.6577 41.0462H75.2718C75.1172 41.0462 74.9501 41.039 74.7685 41.0228C74.587 41.0084 74.4072 40.9743 74.2329 40.9239C73.9471 41.1163 73.7386 41.3212 73.6056 41.5351C73.4726 41.749 73.4079 41.9629 73.4079 42.1768C73.4079 42.574 73.6146 42.8886 74.0262 43.1222C74.4396 43.3523 75.0094 43.471 75.7338 43.471ZM75.5361 37.7316C75.7679 37.7316 75.9836 37.6903 76.1885 37.6094C76.3917 37.5285 76.5732 37.4117 76.7332 37.2589C76.8931 37.1061 77.0172 36.921 77.1052 36.7017C77.1933 36.4824 77.2365 36.2361 77.2365 35.9611C77.2365 35.4111 77.0711 34.9869 76.7422 34.6867C76.4114 34.3865 76.0106 34.2374 75.5379 34.2374C75.0651 34.2374 74.6643 34.3883 74.3335 34.6867C74.0028 34.9869 73.8392 35.4111 73.8392 35.9611C73.8392 36.2361 73.8824 36.4824 73.9705 36.7017C74.0585 36.921 74.1826 37.1061 74.3425 37.2589C74.5025 37.4117 74.6841 37.5285 74.8872 37.6094C75.0885 37.6903 75.306 37.7316 75.5361 37.7316Z" fill="white"/>
<path d="M81.8397 31.9779C81.5755 31.9779 81.3526 31.9024 81.1711 31.7497C80.9895 31.5969 80.8997 31.4045 80.8997 31.1691C80.8997 30.9246 80.9913 30.7287 81.1711 30.5813C81.3526 30.4339 81.5755 30.3602 81.8397 30.3602C82.104 30.3602 82.3269 30.4339 82.5084 30.5813C82.6899 30.7287 82.7798 30.9246 82.7798 31.1691C82.7798 31.4028 82.6881 31.5969 82.5084 31.7497C82.3269 31.9006 82.104 31.9779 81.8397 31.9779ZM81.1477 40.9221V33.504H82.5012V40.9221H81.1477Z" fill="white"/>
<path d="M87.73 41.1037C87.3004 41.1037 86.9409 41.0426 86.6497 40.9203C86.3585 40.7981 86.1213 40.631 85.9397 40.4171C85.7582 40.2032 85.6288 39.9443 85.5515 39.6387C85.4742 39.3332 85.4364 38.9971 85.4364 38.6322V34.5267H84.2483V33.5813L85.5029 33.5058L85.6683 31.4297H86.8061V33.5058H88.9685V34.5285H86.8061V38.6501C86.8061 39.1085 86.896 39.4626 87.0775 39.7106C87.2591 39.9605 87.5808 40.0845 88.0428 40.0845C88.1848 40.0845 88.3393 40.0647 88.5047 40.0234C88.6701 39.9821 88.8175 39.9371 88.9505 39.8868L89.2147 40.8323C88.9936 40.9042 88.7546 40.9671 88.4975 41.0228C88.2387 41.0767 87.9834 41.1037 87.73 41.1037Z" fill="white"/>
<path d="M92.2848 41.1037C91.6144 41.1037 91.0553 40.9203 90.6096 40.5537C90.1638 40.187 89.9409 39.6675 89.9409 38.9971C89.9409 38.1828 90.331 37.5591 91.1129 37.1277C91.8948 36.6945 93.1422 36.3925 94.8588 36.22C94.8588 35.9863 94.8336 35.7562 94.7851 35.5333C94.7348 35.3104 94.6503 35.1109 94.5299 34.9384C94.4094 34.7658 94.2405 34.6256 94.0266 34.5196C93.8127 34.4135 93.5395 34.3596 93.2105 34.3596C92.7486 34.3596 92.3136 34.4405 91.9073 34.604C91.4993 34.7676 91.1362 34.951 90.8181 35.1541L90.2896 34.2841C90.6635 34.0612 91.1201 33.8437 91.6593 33.6352C92.1985 33.4267 92.7917 33.3224 93.4406 33.3224C94.4202 33.3224 95.1284 33.5993 95.5688 34.1547C96.0092 34.7101 96.2285 35.4489 96.2285 36.3745V40.9221H95.1068L94.9918 40.0378H94.9415C94.5568 40.3326 94.1434 40.5842 93.703 40.7927C93.2644 40.9994 92.7899 41.1037 92.2848 41.1037ZM92.6803 40.0971C93.0649 40.0971 93.428 40.0126 93.7695 39.8455C94.111 39.6783 94.4741 39.4302 94.8588 39.1049V37.045C94.1883 37.1259 93.6239 37.223 93.1674 37.3344C92.7108 37.4458 92.3423 37.5789 92.0619 37.7316C91.7815 37.8844 91.5784 38.0606 91.4508 38.2583C91.325 38.456 91.2603 38.6735 91.2603 38.9072C91.2603 39.335 91.3969 39.6405 91.6737 39.8221C91.9487 40.0054 92.2848 40.0971 92.6803 40.0971Z" fill="white"/>
<path d="M100.188 41.1037C99.6707 41.1037 99.3022 40.9617 99.0829 40.6759C98.8636 40.3919 98.7522 39.9731 98.7522 39.4249V30.0546H100.106V39.5183C100.106 39.7214 100.143 39.8652 100.221 39.9461C100.298 40.027 100.386 40.0683 100.485 40.0683C100.528 40.0683 100.569 40.0683 100.609 40.0683C100.647 40.0683 100.704 40.0576 100.782 40.0378L100.963 40.9833C100.875 41.0246 100.771 41.0552 100.65 41.0749C100.53 41.0947 100.375 41.1037 100.188 41.1037Z" fill="white"/>
<path d="M70.2786 53.0407V52.239C70.6668 51.8759 71.0209 51.538 71.3427 51.2234C71.6644 50.9089 71.9412 50.6123 72.1731 50.3355C72.405 50.0587 72.5865 49.8016 72.7177 49.5626C72.8472 49.3235 72.9137 49.097 72.9137 48.8813C72.9137 48.5829 72.8382 48.3547 72.6854 48.2001C72.5326 48.0437 72.3223 47.9664 72.0563 47.9664C71.8334 47.9664 71.6357 48.0293 71.4649 48.1533C71.2923 48.2774 71.1306 48.423 70.9778 48.5883L70.2139 47.8352C70.5122 47.517 70.8178 47.278 71.1288 47.1144C71.4397 46.9508 71.8118 46.8717 72.245 46.8717C72.5434 46.8717 72.8148 46.9185 73.0611 47.0101C73.3055 47.1018 73.5176 47.233 73.6956 47.402C73.8735 47.571 74.0101 47.7723 74.1054 48.0077C74.2006 48.2432 74.2492 48.5074 74.2492 48.8004C74.2492 49.0557 74.1953 49.3145 74.0874 49.5787C73.9796 49.843 73.834 50.1072 73.6524 50.3714C73.4709 50.6356 73.2642 50.8999 73.0323 51.1641C72.8004 51.4283 72.5596 51.6872 72.3115 51.9424C72.4643 51.9226 72.6351 51.9065 72.822 51.8903C73.0089 51.8741 73.1761 51.8669 73.3235 51.8669H74.544V53.0496H70.2786V53.0407Z" fill="white"/>
<path d="M77.4811 53.1539C77.1576 53.1539 76.861 53.0856 76.5932 52.949C76.3254 52.8124 76.0989 52.6111 75.9119 52.3433C75.725 52.0754 75.5776 51.7447 75.4734 51.3511C75.3691 50.9574 75.3152 50.5027 75.3152 49.9868C75.3152 49.4709 75.3673 49.0197 75.4734 48.6315C75.5776 48.2432 75.725 47.9179 75.9119 47.6537C76.0989 47.3894 76.3272 47.1917 76.5932 47.0623C76.861 46.9329 77.1558 46.8664 77.4811 46.8664C77.8065 46.8664 78.1013 46.9311 78.3691 47.0623C78.6369 47.1935 78.8634 47.3894 79.0503 47.6537C79.2373 47.9179 79.3846 48.2432 79.4889 48.6315C79.5932 49.0197 79.6471 49.4709 79.6471 49.9868C79.6471 50.5027 79.595 50.9574 79.4889 51.3511C79.3846 51.7465 79.2373 52.0754 79.0503 52.3433C78.8634 52.6111 78.6351 52.8124 78.3691 52.949C78.1013 53.0856 77.8065 53.1539 77.4811 53.1539ZM77.4811 52.0664C77.6016 52.0664 77.713 52.0359 77.8155 51.9766C77.9179 51.9173 78.006 51.8058 78.0833 51.6476C78.1588 51.4895 78.2181 51.2756 78.2594 51.0077C78.3008 50.7399 78.3205 50.4002 78.3205 49.9868C78.3205 49.5734 78.299 49.2354 78.2594 48.9712C78.2181 48.707 78.1588 48.5003 78.0833 48.3511C78.0078 48.2019 77.9179 48.0976 77.8155 48.0401C77.713 47.9826 77.6016 47.9538 77.4811 47.9538C77.3661 47.9538 77.2582 47.9826 77.1576 48.0401C77.0551 48.0976 76.9671 48.2001 76.8898 48.3511C76.8125 48.5021 76.7532 48.707 76.7082 48.9712C76.6633 49.2354 76.6417 49.5734 76.6417 49.9868C76.6417 50.4002 76.6633 50.7399 76.7082 51.0077C76.7532 51.2756 76.8125 51.4877 76.8898 51.6476C76.9653 51.8058 77.0551 51.9173 77.1576 51.9766C77.2582 52.0377 77.3679 52.0664 77.4811 52.0664Z" fill="white"/>
<path d="M80.3533 53.0407V52.239C80.7415 51.8759 81.0956 51.538 81.4174 51.2234C81.7391 50.9089 82.0159 50.6123 82.2478 50.3355C82.4797 50.0587 82.6612 49.8016 82.7924 49.5626C82.9219 49.3235 82.9884 49.097 82.9884 48.8813C82.9884 48.583 82.9129 48.3547 82.7601 48.2001C82.6073 48.0437 82.397 47.9664 82.131 47.9664C81.9081 47.9664 81.7104 48.0293 81.5396 48.1534C81.3671 48.2774 81.2053 48.423 81.0525 48.5883L80.2886 47.8352C80.587 47.5171 80.8925 47.278 81.2035 47.1144C81.5144 46.9509 81.8865 46.8718 82.3197 46.8718C82.6181 46.8718 82.8895 46.9185 83.1358 47.0102C83.3802 47.1018 83.5923 47.2331 83.7703 47.402C83.9482 47.571 84.0848 47.7723 84.1801 48.0078C84.2753 48.2432 84.3239 48.5075 84.3239 48.8004C84.3239 49.0557 84.27 49.3145 84.1621 49.5787C84.0543 49.843 83.9087 50.1072 83.7271 50.3714C83.5456 50.6357 83.3389 50.8999 83.107 51.1641C82.8751 51.4283 82.6343 51.6872 82.3862 51.9424C82.539 51.9226 82.7098 51.9065 82.8967 51.8903C83.0836 51.8741 83.2508 51.8669 83.3982 51.8669H84.6187V53.0497H80.3533V53.0407Z" fill="white"/>
<path d="M85.7063 53.0407V51.9047H87.022V48.4032H85.886V47.535C86.2168 47.4721 86.4972 47.3948 86.7255 47.3067C86.9537 47.2169 87.1766 47.109 87.3941 46.9832H88.4241V51.9065H89.5601V53.0425H85.7063V53.0407Z" fill="white"/>
</g>
<defs>
<linearGradient id="paint0_linear" x1="80.0001" y1="144.857" x2="80.0001" y2="15.1429" gradientUnits="userSpaceOnUse">
<stop stop-color="#6559C4"/>
<stop offset="1" stop-color="#FF66CC"/>
</linearGradient>
<clipPath id="clip0">
<rect width="129.714" height="129.714" fill="white" transform="translate(15.1428 15.1429)"/>
</clipPath>
</defs>
</svg>
