<svg xmlns="http://www.w3.org/2000/svg" width="72" height="72" viewBox="0 0 72 72">
    <path fill="#6B7179" fill-rule="nonzero" d="M55.743 24.192a3.121 3.121 0 0 0-.474-.826L43.92 10.948c-.257-.284-.569-.488-.907-.664-.393-.203-.827-.284-1.287-.284H20.074C18.394 10 17 11.435 17 13.236v45.392C17 60.443 18.395 62 20.074 62h32.92C54.673 62 56 60.443 56 58.628V25.573c0-.488-.068-.962-.257-1.381zM23.5 25.465c0-.204.244-.285.46-.285h9.588c.217 0 .38.081.38.285v1.462c0 .19-.15.42-.38.42H23.96c-.216 0-.46-.23-.46-.42v-1.462zm0 17.333c0-.203.244-.284.46-.284h16.548c.217 0 .325.08.325.284v1.462c0 .19-.094.42-.325.42H23.96c-.216 0-.46-.23-.46-.42v-1.462zm21.667 10.13c0 .189-.095.419-.325.419H23.96c-.216 0-.46-.23-.46-.42v-1.462c0-.204.244-.285.46-.285h20.882c.216 0 .325.081.325.285v1.462zM49.5 35.593c0 .19-.095.42-.325.42H23.96c-.216 0-.46-.23-.46-.42V34.13c0-.203.244-.284.46-.284h25.215c.217 0 .325.081.325.284v1.463zm-6.351-10.278c-.758 0-1.503-.705-1.503-1.53v-8.938l9.642 10.468h-8.139z"/>
</svg>
