<svg width="300" height="300" viewBox="0 0 300 300" fill="none" xmlns="http://www.w3.org/2000/svg">
<g clip-path="url(#clip0)">
<path d="M79.7637 320.346C82.4775 321.011 84.6821 320.329 86.4536 319.531C90.3782 317.765 89.7321 314.089 89.2228 312.308L44.4544 152.197L31.2613 154.918L76.0974 315.299C76.0974 315.299 77.057 319.683 79.7637 320.346Z" fill="#E98B24"/>
<path d="M32.4233 155.938C33.7836 154.488 35.9697 154.201 37.6672 155.072C38.9912 154.309 40.3273 153.566 41.649 152.799C42.5231 152.291 43.5102 152.099 44.4556 152.201L17.4893 54.6905C17.4893 54.6905 16.5463 50.2609 13.7813 49.611C11.0099 48.9593 8.74735 49.6645 6.9258 50.4863C2.89122 52.3027 3.51905 56.0177 4.02479 57.8144L31.4431 156.936C31.7756 156.607 32.1039 156.277 32.4233 155.938Z" fill="#E98B24"/>
<path d="M152.776 12.314C152.885 12.4659 153.107 12.7729 153.194 12.8994C153.498 13.3481 153.782 13.8004 154.051 14.254C154.307 15.2645 158.081 28.9662 162.725 45.807C151.569 44.891 147.166 43.5006 123.333 51.0883C99.5006 58.6759 87.7241 70.8023 68.8941 81.8235C50.0641 92.8447 35.3598 95.8507 13.5311 93.3063C8.12784 74.3405 3.69166 58.5893 3.70033 58.3325C7.87213 59.0075 12.8484 59.2743 17.6487 58.9635C22.4589 58.6837 27.094 57.8276 30.798 56.9601C31.6567 56.8012 36.8521 55.525 41.8624 53.6382C46.8998 51.8398 51.7515 49.4295 52.5478 49.0657C52.4574 49.1647 70.4457 39.5361 79.3519 34.0604C88.3986 28.4979 97.4633 22.9908 106.9 18.7183C106.889 18.6811 106.876 18.6426 106.866 18.6068C112.714 15.9793 120.097 13.1738 128.063 11.776C136.009 10.313 144.539 10.2555 152.237 11.6413C152.347 11.7746 152.457 11.9079 152.564 12.0428C152.636 12.1336 152.706 12.2238 152.776 12.3139L152.776 12.314Z" fill="#9E3039"/>
<path d="M55.2777 158.412C46.4654 159.65 37.7059 158.827 32.1844 157.603C30.6499 152.816 25.6476 135.599 20.2531 116.814C52.9372 115.902 60.7048 113.988 75.9853 104.096C91.2658 94.2052 103.876 80.6965 130.263 72.8541C156.65 65.0116 160.041 67.283 169.227 69.3844C175.213 91.0823 180.73 111.087 180.932 111.916C180.587 111.898 176.284 111.236 171.392 111.315C166.472 111.305 160.962 112.037 157.583 112.775C155.336 113.211 151.291 114.18 147.353 115.5C143.405 116.785 139.562 118.423 137.471 119.373C137.442 119.282 137.41 119.177 137.374 119.066C127.894 123.375 118.788 128.919 109.7 134.523C102.571 138.826 91.7595 145.737 79.9465 150.976C79.956 151.012 79.9659 151.049 79.9759 151.085L79.9884 151.131C73.052 154.189 64.1371 157.331 55.2777 158.412Z" fill="#9E3039"/>
<path d="M68.8953 81.8258C50.0653 92.847 35.361 95.853 13.5323 93.3086C15.6964 100.905 18.0155 109.016 20.2664 116.854C52.9506 115.943 60.7181 114.028 75.9986 104.137C91.2791 94.2459 103.889 80.7372 130.276 72.8948C156.663 65.0523 160.054 67.3237 169.241 69.4251L167.829 64.3084C166.097 58.0307 164.358 51.7263 162.726 45.8093C151.57 44.8933 147.167 43.503 123.334 51.0906C99.5018 58.6782 87.7253 70.8046 68.8953 81.8258Z" fill="white"/>
<path opacity="0.3" d="M17.7292 59.1626C13.7938 59.3591 9.74458 59.1632 6.12725 58.6751C5.36817 58.5729 4.62562 58.4582 3.90939 58.3295C3.88241 58.9316 27.451 145.68 31.0616 157.433C35.2609 158.432 41.358 159.222 47.9298 159.034L18.9977 59.094C18.7869 59.1066 18.5761 59.1192 18.3631 59.1312C18.1523 59.1438 17.9414 59.1528 17.7292 59.1626Z" fill="black"/>
<path d="M131.929 312.143C134.323 313.613 136.643 313.636 138.584 313.415C142.883 312.928 143.392 309.21 143.451 307.349L149.697 140.323L136.231 138.881L129.967 306.187C129.967 306.187 129.541 310.679 131.929 312.143Z" fill="#E98B24"/>
<path d="M137.03 140.214C138.778 139.243 140.959 139.639 142.317 140.993C143.818 140.669 145.326 140.367 146.826 140.039C147.819 139.82 148.823 139.939 149.697 140.327L153.787 38.6963C153.787 38.6963 154.242 34.166 151.794 32.6957C149.341 31.2217 146.958 31.2029 144.962 31.431C140.542 31.9326 140.004 35.6821 139.937 37.5574L135.786 140.869C136.205 140.656 136.621 140.441 137.03 140.214Z" fill="#E98B24"/>
<path d="M296.519 47.2656C296.475 47.1181 296.357 46.7559 296.299 46.577C296.26 46.4693 296.22 46.3615 296.179 46.2525C296.118 46.0905 296.054 45.9291 295.99 45.7677C289.044 42.0799 280.859 39.5184 272.803 38.4819C264.747 37.3769 256.818 37.7987 250.413 38.5204C250.412 38.558 250.412 38.5986 250.412 38.6378C240.066 39.834 229.698 42.3264 219.33 44.8772C209.124 47.3882 188.948 51.0895 189.065 51.0225C188.191 51.1266 182.807 51.9462 177.432 52.1229C172.056 52.3926 166.691 52.021 165.82 51.9098C162.007 51.6043 157.307 51.0022 152.616 49.7948C147.924 48.62 143.242 46.8382 139.455 44.9124C139.249 45.4865 136.276 136.306 136.278 148.734C141.189 151.6 149.323 155.074 158.14 156.592C166.954 158.274 176.453 158 184.032 157.2C184.034 157.146 184.037 157.091 184.039 157.039C196.956 155.646 209.427 152.345 217.573 150.412C227.993 147.834 238.411 145.319 248.809 144.101C248.81 144.218 248.809 144.329 248.808 144.425C251.102 144.156 255.283 143.767 259.458 143.748C263.633 143.692 267.803 144.005 270.088 144.277C273.549 144.606 279.05 145.595 283.757 147.113C288.465 148.539 292.381 150.493 292.706 150.616C292.839 148.748 296.752 51.6186 296.924 48.8255C296.806 48.3087 296.673 47.7885 296.519 47.2656Z" fill="#003399"/>
<path d="M151.943 49.4815C148.083 48.5075 144.228 47.1207 140.878 45.5794C140.175 45.2562 139.491 44.9258 138.837 44.5896C138.633 45.1634 135.75 135.947 135.763 148.371C139.525 150.578 145.182 153.144 151.587 154.906L153.189 49.7904C152.982 49.7402 152.774 49.69 152.565 49.6386C152.357 49.5884 152.151 49.5348 151.943 49.4815Z" fill="#032872"/>
<path d="M213.677 64.1597C214.254 63.8219 215.468 63.7968 216.402 63.7668C216.642 63.0653 216.896 62.3578 217.234 61.7085C217.529 61.141 217.903 60.4372 218.247 61.3023C218.548 62.0616 218.853 62.8166 219.133 63.5866C219.248 63.5799 219.358 63.5739 219.473 63.5708C220.247 63.5397 221.204 63.446 221.95 63.5243C222.066 64.5714 220.772 65.2054 220.112 65.9127C220.099 65.9259 220.086 65.9392 220.074 65.9525C220.708 67.4323 221.384 69.0893 220.816 69.1708C220.332 69.2429 219.48 68.5848 219.098 68.3558C218.94 68.2719 218.47 67.9853 217.87 67.6029C216.918 68.2509 215.94 68.8841 215.493 69.1904C214.086 70.1722 214.665 68.6374 214.91 67.8488C215.158 67.0524 215.355 66.5751 215.571 66.05C214.362 65.1778 213.379 64.3489 213.677 64.1597Z" fill="#F8D41B"/>
<path d="M181.388 80.0035C181.965 79.6656 183.179 79.6406 184.112 79.6106C184.353 78.909 184.607 78.2016 184.945 77.5523C185.239 76.9847 185.613 76.281 185.957 77.1461C186.259 77.9053 186.563 78.6604 186.844 79.4304C186.958 79.4237 187.069 79.4176 187.184 79.4146C187.958 79.3835 188.915 79.2898 189.661 79.368C189.777 80.4152 188.483 81.0491 187.823 81.7564C187.81 81.7697 187.797 81.783 187.784 81.7962C188.418 83.2761 189.095 84.9331 188.527 85.0146C188.043 85.0866 187.191 84.4285 186.809 84.1996C186.65 84.1156 186.181 83.829 185.581 83.4466C184.628 84.0947 183.651 84.7278 183.204 85.0342C181.797 86.016 182.376 84.4812 182.621 83.6926C182.869 82.8961 183.066 82.4189 183.282 81.8937C182.073 81.0216 181.09 80.1927 181.388 80.0035Z" fill="#F8D41B"/>
<path d="M180.191 113.589C180.768 113.252 181.982 113.226 182.916 113.197C183.156 112.495 183.41 111.787 183.748 111.138C184.043 110.571 184.417 109.867 184.761 110.732C185.062 111.491 185.367 112.246 185.647 113.016C185.762 113.01 185.872 113.004 185.987 113.001C186.761 112.969 187.718 112.876 188.464 112.954C188.58 114.001 187.286 114.635 186.626 115.342C186.613 115.356 186.6 115.369 186.588 115.382C187.222 116.862 187.898 118.519 187.33 118.601C186.846 118.673 185.994 118.014 185.612 117.786C185.454 117.702 184.984 117.415 184.384 117.033C183.432 117.681 182.454 118.314 182.007 118.62C180.6 119.602 181.179 118.067 181.425 117.279C181.672 116.482 181.869 116.005 182.085 115.48C180.876 114.607 179.893 113.779 180.191 113.589Z" fill="#F8D41B"/>
<path d="M192.82 124.456C193.397 124.118 194.611 124.093 195.545 124.063C195.785 123.361 196.039 122.654 196.377 122.004C196.672 121.437 197.046 120.733 197.39 121.598C197.691 122.357 197.996 123.113 198.276 123.882C198.391 123.876 198.502 123.87 198.617 123.867C199.39 123.836 200.348 123.742 201.094 123.82C201.209 124.867 199.915 125.501 199.255 126.209C199.242 126.222 199.23 126.235 199.217 126.248C199.851 127.728 200.527 129.385 199.959 129.467C199.475 129.539 198.623 128.881 198.241 128.652C198.083 128.568 197.613 128.281 197.013 127.899C196.061 128.547 195.084 129.18 194.636 129.486C193.229 130.468 193.808 128.933 194.054 128.145C194.301 127.348 194.499 126.871 194.714 126.346C193.505 125.474 192.522 124.645 192.82 124.456Z" fill="#F8D41B"/>
<path d="M231.579 124.552C232.155 124.214 233.369 124.189 234.303 124.159C234.544 123.458 234.798 122.75 235.136 122.101C235.43 121.534 235.804 120.83 236.148 121.695C236.45 122.454 236.754 123.209 237.035 123.979C237.149 123.973 237.26 123.966 237.375 123.963C238.149 123.932 239.106 123.839 239.852 123.917C239.968 124.964 238.674 125.598 238.014 126.305C238.001 126.319 237.988 126.332 237.975 126.345C238.609 127.825 239.286 129.482 238.718 129.563C238.234 129.635 237.382 128.977 237 128.748C236.841 128.664 236.372 128.378 235.772 127.995C234.819 128.643 233.842 129.277 233.395 129.583C231.988 130.565 232.567 129.03 232.812 128.241C233.06 127.445 233.257 126.968 233.473 126.443C232.263 125.57 231.281 124.742 231.579 124.552Z" fill="#F8D41B"/>
<path d="M245.444 111.591C246.021 111.254 247.235 111.228 248.168 111.198C248.409 110.497 248.663 109.789 249.001 109.14C249.295 108.573 249.669 107.869 250.013 108.734C250.315 109.493 250.619 110.248 250.9 111.018C251.014 111.012 251.125 111.005 251.24 111.002C252.014 110.971 252.971 110.878 253.717 110.956C253.833 112.003 252.539 112.637 251.879 113.344C251.866 113.358 251.853 113.371 251.84 113.384C252.474 114.864 253.151 116.521 252.583 116.602C252.099 116.675 251.247 116.016 250.865 115.787C250.706 115.704 250.237 115.417 249.637 115.035C248.684 115.683 247.707 116.316 247.26 116.622C245.853 117.604 246.432 116.069 246.677 115.28C246.925 114.484 247.122 114.007 247.338 113.482C246.129 112.609 245.146 111.781 245.444 111.591Z" fill="#F8D41B"/>
<path d="M245.358 76.1529C245.934 75.815 247.148 75.79 248.082 75.76C248.322 75.0585 248.577 74.351 248.914 73.7017C249.209 73.1341 249.583 72.4304 249.927 73.2955C250.229 74.0547 250.533 74.8098 250.814 75.5798C250.928 75.5731 251.039 75.567 251.154 75.564C251.928 75.5329 252.885 75.4392 253.631 75.5174C253.747 76.5646 252.453 77.1986 251.793 77.9058C251.78 77.9191 251.767 77.9324 251.754 77.9456C252.388 79.4255 253.065 81.0825 252.497 81.164C252.012 81.236 251.161 80.578 250.779 80.349C250.62 80.265 250.151 79.9785 249.551 79.596C248.598 80.2441 247.621 80.8772 247.174 81.1836C245.767 82.1654 246.346 80.6306 246.591 79.842C246.839 79.0455 247.036 78.5683 247.252 78.0431C246.042 77.171 245.06 76.3421 245.358 76.1529Z" fill="#F8D41B"/>
<path d="M230.868 66.0904C231.444 65.7525 232.658 65.7275 233.592 65.6975C233.832 64.996 234.087 64.2885 234.424 63.6392C234.719 63.0716 235.093 62.3679 235.437 63.233C235.739 63.9922 236.043 64.7473 236.324 65.5173C236.438 65.5106 236.549 65.5045 236.664 65.5015C237.438 65.4704 238.395 65.3767 239.141 65.4549C239.257 66.5021 237.963 67.1361 237.303 67.8433C237.29 67.8566 237.277 67.8699 237.264 67.8831C237.898 69.363 238.575 71.02 238.007 71.1015C237.522 71.1735 236.671 70.5155 236.289 70.2865C236.13 70.2025 235.661 69.916 235.061 69.5335C234.108 70.1816 233.131 70.8147 232.684 71.1211C231.277 72.1029 231.856 70.5681 232.101 69.7795C232.349 68.983 232.546 68.5058 232.762 67.9806C231.552 67.1085 230.57 66.2796 230.868 66.0904Z" fill="#F8D41B"/>
<path d="M195.082 69.1246C195.658 68.7867 196.872 68.7617 197.806 68.7317C198.047 68.0301 198.301 67.3227 198.639 66.6734C198.933 66.1058 199.307 65.4021 199.651 66.2672C199.953 67.0264 200.257 67.7815 200.538 68.5514C200.652 68.5448 200.763 68.5387 200.878 68.5357C201.652 68.5046 202.609 68.4109 203.355 68.4891C203.471 69.5363 202.177 70.1702 201.517 70.8775C201.504 70.8908 201.491 70.9041 201.478 70.9173C202.112 72.3972 202.789 74.0542 202.221 74.1357C201.737 74.2077 200.885 73.5496 200.503 73.3207C200.344 73.2367 199.875 72.9501 199.275 72.5677C198.322 73.2158 197.345 73.8489 196.898 74.1553C195.491 75.137 196.07 73.6023 196.315 72.8137C196.563 72.0172 196.76 71.54 196.976 71.0148C195.766 70.1426 194.784 69.3138 195.082 69.1246Z" fill="#F8D41B"/>
<path d="M175.988 96.2632C176.565 95.9254 177.779 95.9003 178.712 95.8704C178.953 95.1688 179.207 94.4613 179.545 93.812C179.839 93.2445 180.213 92.5407 180.557 93.4058C180.859 94.1651 181.163 94.9201 181.444 95.6901C181.559 95.6835 181.669 95.6774 181.784 95.6744C182.558 95.6432 183.515 95.5496 184.261 95.6278C184.377 96.675 183.083 97.3089 182.423 98.0162C182.41 98.0295 182.397 98.0427 182.384 98.056C183.018 99.5359 183.695 101.193 183.127 101.274C182.643 101.346 181.791 100.688 181.409 100.459C181.25 100.375 180.781 100.089 180.181 99.7064C179.228 100.354 178.251 100.988 177.804 101.294C176.397 102.276 176.976 100.741 177.221 99.9524C177.469 99.1559 177.666 98.6786 177.882 98.1535C176.673 97.2813 175.69 96.4525 175.988 96.2632Z" fill="#F8D41B"/>
<path d="M211.453 129.247C212.029 128.909 213.243 128.884 214.177 128.854C214.417 128.152 214.671 127.445 215.009 126.795C215.304 126.228 215.678 125.524 216.022 126.389C216.323 127.148 216.628 127.904 216.909 128.674C217.023 128.667 217.134 128.661 217.249 128.658C218.022 128.627 218.98 128.533 219.726 128.611C219.841 129.658 218.548 130.292 217.887 131C217.875 131.013 217.862 131.026 217.849 131.039C218.483 132.519 219.16 134.176 218.591 134.258C218.107 134.33 217.256 133.672 216.873 133.443C216.715 133.359 216.245 133.072 215.646 132.69C214.693 133.338 213.716 133.971 213.268 134.277C211.862 135.259 212.441 133.724 212.686 132.936C212.934 132.139 213.131 131.662 213.346 131.137C212.137 130.265 211.154 129.436 211.453 129.247Z" fill="#F8D41B"/>
<path d="M250.531 93.3257C251.107 92.9879 252.321 92.9628 253.255 92.9329C253.495 92.2313 253.749 91.5238 254.087 90.8745C254.382 90.307 254.756 89.6032 255.1 90.4683C255.401 91.2276 255.706 91.9826 255.987 92.7526C256.101 92.746 256.212 92.7399 256.327 92.7369C257.1 92.7057 258.058 92.6121 258.804 92.6903C258.919 93.7375 257.626 94.3714 256.965 95.0787C256.953 95.092 256.94 95.1052 256.927 95.1185C257.561 96.5984 258.238 98.2553 257.669 98.3368C257.185 98.4089 256.334 97.7508 255.951 97.5219C255.793 97.4379 255.323 97.1513 254.723 96.7689C253.771 97.4169 252.794 98.0501 252.346 98.3565C250.94 99.3382 251.519 97.8034 251.764 97.0149C252.012 96.2184 252.209 95.7411 252.424 95.216C251.215 94.3438 250.232 93.515 250.531 93.3257Z" fill="#F8D41B"/>
</g>
<defs>
<clipPath id="clip0">
<rect width="300" height="300" fill="white"/>
</clipPath>
</defs>
</svg>
