<svg xmlns="http://www.w3.org/2000/svg" width="85" height="40" fill="none" viewBox="0 0 85 40">
    <rect width="85" height="40" fill="#1877F2" rx="3"/>
    <path fill="#fff" fill-rule="evenodd" d="M55 20c0-6.627-5.373-12-12-12s-12 5.373-12 12c0 5.99 4.388 10.954 10.125 11.854V23.47h-3.047V20h3.047v-2.644c0-3.007 1.791-4.669 4.533-4.669 1.313 0 2.686.235 2.686.235v2.953H46.83c-1.491 0-1.956.925-1.956 1.874V20h3.328l-.532 3.469h-2.796v8.385C50.612 30.954 55 25.99 55 20z" clip-rule="evenodd"/>
</svg>
