<svg xmlns="http://www.w3.org/2000/svg" width="200" height="120" fill="none" viewBox="0 0 200 120">
    <g fill="#fff" clip-path="url(#prefix__clip0)">
        <path d="M36 55.85c.075-.081.19-.145.213-.237.3-1.08.6-2.165.865-3.25.08-.323.213-.508.558-.56 1.481-.242 2.95-.525 4.438-.75 1.02-.156 2.045-.248 3.07-.347 1.205-.12 2.415-.236 3.62-.329a130.84 130.84 0 017.128-.329c2.823-.04 5.641-.08 8.465-.086 1.435-.006 2.87.063 4.304.104.997.028 1.994.069 2.997.11.835.034 1.67.069 2.5.109 1.47.07 2.934.144 4.403.22 1.25.069 2.495.144 3.746.219 1.192.069 2.385.144 3.584.219 1.14.07 2.282.144 3.417.22 1.1.074 2.207.144 3.307.219 1.05.069 2.098.144 3.147.22l4.552.328c1.032.075 2.057.15 3.089.214 1.25.08 2.495.156 3.745.22 1.539.08 3.083.155 4.622.218 1.089.047 2.178.087 3.267.11 1.873.046 3.746.07 5.618.115 1.055.024 2.109.093 3.158.087 2.294-.017 4.587-.058 6.88-.104.963-.017 1.925-.063 2.887-.11 1.36-.063 2.72-.138 4.074-.219 1.032-.063 2.063-.127 3.089-.22 1.366-.126 2.731-.282 4.103-.42 1.152-.116 2.311-.203 3.457-.353 1.435-.184 2.864-.404 4.293-.623 1.216-.185 2.432-.358 3.636-.583a86.9 86.9 0 003.659-.756c1.372-.312 2.743-.658 4.109-.987v.438c-.075.081-.19.15-.213.243-.34 1.183-.674 2.366-1.014 3.584-.963.226-1.908.462-2.859.659-.922.184-1.844.34-2.771.484-.928.145-1.862.272-2.789.393-.859.115-1.723.213-2.582.312-.415.046-.83.092-1.244.12-.761.053-1.522.087-2.282.122-1.648.075-3.302.156-4.95.225-.98.04-1.959.087-2.939.104-2.311.04-4.622.092-6.932.092-2.15 0-4.293-.057-6.443-.103-1.181-.023-2.362-.07-3.543-.11-.946-.035-1.891-.07-2.83-.11-1.579-.07-3.158-.138-4.731-.22a296.746 296.746 0 01-3.964-.219c-1.176-.069-2.351-.144-3.527-.219-1.124-.07-2.241-.144-3.365-.22-1.539-.103-3.071-.219-4.61-.328-1.049-.075-2.098-.15-3.146-.22-1.21-.08-2.426-.15-3.636-.219-1.36-.075-2.714-.15-4.074-.22-.888-.045-1.78-.074-2.668-.109-1.014-.04-2.035-.08-3.049-.11-1.619-.04-3.238-.086-4.857-.11a672.72 672.72 0 00-8.356-.086c-1.585-.006-3.163.058-4.748.104-.905.023-1.815.063-2.72.11-1.412.069-2.83.138-4.241.219a84.91 84.91 0 00-2.98.22c-1.365.126-2.736.276-4.102.415-.83.08-1.66.144-2.49.237-.737.08-1.469.184-2.2.282-.646.087-1.291.168-1.937.26-.858.121-1.723.231-2.575.37-1.43.23-2.853.485-4.276.733-.64.115-1.274.254-1.913.38-.156.024-.3.03-.444.047v-.22zM147.047 28.8c.058.035.11.092.167.104 1.925.329 2.997 1.541 3.411 3.377.15.67.219 1.374.231 2.06.029 2.315.035 4.636-.006 6.95-.011.757-.109 1.53-.288 2.27-.513 2.06-1.711 3.076-3.815 3.336a6.627 6.627 0 01-2.385-.139c-1.619-.387-2.57-1.472-2.974-3.03a10.333 10.333 0 01-.317-2.373c-.04-2.355-.04-4.704 0-7.06.012-.756.127-1.53.3-2.268.409-1.726 1.504-2.783 3.267-3.112.075-.017.15-.069.219-.11.726-.005 1.458-.005 2.19-.005zm1.227 9.051h-.005c0-1.587.052-3.175-.018-4.756-.069-1.57-.939-2.286-2.512-2.2-.179.012-.363.04-.542.075-.68.15-1.158.549-1.348 1.218-.127.45-.219.93-.225 1.397a599.218 599.218 0 000 8.48c.006.502.11 1.016.254 1.5.184.619.622 1.057 1.267 1.155.531.081 1.09.081 1.62 0 .593-.086 1.025-.484 1.221-1.056.139-.392.26-.808.265-1.218.046-1.53.023-3.065.023-4.595zM119.474 28.8c.092.035.184.087.282.11 1.608.306 2.697 1.23 3.187 2.793.184.583.334 1.207.34 1.819.035 2.863.04 5.726-.006 8.583-.011.676-.19 1.374-.409 2.027-.478 1.443-1.498 2.337-2.996 2.66a6.645 6.645 0 01-3.141-.063c-1.51-.404-2.437-1.426-2.829-2.903a9.266 9.266 0 01-.329-2.205c-.04-2.535-.023-5.069-.011-7.603.006-.86.138-1.708.438-2.517.478-1.304 1.377-2.158 2.743-2.499.184-.046.357-.133.536-.196.737-.006 1.469-.006 2.195-.006zm1.325 9.034v-1.316c0-1.057.029-2.119-.017-3.175-.081-1.934-1.216-2.794-3.054-2.39-.703.156-1.193.56-1.395 1.241a5.03 5.03 0 00-.218 1.397c-.024 2.77-.018 5.547-.006 8.318 0 .364.046.727.103 1.085.202 1.184.888 1.773 2.092 1.819.185.005.363-.006.548-.018.876-.063 1.481-.52 1.717-1.356.138-.502.213-1.04.225-1.559.023-1.345 0-2.695.005-4.046zM45.767 71.262c.611-4.231 1.228-8.503 1.844-12.792h2.622c.611 4.203 1.216 8.388 1.827 12.573.029.005.052.005.08.011.294-2.09.582-4.179.888-6.269.311-2.107.64-4.208.956-6.32h2.542c-1.055 5.916-2.098 11.798-3.152 17.704H50.78L48.925 63.33c-.616 4.214-1.239 8.514-1.873 12.838h-2.587c-1.049-5.894-2.098-11.77-3.152-17.693h2.57c.634 4.266 1.262 8.56 1.884 12.786zM67.451 58.47h1.884c1.435 3.544 2.87 7.1 4.305 10.656.029-.006.058-.006.08-.011V58.482h2.519v17.71h-1.764c-1.463-3.804-2.933-7.637-4.408-11.464-.034.005-.063.011-.098.011v11.43h-2.524c.006-5.877.006-11.776.006-17.699zM90.19 58.459c.086-.006.172-.018.259-.018 1.406.006 2.806 0 4.212.023a6.143 6.143 0 012.184.445c1.337.537 2.207 1.5 2.415 2.938.103.71.08 1.46-.012 2.17-.138 1.074-.772 1.825-1.746 2.292-.26.121-.524.225-.87.37.144.075.225.127.311.161 1.677.635 2.558 1.853 2.697 3.637.063.825.023 1.645-.225 2.442-.57 1.841-1.855 2.874-3.722 3.192-.392.07-.796.086-1.199.092-1.423.012-2.84.006-4.31.006.005-5.923.005-11.822.005-17.75zm2.506 9.438v6.384c.83.046 1.642.046 2.45-.121 1.02-.214 1.618-.855 1.849-1.847a5.287 5.287 0 000-2.385c-.242-1.05-.905-1.702-1.965-1.87-.743-.115-1.51-.11-2.334-.161zm.006-1.876c.645 0 1.25.04 1.844-.006 1.325-.11 2.172-.814 2.455-2.026.138-.583.184-1.184.063-1.79-.15-.762-.553-1.293-1.29-1.547-.998-.346-2.023-.323-3.072-.283v5.652zM158.33 76.18h-2.507v-8.19h-4.414v8.184h-2.541V58.522c.351-.121 1.936-.138 2.535-.023v7.504h4.391V58.46h2.542c-.006 5.9-.006 11.799-.006 17.721zM111.948 67.262c0-1.241-.011-2.482.006-3.724.012-.86.133-1.708.421-2.522.495-1.403 1.458-2.286 2.91-2.61a6.85 6.85 0 013.244.041c1.314.335 2.201 1.155 2.703 2.407.357.895.489 1.836.501 2.783.023 2.424.04 4.854-.012 7.279-.017.808-.167 1.633-.38 2.418-.467 1.692-1.631 2.679-3.359 2.956a6.77 6.77 0 01-2.766-.098c-1.337-.33-2.242-1.155-2.755-2.43-.351-.878-.49-1.796-.507-2.725-.023-1.253-.006-2.517-.006-3.775zm2.582-.03c0 1.554-.017 3.1.011 4.653.006.41.116.832.26 1.218.259.687.801 1.068 1.532 1.143.271.03.548.04.819.018 1.008-.07 1.625-.554 1.855-1.547.127-.543.167-1.12.173-1.68.017-2.517.006-5.034.006-7.55 0-.272-.006-.549-.029-.82-.138-1.726-.916-2.413-2.633-2.315-.991.058-1.637.572-1.873 1.536a3.834 3.834 0 00-.121.808c-.006 1.506 0 3.019 0 4.537zM108.272 67.337c.49 1.512.962 2.961 1.429 4.416.467 1.448.928 2.903 1.412 4.41h-2.524c-.841-2.713-1.683-5.438-2.536-8.185h-1.884v8.196h-2.455c-.121-.37-.161-16.769-.04-17.733h.409c1.187.006 2.368-.023 3.555.035.686.035 1.378.15 2.04.346 1.452.422 2.351 1.415 2.674 2.898a6.86 6.86 0 01-.006 2.984c-.265 1.178-.864 2.119-2.074 2.633zm-4.091-1.31c.685.017 1.336.034 1.976-.145.899-.254 1.487-.814 1.683-1.749.132-.63.138-1.27 0-1.9-.19-.853-.698-1.413-1.539-1.69-.686-.225-1.383-.225-2.12-.185v5.668zM144.079 69.213h-2.541V67.37h5.037v8.81h-1.873c-.19-.543-.392-1.12-.623-1.785l-.293.555c-.548 1.021-1.383 1.512-2.547 1.42-.289-.023-.582-.03-.871-.075-2.022-.318-3.129-1.605-3.561-3.51a13.585 13.585 0 01-.328-2.598c-.046-2.003-.029-4.011-.012-6.02a8.522 8.522 0 01.427-2.633c.662-2.008 2.08-3.117 4.189-3.267.766-.057 1.527 0 2.27.214 1.032.3 1.81.918 2.323 1.858.634 1.172.755 2.442.778 3.781h-2.559c0-.225.017-.438-.006-.646-.063-.577-.086-1.172-.23-1.726-.236-.906-.87-1.357-1.798-1.397-1.694-.075-2.633.808-2.806 2.644a12.84 12.84 0 00-.069 1.258c.011 2.28.005 4.56.074 6.84.018.624.179 1.265.398 1.86.34.929 1.078 1.35 2.098 1.344.979-.005 1.688-.45 2.045-1.356.185-.468.306-.976.363-1.478.075-.733.075-1.46.115-2.251zM124.038 58.453h2.535v.589c0 3.81-.011 7.625.012 11.435.005.67.075 1.35.224 2.003.369 1.576 1.971 2.286 3.429 1.576.542-.266.916-.699 1.043-1.27.161-.745.311-1.507.317-2.263.035-3.81.017-7.625.023-11.435v-.63h2.478c.017.058.052.11.052.157-.006 4.138 0 8.283-.029 12.422a7.293 7.293 0 01-.484 2.51c-.565 1.508-1.619 2.437-3.216 2.725a7.087 7.087 0 01-3.036-.08c-1.585-.404-2.501-1.484-2.968-2.996-.294-.947-.398-1.934-.403-2.915-.018-3.885-.012-7.77-.012-11.655 0-.04.017-.075.035-.173zM81.08 70.494c.114.635.195 1.207.322 1.772.069.3.19.595.34.86.582 1.045 1.487 1.363 2.708 1.051.68-.173 1.049-.75 1.1-1.535.076-1.184-.397-2.13-1.273-2.887-.593-.513-1.21-.998-1.82-1.489-.68-.548-1.384-1.08-2.046-1.65-1.671-1.444-2.155-3.297-1.666-5.392.335-1.432 1.303-2.344 2.703-2.754 1.297-.38 2.599-.306 3.86.174 1.516.583 2.317 1.76 2.657 3.301.052.231.08.468.11.705.011.069-.006.144-.018.242-.818.202-1.624.404-2.431.606-.139-.56-.225-1.12-.42-1.645-.456-1.206-1.626-1.772-2.83-1.426-.715.202-1.107.681-1.205 1.397-.167 1.212.277 2.182 1.21 2.938 1.05.855 2.11 1.686 3.158 2.534 1.13.918 1.994 2.02 2.369 3.458.196.75.259 1.518.126 2.28-.322 1.91-1.66 3.14-3.613 3.296a8.38 8.38 0 01-2.01-.075c-1.7-.283-2.819-1.31-3.389-2.915-.242-.681-.34-1.408-.524-2.188.91-.23 1.728-.438 2.581-.658zM65.878 76.18h-2.547c-.317-1.455-.634-2.927-.95-4.404h-3.159c-.316 1.46-.628 2.915-.95 4.398H55.73c1.267-5.91 2.523-11.799 3.791-17.71h2.564c1.257 5.9 2.519 11.788 3.792 17.716zm-6.339-6.355h2.524c-.415-2.47-.818-4.901-1.227-7.331-.023.005-.052.005-.075.011-.403 2.419-.807 4.843-1.222 7.32zM84.813 89.705v-8.647c.98.023 1.942-.087 2.893.11.755.155 1.21.646 1.348 1.402.058.324.093.653.098.976.012 1.114.023 2.228-.005 3.336-.012.45-.081.906-.185 1.345-.19.768-.72 1.241-1.492 1.328-.865.115-1.74.11-2.657.15zm1.233-7.689v6.696h.57c.917-.006 1.24-.312 1.263-1.247.017-.912.011-1.824.011-2.736 0-.566.006-1.131-.023-1.697-.034-.675-.363-.987-1.031-1.022-.254 0-.507.006-.79.006zM138.524 89.243c-.034.133-.069.248-.109.393h-1.164V81.11h1.193v2.944c.207-.162.322-.26.443-.347.721-.525 1.643-.288 2.012.526.023.052.046.098.057.155.352 1.461.415 2.927-.052 4.364-.288.895-1.054 1.224-1.803.86-.19-.103-.363-.236-.577-.369zm-.011-4.548v3.85c1.083.346 1.366.156 1.441-.918 0-.035.005-.075.005-.11 0-.692.018-1.385-.005-2.078-.029-.94-.387-1.172-1.262-.848-.064.023-.121.069-.179.104zM132.284 81.087h1.244l1.844 8.583H134.145c-.161-.704-.323-1.408-.484-2.13h-1.504l-.467 2.101h-1.227c.611-2.863 1.216-5.691 1.821-8.554zm1.227 5.495c-.196-1.154-.38-2.274-.57-3.388-.029.005-.052.011-.081.017-.184 1.12-.363 2.234-.553 3.377.421-.006.778-.006 1.204-.006zM144.713 89.641h-1.21v-6.095h1.164c.029.144.064.294.098.473.069-.023.144-.029.19-.07.346-.288.726-.484 1.182-.507.559-.029.985.294.996.854.024 1.766.012 3.533.012 5.334h-1.204c-.006-.162-.023-.34-.023-.514V85.56v-.329c-.006-.606-.098-.762-.456-.767-.466-.006-.743.282-.743.785v3.827c-.006.184-.006.363-.006.565zM97.122 83.54h1.198c.018.19.029.352.046.554.202-.138.363-.288.548-.375.26-.116.536-.237.818-.271.582-.075 1.02.277 1.026.86.023 1.766.011 3.527.011 5.322h-1.187c-.011-.18-.029-.335-.029-.497v-3.607c0-.075.006-.145 0-.22-.028-.294.087-.67-.276-.82-.346-.144-.623.076-.922.3v4.873h-1.233v-6.12zM92.31 85.353h-1.13c-.069-.988.473-1.72 1.378-1.882 1.026-.185 1.907.3 2.155 1.212.07.26.098.537.104.808.011.762-.006 1.53.006 2.297.011.6.046 1.195.069 1.836h-1.136a39.437 39.437 0 00-.184-.762c-.121.162-.202.272-.282.375-.553.716-1.47.653-1.937-.132-.443-.745-.236-1.842.49-2.42.294-.23.646-.397.98-.576.225-.116.46-.202.715-.312 0-.289.028-.577-.006-.86-.04-.34-.242-.514-.53-.525-.323-.018-.507.155-.582.456-.04.161-.075.317-.11.485zm1.25 1.402a1.605 1.605 0 01-.115-.092c-.282.22-.605.398-.824.664-.161.19-.242.49-.253.744-.018.399.253.647.593.635.323-.011.588-.283.6-.646.011-.433 0-.872 0-1.305zM153.028 86.61h-2.42c.023.555.018 1.075.081 1.588.034.272.184.52.536.52.311 0 .49-.173.559-.554.034-.197.04-.393.063-.624h1.204c-.017.71-.063 1.403-.674 1.865-.599.45-1.296.473-1.97.179-.617-.272-.824-.86-.922-1.46a9.357 9.357 0 01-.006-3.106c.178-1.074.801-1.6 1.826-1.565.801.023 1.303.387 1.539 1.155.184.617.236 1.27.184 2.003zm-1.181-.669c-.046-.363-.063-.704-.132-1.027-.058-.266-.225-.462-.531-.456-.276.006-.432.208-.478.444-.063.33-.069.67-.104 1.04h1.245zM110.369 86.61h-2.426c.029.55.024 1.075.087 1.583.046.369.294.536.593.52.346-.024.456-.255.496-.55.029-.196.052-.392.086-.629h1.17c.046.705-.052 1.357-.616 1.83-.548.462-1.21.474-1.862.272-.576-.18-.864-.647-.997-1.207-.218-.912-.224-1.841-.144-2.77.035-.399.104-.797.231-1.172.23-.693.743-1.022 1.504-1.04.812-.017 1.325.278 1.619.965.288.675.306 1.402.259 2.199zm-2.426-.669h1.251c-.046-.37-.063-.71-.133-1.033-.051-.237-.207-.433-.478-.45-.311-.017-.478.196-.536.45-.069.323-.069.67-.104 1.033zM49.15 87.517h1.181c.017.75-.04 1.455-.703 1.905-.634.433-1.337.433-2.023.098-.426-.208-.64-.612-.737-1.039-.277-1.24-.323-2.5-.023-3.74.213-.895.766-1.293 1.648-1.3.893-.005 1.47.393 1.671 1.265.138.595.161 1.218.236 1.882h-2.46c-.035.583-.075 1.12.057 1.65.075.295.237.491.577.468.31-.017.443-.225.5-.496.041-.202.047-.421.076-.693zm0-1.57c-.046-.375-.075-.716-.139-1.045-.046-.248-.207-.433-.478-.438-.3-.012-.472.184-.524.456-.058.329-.075.663-.115 1.027h1.256zM63.199 86.605h-2.404c.04.572.07 1.091.127 1.605.035.3.196.508.542.496.305-.011.49-.196.547-.571.03-.197.035-.393.052-.612h1.141c.213 1.541-.841 2.517-2.305 2.153-.346-.087-.645-.271-.824-.583-.127-.22-.26-.45-.31-.693-.237-1.189-.278-2.39-.018-3.579.242-1.114 1.13-1.616 2.23-1.321.495.132.824.45 1.014.917.236.566.323 1.444.208 2.188zm-1.124-.658c-.064-.421-.092-.78-.173-1.12a.464.464 0 00-.478-.37c-.254 0-.398.162-.479.382a2.028 2.028 0 00-.08 1.114c.392-.006.743-.006 1.21-.006zM154.4 83.552h1.216c.236 1.281.467 2.545.697 3.81h.11c.23-1.265.46-2.529.697-3.81h1.221c-.132.594-.253 1.154-.386 1.714-.345 1.449-.749 2.892-1.025 4.352-.214 1.132-.997 1.651-2.202 1.576v-.93c.081-.01.167-.016.254-.034.634-.138.859-.467.709-1.108-.415-1.79-.842-3.579-1.262-5.368-.006-.052-.012-.104-.029-.203zM43.347 84.752H44.8v.93h-1.48v3.954h-1.222v-8.55h3.319V82H43.34c.006.93.006 1.812.006 2.753zM52.469 81.064h.726c.144 0 .282.011.455.023v8.554H52.47v-8.577zM57.31 81.064v8.566h-1.205v-8.566h1.204zM112.519 81.087h1.135v8.554h-1.135v-8.554zM65.365 83.552h1.164c.017.19.029.363.046.623.438-.416.824-.802 1.458-.716v1.299a6.4 6.4 0 01-.351-.04c-.715-.116-1.118.207-1.124.94-.012 1.074-.006 2.148-.006 3.221v.745H65.36c.006-1.986.006-3.994.006-6.072zM75.853 80.515h.818v9.68h-.818v-9.68zM122.931 90.213h-.806v-9.698h.806v9.698zM103.19 83.552h1.158v6.118h-.819c-.103 0-.213-.017-.339-.029v-6.09zM103.184 82.605V81.41h1.169v1.195h-1.169zM96.09 46.723c-.841-2.724-1.682-5.431-2.53-8.173h-1.89v8.162h-2.523V29.037c.034-.018.063-.052.097-.052 1.637.04 3.273.069 4.91.144.392.017.784.156 1.158.283 1.372.462 2.207 1.408 2.53 2.828a6.81 6.81 0 01-.07 3.302c-.27 1.01-.835 1.813-1.82 2.263-.046.023-.08.07-.15.133.934 2.909 1.873 5.824 2.824 8.791-.865-.006-1.66-.006-2.536-.006zm-4.402-10.16c.743.041 1.44.035 2.132-.19.812-.265 1.325-.802 1.51-1.639.167-.762.172-1.518-.081-2.263a2.016 2.016 0 00-1.141-1.252c-.766-.341-1.579-.358-2.42-.312v5.657zM69.64 29.02c.093-.012.18-.035.266-.035 1.314.011 2.622-.012 3.936.046a7.349 7.349 0 011.867.346c1.457.462 2.356 1.46 2.644 2.979a7.097 7.097 0 01-.051 3.036c-.254 1.056-.801 1.91-1.821 2.39-.064.029-.115.08-.19.133.939 2.932 1.878 5.853 2.829 8.814h-2.524c-.841-2.707-1.683-5.426-2.535-8.18h-1.914v8.18h-2.5c-.006-5.893-.006-11.793-.006-17.71zm2.519 7.544c.461 0 .876.035 1.29-.006 1.51-.144 2.317-.871 2.456-2.291a5.34 5.34 0 00-.098-1.57c-.139-.7-.565-1.213-1.234-1.502-.772-.329-1.578-.346-2.42-.288.006 1.899.006 3.752.006 5.657zM130.97 46.718V28.95c1.567.035 3.112.058 4.656.121.449.018.899.145 1.331.277 1.585.485 2.501 1.559 2.766 3.193a7.318 7.318 0 01-.017 2.505c-.225 1.276-.824 2.286-2.092 2.834l2.829 8.838h-2.524c-.835-2.696-1.682-5.42-2.535-8.174H133.5v8.168c-.859.006-1.671.006-2.53.006zm2.535-10.05c.744-.098 1.435-.145 2.098-.3.83-.19 1.343-.768 1.538-1.6a4.208 4.208 0 00-.04-2.204c-.213-.716-.68-1.19-1.377-1.438-.715-.254-1.452-.271-2.219-.22v5.762zM58.67 28.985h.656c1.164.011 2.334.006 3.498.034a6.38 6.38 0 012.282.497c1.175.49 1.913 1.356 2.213 2.597a6.85 6.85 0 01-.047 3.464c-.288 1.056-.898 1.858-1.97 2.303.939 2.95 1.878 5.87 2.83 8.843h-2.513c-.842-2.695-1.689-5.414-2.542-8.168h-1.89v8.157H58.67V28.985zm2.5 7.579c.709.035 1.371.04 2.029-.144.835-.237 1.423-.745 1.619-1.6.11-.473.15-.975.127-1.46-.04-.721-.248-1.414-.865-1.87-.876-.652-1.884-.618-2.91-.595v5.669zM103.581 29.025c1.792 0 3.544-.086 5.284.023 1.562.098 2.691.953 3.199 2.494.432 1.31.512 2.65.201 3.989-.374 1.645-1.55 2.701-3.232 2.886-.755.08-1.528.07-2.288.098-.196.006-.392 0-.634 0v8.208h-2.53V29.025zm2.547 7.608c.749-.058 1.441-.07 2.115-.173.968-.15 1.521-.762 1.596-1.732a9.941 9.941 0 00-.017-1.8c-.081-.751-.346-1.432-1.118-1.744-.824-.34-1.694-.3-2.576-.289v5.738zM80.612 28.99h6.904v1.888h-4.35v5.697h3.105v1.94h-3.123v6.31h4.356v1.904h-6.897c.005-5.9.005-11.793.005-17.738zM52.67 44.842h4.392v1.876h-6.938V29.025h6.938v1.853h-4.397v5.709h3.117v1.916h-3.111v6.339zM44.523 46.735h-2.524v-17.71h6.892v1.847h-4.34v5.692h3.09v1.934h-3.124c.006 2.776.006 5.483.006 8.237zM154.504 31.247h-3.17V29.02h8.811v2.2h-3.106v15.493h-2.53c-.005-5.12-.005-10.252-.005-15.465zM128.193 46.73h-2.473V28.984H128.198c-.005 5.934-.005 11.822-.005 17.744zM160.98 61.062H160.865c-.029 0-.057-.006-.086-.006a1.352 1.352 0 01-.905-.514 1.308 1.308 0 01-.265-.704c0-.017 0-.034-.006-.046v-.11-.011l.018-.167c.04-.231.138-.44.293-.618.242-.283.554-.439.928-.468a1.313 1.313 0 011.256.705c.127.242.179.502.144.773a1.32 1.32 0 01-.731 1.039c-.144.075-.3.116-.456.133-.023-.012-.046-.006-.075-.006zm-1.106-1.328a1.055 1.055 0 102.107.002 1.055 1.055 0 00-2.107-.002z"/>
        <path d="M160.704 59.873v.525h-.357v-1.385h.576c.092 0 .178.012.271.04a.32.32 0 01.15.093.26.26 0 01.074.167.42.42 0 01-.011.208.31.31 0 01-.173.196.398.398 0 01-.075.029.296.296 0 01.087.04.392.392 0 01.115.139c.04.075.08.15.115.225.04.075.075.156.115.231 0 .006.006.006.006.011h-.369c-.005 0-.011-.005-.017-.011-.058-.115-.115-.237-.173-.352a.305.305 0 00-.052-.08.19.19 0 00-.138-.082c-.04.006-.092.006-.144.006zm.006-.248h.167c.029 0 .052-.006.08-.012.052-.011.093-.046.104-.098a.25.25 0 000-.133.123.123 0 00-.092-.098c-.029-.005-.058-.011-.086-.011h-.168c-.005.115-.005.236-.005.352z"/>
    </g>
    <defs>
        <clipPath id="prefix__clip0">
            <path fill="#fff" d="M36 28.8H164V91.2H36z"/>
        </clipPath>
    </defs>
</svg>
