<svg width="160" height="160" viewBox="0 0 160 160" fill="none" xmlns="http://www.w3.org/2000/svg">
<path d="M33.2615 115.096L80.772 139.272L126.478 115.096V20.5558H33.2615V115.096Z" fill="white"/>
<path d="M127.441 20.9167L32.2993 116.78L81.6141 141.197L127.441 117.742V20.9167Z" fill="#F2F3F2"/>
<path d="M30.1343 52.0692V117.141L31.8182 117.983L79.3287 142.159L80.7721 142.88L82.2155 142.159L128.042 117.983L129.726 117.141V17.4286H30.1343V52.0692ZM33.2616 115.336V20.5559H126.599V115.336L80.7721 139.513L33.2616 115.336Z" fill="#DCDEDC"/>
<path d="M79.9302 22.1195C80.4113 22.1195 80.8924 22.1195 81.3735 22.2398L79.9302 25.0062C77.7651 24.8859 75.8407 26.5699 75.7204 28.7349C75.6001 30.8999 77.284 32.8244 79.4491 32.9447H79.9302C80.8924 32.9447 81.8546 32.5838 82.5763 31.9824L84.14 34.6286C82.9372 35.4706 81.4938 35.9517 79.9302 35.9517C76.0812 36.072 72.8337 33.1852 72.7134 29.3363C72.5931 25.4873 75.4798 22.2398 79.3288 22.1195H79.9302ZM84.8616 28.0132L86.6658 31.0202L84.8616 33.9069L83.1777 31.0202H79.6896L81.4938 28.0132H84.8616ZM81.9749 26.9307C81.9749 26.4496 82.0952 25.9685 82.3358 25.6076C82.5763 25.2468 83.0574 24.8859 83.4183 24.6454L83.6588 24.5251C84.14 24.2845 84.2602 24.1643 84.2602 23.9237C84.2602 23.6831 83.8994 23.4426 83.6588 23.4426C83.1777 23.4426 82.8169 23.6831 82.5763 24.1643L81.9749 23.5629C82.0952 23.3223 82.3358 23.0817 82.5763 22.8412C82.9372 22.6006 83.298 22.6006 83.6588 22.6006C84.0197 22.6006 84.5008 22.7209 84.7414 22.9615C84.9819 23.202 85.2225 23.5629 85.2225 23.9237C85.2225 24.5251 84.8617 25.0062 84.14 25.2468L83.7791 25.4873C83.4183 25.7279 83.1777 25.8482 83.0575 26.209H85.2225V27.051L81.9749 26.9307ZM79.9302 41.9657L91.3568 35.4706V17.4286H68.3833V35.3503L79.9302 41.9657Z" fill="#FF492C"/>
<path d="M132.011 84.5448H27.849L24 92.9644L27.849 101.384H132.011L135.74 92.9644L132.011 84.5448Z" fill="#FF492C"/>
<path d="M43.8102 66.4908C44.604 66.4908 45.3017 66.6512 45.9031 66.972C46.5045 67.2927 46.9696 67.7538 47.2983 68.3552C47.6271 68.9486 47.7915 69.6301 47.7915 70.3999C47.7915 71.1617 47.6231 71.8313 47.2863 72.4086C46.9415 72.9779 46.4604 73.423 45.8429 73.7437C45.2255 74.0645 44.5118 74.2248 43.7019 74.2248H41.14C41.0839 74.2248 41.0558 74.2569 41.0558 74.3211V78.9157C41.0558 78.9799 41.0317 79.032 40.9836 79.0721C40.9435 79.1122 40.8914 79.1323 40.8273 79.1323H38.7224C38.6582 79.1323 38.6061 79.1122 38.566 79.0721C38.5259 79.032 38.5059 78.9799 38.5059 78.9157V66.7073C38.5059 66.6432 38.5259 66.5911 38.566 66.551C38.6061 66.5109 38.6582 66.4908 38.7224 66.4908H43.8102ZM43.4253 72.1921C43.9866 72.1921 44.4316 72.0317 44.7604 71.711C45.0972 71.3902 45.2656 70.9733 45.2656 70.4601C45.2656 69.9228 45.0972 69.4938 44.7604 69.1731C44.4316 68.8443 43.9866 68.6799 43.4253 68.6799H41.14C41.0839 68.6799 41.0558 68.712 41.0558 68.7762V72.0959C41.0558 72.16 41.0839 72.1921 41.14 72.1921H43.4253ZM57.4139 73.5392C57.486 73.9963 57.5101 74.5055 57.486 75.0668C57.478 75.2191 57.4018 75.2953 57.2575 75.2953H51.6765C51.6043 75.2953 51.5803 75.3234 51.6043 75.3795C51.6444 75.6201 51.7086 75.8606 51.7968 76.1012C52.1175 76.7748 52.755 77.1116 53.7092 77.1116C54.487 77.1035 55.0965 76.7908 55.5375 76.1734C55.5856 76.1012 55.6377 76.0651 55.6939 76.0651C55.7339 76.0651 55.778 76.0892 55.8262 76.1373L57.1252 77.4123C57.1813 77.4764 57.2094 77.5325 57.2094 77.5806C57.2094 77.6047 57.1893 77.6528 57.1492 77.725C56.7483 78.2221 56.2351 78.603 55.6097 78.8676C54.9842 79.1403 54.2986 79.2766 53.5529 79.2766C52.5185 79.2766 51.6444 79.044 50.9308 78.579C50.2171 78.1059 49.6999 77.4483 49.3792 76.6064C49.1306 76.005 49.0063 75.2192 49.0063 74.2489C49.0063 73.5833 49.0945 72.998 49.2709 72.4928C49.5516 71.6428 50.0367 70.9653 50.7263 70.4601C51.4239 69.9549 52.2458 69.7023 53.192 69.7023C54.3948 69.7023 55.3611 70.0511 56.0908 70.7488C56.8205 71.4464 57.2615 72.3765 57.4139 73.5392ZM53.2041 71.9034C52.4503 71.9034 51.9531 72.2563 51.7126 72.9619C51.6645 73.1223 51.6204 73.3147 51.5803 73.5392C51.5803 73.5954 51.6124 73.6234 51.6765 73.6234H54.7918C54.8639 73.6234 54.892 73.5954 54.8759 73.5392C54.8118 73.1944 54.7797 73.026 54.7797 73.0341C54.6675 72.6732 54.479 72.3926 54.2144 72.1921C53.9418 71.9997 53.605 71.9034 53.2041 71.9034ZM63.6804 69.7384C64.1054 69.7384 64.4462 69.8226 64.7028 69.991C64.799 70.0391 64.8351 70.1273 64.8111 70.2556L64.4262 72.3124C64.4181 72.4567 64.334 72.5008 64.1736 72.4447C63.9972 72.3805 63.7887 72.3485 63.5481 72.3485C63.4519 72.3485 63.3196 72.3605 63.1512 72.3846C62.7182 72.4246 62.3493 72.585 62.0446 72.8657C61.7479 73.1463 61.5996 73.5232 61.5996 73.9963V78.9157C61.5996 78.9799 61.5795 79.032 61.5395 79.0721C61.4913 79.1122 61.4392 79.1323 61.3831 79.1323H59.2782C59.214 79.1323 59.1619 79.1122 59.1218 79.0721C59.0817 79.032 59.0617 78.9799 59.0617 78.9157V70.0752C59.0617 70.0191 59.0817 69.9669 59.1218 69.9188C59.1619 69.8787 59.214 69.8587 59.2782 69.8587H61.3831C61.4392 69.8587 61.4913 69.8787 61.5395 69.9188C61.5795 69.9669 61.5996 70.0191 61.5996 70.0752V70.7608C61.5996 70.7929 61.6116 70.8169 61.6357 70.8329C61.6597 70.849 61.6758 70.841 61.6838 70.8089C62.1809 70.0952 62.8465 69.7384 63.6804 69.7384ZM71.2581 69.8467C71.3142 69.8467 71.3623 69.8667 71.4024 69.9068C71.4505 69.9469 71.4746 69.999 71.4746 70.0632V71.7711C71.4746 71.8353 71.4505 71.8874 71.4024 71.9275C71.3623 71.9676 71.3142 71.9876 71.2581 71.9876H69.502C69.4458 71.9876 69.4178 72.0157 69.4178 72.0718V78.9157C69.4178 78.9799 69.3937 79.032 69.3456 79.0721C69.3055 79.1122 69.2574 79.1323 69.2013 79.1323H67.0844C67.0282 79.1323 66.9761 79.1122 66.928 79.0721C66.8879 79.032 66.8679 78.9799 66.8679 78.9157V72.0718C66.8679 72.0157 66.8358 71.9876 66.7716 71.9876H65.7132C65.657 71.9876 65.6049 71.9676 65.5568 71.9275C65.5167 71.8874 65.4967 71.8353 65.4967 71.7711V70.0632C65.4967 69.999 65.5167 69.9469 65.5568 69.9068C65.6049 69.8667 65.657 69.8467 65.7132 69.8467H66.7716C66.8358 69.8467 66.8679 69.8146 66.8679 69.7504V69.3535C66.8679 68.6078 66.9841 68.0264 67.2167 67.6094C67.4412 67.2005 67.81 66.9078 68.3232 66.7314C68.8364 66.555 69.5421 66.4788 70.4402 66.5029H71.1258C71.1899 66.5029 71.242 66.5229 71.2821 66.563C71.3222 66.6111 71.3423 66.6632 71.3423 66.7194V68.1748C71.3423 68.2389 71.3222 68.291 71.2821 68.3311C71.242 68.3792 71.1899 68.4033 71.1258 68.4033H70.5244C70.1074 68.4113 69.8187 68.4955 69.6583 68.6559C69.498 68.8243 69.4178 69.125 69.4178 69.558V69.7504C69.4178 69.8146 69.4458 69.8467 69.502 69.8467H71.2581ZM77.0435 79.2766C76.0332 79.2766 75.1672 79.012 74.4455 78.4827C73.7238 77.9535 73.2307 77.2318 72.966 76.3177C72.7976 75.7564 72.7135 75.143 72.7135 74.4774C72.7135 73.7718 72.7976 73.1343 72.966 72.565C73.2467 71.6749 73.7438 70.9773 74.4575 70.4721C75.1872 69.9669 76.0572 69.7143 77.0676 69.7143C78.0539 69.7143 78.8918 69.9629 79.5814 70.4601C80.2871 70.9653 80.7842 71.6629 81.0729 72.5529C81.2654 73.1543 81.3616 73.7838 81.3616 74.4413C81.3616 75.0909 81.2774 75.7003 81.109 76.2696C80.8363 77.2078 80.3432 77.9415 79.6295 78.4707C78.9159 79.008 78.0539 79.2766 77.0435 79.2766ZM77.0435 77.0995C77.4445 77.0995 77.7812 76.9792 78.0539 76.7387C78.3265 76.4981 78.527 76.1654 78.6553 75.7404C78.7515 75.3555 78.7996 74.9345 78.7996 74.4774C78.7996 73.9722 78.7515 73.5473 78.6553 73.2025C78.519 72.7935 78.3105 72.4728 78.0298 72.2402C77.7572 72.0157 77.4244 71.9034 77.0315 71.9034C76.6145 71.9034 76.2737 72.0157 76.0091 72.2402C75.7365 72.4728 75.54 72.7935 75.4198 73.2025C75.3235 73.4831 75.2754 73.9081 75.2754 74.4774C75.2754 75.0227 75.3195 75.4437 75.4077 75.7404C75.52 76.1654 75.7204 76.4981 76.0091 76.7387C76.2898 76.9792 76.6346 77.0995 77.0435 77.0995ZM87.6161 69.7384C88.0491 69.7384 88.3899 69.8226 88.6385 69.991C88.7347 70.0391 88.7708 70.1273 88.7468 70.2556L88.3739 72.3124C88.3579 72.4567 88.2737 72.5008 88.1213 72.4447C87.9369 72.3805 87.7244 72.3485 87.4838 72.3485C87.3876 72.3485 87.2553 72.3605 87.0869 72.3846C86.6619 72.4246 86.2971 72.585 85.9923 72.8657C85.6957 73.1463 85.5473 73.5232 85.5473 73.9963V78.9157C85.5473 78.9799 85.5233 79.032 85.4751 79.0721C85.4351 79.1122 85.3869 79.1323 85.3308 79.1323H83.2139C83.1497 79.1323 83.0976 79.1122 83.0575 79.0721C83.0174 79.032 82.9974 78.9799 82.9974 78.9157V70.0752C82.9974 70.0191 83.0174 69.9669 83.0575 69.9188C83.0976 69.8787 83.1497 69.8587 83.2139 69.8587H85.3308C85.3869 69.8587 85.4351 69.8787 85.4751 69.9188C85.5233 69.9669 85.5473 70.0191 85.5473 70.0752V70.7608C85.5473 70.7929 85.5553 70.8169 85.5714 70.8329C85.5954 70.849 85.6155 70.841 85.6315 70.8089C86.1206 70.0952 86.7822 69.7384 87.6161 69.7384ZM100.185 69.7143C101.124 69.7143 101.857 69.995 102.386 70.5563C102.916 71.1256 103.18 71.9235 103.18 72.9499V78.9157C103.18 78.9799 103.16 79.032 103.12 79.0721C103.08 79.1122 103.028 79.1323 102.964 79.1323H100.859C100.795 79.1323 100.743 79.1122 100.703 79.0721C100.662 79.032 100.642 78.9799 100.642 78.9157V73.5032C100.642 73.014 100.514 72.6251 100.258 72.3364C100.009 72.0478 99.6722 71.9034 99.2472 71.9034C98.8302 71.9034 98.4894 72.0478 98.2248 72.3364C97.9602 72.6251 97.8279 73.01 97.8279 73.4911V78.9157C97.8279 78.9799 97.8078 79.032 97.7677 79.0721C97.7196 79.1122 97.6675 79.1323 97.6114 79.1323H95.5185C95.4544 79.1323 95.4022 79.1122 95.3621 79.0721C95.3221 79.032 95.302 78.9799 95.302 78.9157V73.5032C95.302 73.022 95.1697 72.6331 94.9051 72.3364C94.6405 72.0478 94.2957 71.9034 93.8707 71.9034C93.4858 71.9034 93.165 72.0157 92.9084 72.2402C92.6518 72.4728 92.4995 72.7935 92.4514 73.2025V78.9157C92.4514 78.9799 92.4313 79.032 92.3912 79.0721C92.3431 79.1122 92.291 79.1323 92.2349 79.1323H90.1179C90.0618 79.1323 90.0137 79.1122 89.9736 79.0721C89.9255 79.032 89.9014 78.9799 89.9014 78.9157V70.0752C89.9014 70.0191 89.9255 69.9669 89.9736 69.9188C90.0137 69.8787 90.0618 69.8587 90.1179 69.8587H92.2349C92.291 69.8587 92.3431 69.8787 92.3912 69.9188C92.4313 69.9669 92.4514 70.0191 92.4514 70.0752V70.7848C92.4514 70.8169 92.4634 70.841 92.4875 70.857C92.5115 70.865 92.5356 70.849 92.5596 70.8089C93.0488 70.0792 93.8105 69.7143 94.8449 69.7143C95.4463 69.7143 95.9756 69.8426 96.4326 70.0992C96.8817 70.3478 97.2265 70.7087 97.467 71.1818C97.4991 71.2539 97.5392 71.2539 97.5873 71.1818C97.8519 70.6846 98.2128 70.3157 98.6698 70.0752C99.1189 69.8346 99.6241 69.7143 100.185 69.7143ZM113.176 73.5392C113.248 73.9963 113.272 74.5055 113.248 75.0668C113.24 75.2191 113.164 75.2953 113.019 75.2953H107.438C107.366 75.2953 107.342 75.3234 107.366 75.3795C107.406 75.6201 107.474 75.8606 107.571 76.1012C107.883 76.7748 108.521 77.1116 109.483 77.1116C110.253 77.1035 110.858 76.7908 111.299 76.1734C111.347 76.1012 111.403 76.0651 111.468 76.0651C111.5 76.0651 111.54 76.0892 111.588 76.1373L112.887 77.4123C112.951 77.4764 112.983 77.5325 112.983 77.5806C112.983 77.6047 112.959 77.6528 112.911 77.725C112.51 78.2221 111.997 78.603 111.371 78.8676C110.746 79.1403 110.06 79.2766 109.315 79.2766C108.28 79.2766 107.406 79.044 106.693 78.579C105.979 78.1059 105.466 77.4483 105.153 76.6064C104.896 76.005 104.768 75.2192 104.768 74.2489C104.768 73.5833 104.86 72.998 105.045 72.4928C105.317 71.6428 105.802 70.9653 106.5 70.4601C107.19 69.9549 108.008 69.7023 108.954 69.7023C110.157 69.7023 111.123 70.0511 111.853 70.7488C112.582 71.4464 113.023 72.3765 113.176 73.5392ZM108.978 71.9034C108.216 71.9034 107.715 72.2563 107.474 72.9619C107.426 73.1223 107.386 73.3147 107.354 73.5392C107.354 73.5954 107.382 73.6234 107.438 73.6234H110.566C110.638 73.6234 110.662 73.5954 110.638 73.5392C110.574 73.1944 110.541 73.026 110.541 73.0341C110.437 72.6732 110.249 72.3926 109.976 72.1921C109.704 71.9997 109.371 71.9034 108.978 71.9034ZM119.442 69.7384C119.875 69.7384 120.216 69.8226 120.465 69.991C120.561 70.0391 120.597 70.1273 120.573 70.2556L120.2 72.3124C120.184 72.4567 120.1 72.5008 119.947 72.4447C119.763 72.3805 119.55 72.3485 119.31 72.3485C119.214 72.3485 119.081 72.3605 118.913 72.3846C118.48 72.4246 118.115 72.585 117.818 72.8657C117.514 73.1463 117.361 73.5232 117.361 73.9963V78.9157C117.361 78.9799 117.341 79.032 117.301 79.0721C117.261 79.1122 117.209 79.1323 117.145 79.1323H115.04C114.976 79.1323 114.924 79.1122 114.884 79.0721C114.843 79.032 114.823 78.9799 114.823 78.9157V70.0752C114.823 70.0191 114.843 69.9669 114.884 69.9188C114.924 69.8787 114.976 69.8587 115.04 69.8587H117.145C117.209 69.8587 117.261 69.8787 117.301 69.9188C117.341 69.9669 117.361 70.0191 117.361 70.0752V70.7608C117.361 70.7929 117.373 70.8169 117.397 70.8329C117.421 70.849 117.442 70.841 117.458 70.8089C117.947 70.0952 118.608 69.7384 119.442 69.7384Z" fill="#252530"/>
<path d="M69.2974 48.6773C69.2974 48.6212 69.3174 48.5691 69.3575 48.521C69.3976 48.4809 69.4457 48.4608 69.5019 48.4608H71.6188C71.6749 48.4608 71.727 48.4809 71.7751 48.521C71.8152 48.5691 71.8353 48.6212 71.8353 48.6773V60.8737C71.8353 60.9378 71.8152 60.99 71.7751 61.0301C71.727 61.0702 71.6749 61.0902 71.6188 61.0902H69.5019C69.4457 61.0902 69.3976 61.0702 69.3575 61.0301C69.3174 60.99 69.2974 60.9378 69.2974 60.8737V55.8941C69.2974 55.838 69.2653 55.8099 69.2012 55.8099H65.2079C65.1517 55.8099 65.1237 55.838 65.1237 55.8941V60.8737C65.1237 60.9378 65.1036 60.99 65.0635 61.0301C65.0154 61.0702 64.9633 61.0902 64.9072 61.0902H62.7902C62.7341 61.0902 62.686 61.0702 62.6459 61.0301C62.5978 60.99 62.5737 60.9378 62.5737 60.8737V48.6773C62.5737 48.6212 62.5978 48.5691 62.6459 48.521C62.686 48.4809 62.7341 48.4608 62.7902 48.4608H64.9072C64.9633 48.4608 65.0154 48.4809 65.0635 48.521C65.1036 48.5691 65.1237 48.6212 65.1237 48.6773V53.5246C65.1237 53.5887 65.1517 53.6208 65.2079 53.6208H69.2012C69.2653 53.6208 69.2974 53.5887 69.2974 53.5246V48.6773ZM75.1189 50.7702C74.71 50.7702 74.3692 50.6339 74.0965 50.3612C73.8239 50.0966 73.6876 49.7598 73.6876 49.3509C73.6876 48.9259 73.8199 48.5811 74.0845 48.3165C74.3491 48.0519 74.6939 47.9196 75.1189 47.9196C75.5439 47.9196 75.8887 48.0519 76.1533 48.3165C76.4179 48.5811 76.5503 48.9259 76.5503 49.3509C76.5503 49.7598 76.4139 50.0966 76.1413 50.3612C75.8687 50.6339 75.5279 50.7702 75.1189 50.7702ZM74.0364 61.0902C73.9803 61.0902 73.9282 61.0702 73.88 61.0301C73.8399 60.99 73.8199 60.9378 73.8199 60.8737V52.0211C73.8199 51.9569 73.8399 51.9048 73.88 51.8647C73.9282 51.8246 73.9803 51.8046 74.0364 51.8046H76.1533C76.2095 51.8046 76.2576 51.8246 76.2977 51.8647C76.3458 51.9048 76.3698 51.9569 76.3698 52.0211V60.8737C76.3698 60.9378 76.3458 60.99 76.2977 61.0301C76.2576 61.0702 76.2095 61.0902 76.1533 61.0902H74.0364ZM84.0076 52.0331C84.0076 51.977 84.0317 51.9249 84.0798 51.8768C84.1199 51.8367 84.168 51.8166 84.2241 51.8166H86.341C86.3972 51.8166 86.4493 51.8367 86.4974 51.8768C86.5375 51.9249 86.5575 51.977 86.5575 52.0331V60.2603C86.5575 61.8319 86.1045 62.9545 85.1984 63.6281C84.2923 64.3097 83.1215 64.6505 81.6862 64.6505C81.2612 64.6505 80.7921 64.6184 80.2789 64.5543C80.1586 64.5382 80.0985 64.462 80.0985 64.3257L80.1707 62.4614C80.1707 62.301 80.2549 62.2329 80.4233 62.2569C80.8563 62.3291 81.2532 62.3652 81.614 62.3652C82.3838 62.3652 82.9772 62.2008 83.3942 61.872C83.8031 61.5272 84.0076 60.986 84.0076 60.2482C84.0076 60.2081 83.9956 60.1841 83.9715 60.1761C83.9475 60.1681 83.9234 60.1801 83.8994 60.2122C83.4423 60.7013 82.7767 60.9459 81.9027 60.9459C81.1169 60.9459 80.3992 60.7574 79.7497 60.3805C79.0922 60.0037 78.6231 59.3943 78.3424 58.5523C78.166 57.999 78.0778 57.2813 78.0778 56.3993C78.0778 55.4611 78.1861 54.6993 78.4026 54.114C78.6511 53.3763 79.0761 52.7869 79.6775 52.3459C80.2789 51.8968 80.9806 51.6723 81.7824 51.6723C82.7046 51.6723 83.4102 51.9489 83.8994 52.5022C83.9234 52.5263 83.9475 52.5343 83.9715 52.5263C83.9956 52.5183 84.0076 52.4982 84.0076 52.4661V52.0331ZM83.8633 57.8547C83.9595 57.5019 84.0076 57.0087 84.0076 56.3752C84.0076 56.0064 83.9956 55.7217 83.9715 55.5212C83.9475 55.3128 83.9074 55.1163 83.8512 54.9319C83.739 54.6111 83.5586 54.3505 83.31 54.1501C83.0614 53.9576 82.7487 53.8614 82.3718 53.8614C82.011 53.8614 81.7062 53.9576 81.4577 54.1501C81.2011 54.3505 81.0126 54.6111 80.8924 54.9319C80.724 55.2927 80.6398 55.7818 80.6398 56.3993C80.6398 57.0729 80.7119 57.554 80.8563 57.8426C80.9605 58.1714 81.149 58.432 81.4216 58.6245C81.6942 58.8249 82.015 58.9252 82.3838 58.9252C82.7687 58.9252 83.0895 58.8249 83.3461 58.6245C83.5946 58.432 83.767 58.1754 83.8633 57.8547ZM93.221 51.6723C94.1833 51.6723 94.9571 51.969 95.5424 52.5624C96.1278 53.1477 96.4205 53.9456 96.4205 54.9559V60.8737C96.4205 60.9378 96.4004 60.99 96.3603 61.0301C96.3203 61.0702 96.2721 61.0902 96.216 61.0902H94.0991C94.043 61.0902 93.9908 61.0702 93.9427 61.0301C93.9026 60.99 93.8826 60.9378 93.8826 60.8737V55.4731C93.8826 55 93.7463 54.6111 93.4736 54.3064C93.209 54.0097 92.8522 53.8614 92.4031 53.8614C91.9621 53.8614 91.6053 54.0097 91.3326 54.3064C91.06 54.6111 90.9237 55 90.9237 55.4731V60.8737C90.9237 60.9378 90.9037 60.99 90.8636 61.0301C90.8235 61.0702 90.7713 61.0902 90.7072 61.0902H88.6023C88.5381 61.0902 88.486 61.0702 88.4459 61.0301C88.4058 60.99 88.3858 60.9378 88.3858 60.8737V48.6773C88.3858 48.6212 88.4058 48.5691 88.4459 48.521C88.486 48.4809 88.5381 48.4608 88.6023 48.4608H90.7072C90.7713 48.4608 90.8235 48.4809 90.8636 48.521C90.9037 48.5691 90.9237 48.6212 90.9237 48.6773V52.6706C90.9237 52.7027 90.9357 52.7267 90.9598 52.7428C90.9838 52.7508 90.9999 52.7428 91.0079 52.7187C91.505 52.0211 92.2428 51.6723 93.221 51.6723Z" fill="#252530"/>
<path d="M61.0463 97.6552C60.9581 97.6552 60.9019 97.6151 60.8779 97.5349L58.6888 89.392L58.6768 89.3438C58.6768 89.2717 58.7209 89.2356 58.8091 89.2356H59.9878C60.076 89.2356 60.1321 89.2757 60.1562 89.3559L61.5274 94.8406C61.5354 94.8647 61.5474 94.8767 61.5635 94.8767C61.5795 94.8767 61.5915 94.8647 61.5996 94.8406L62.9106 89.3559C62.9347 89.2757 62.9868 89.2356 63.067 89.2356H64.2217C64.3099 89.2356 64.366 89.2757 64.3901 89.3559L65.7853 94.8526C65.7933 94.8767 65.8053 94.8887 65.8214 94.8887C65.8374 94.8887 65.8494 94.8767 65.8575 94.8526L67.2046 89.3559C67.2287 89.2757 67.2848 89.2356 67.373 89.2356H68.4916C68.6039 89.2356 68.648 89.2877 68.6239 89.392L66.5431 97.5349C66.519 97.6151 66.4629 97.6552 66.3747 97.6552H65.2561C65.1679 97.6552 65.1117 97.6151 65.0877 97.5349L63.6804 91.7975C63.6724 91.7735 63.6604 91.7575 63.6443 91.7494C63.6283 91.7494 63.6163 91.7655 63.6082 91.7975L62.2611 97.5349C62.237 97.6151 62.1849 97.6552 62.1047 97.6552H61.0463ZM69.959 97.6552C69.9189 97.6552 69.8828 97.6391 69.8508 97.607C69.8267 97.583 69.8147 97.5509 69.8147 97.5108V89.3799C69.8147 89.3398 69.8267 89.3078 69.8508 89.2837C69.8828 89.2516 69.9189 89.2356 69.959 89.2356H71.0656C71.1057 89.2356 71.1378 89.2516 71.1618 89.2837C71.1939 89.3078 71.2099 89.3398 71.2099 89.3799V97.5108C71.2099 97.5509 71.1939 97.583 71.1618 97.607C71.1378 97.6391 71.1057 97.6552 71.0656 97.6552H69.959ZM77.8614 89.3799C77.8614 89.3398 77.8734 89.3078 77.8975 89.2837C77.9296 89.2516 77.9656 89.2356 78.0057 89.2356H79.1123C79.1524 89.2356 79.1845 89.2516 79.2085 89.2837C79.2406 89.3078 79.2566 89.3398 79.2566 89.3799V97.5108C79.2566 97.5509 79.2406 97.583 79.2085 97.607C79.1845 97.6391 79.1524 97.6552 79.1123 97.6552H78.0418C77.9616 97.6552 77.9055 97.6231 77.8734 97.5589L74.4094 91.8817C74.3933 91.8577 74.3773 91.8457 74.3613 91.8457C74.3452 91.8537 74.3372 91.8737 74.3372 91.9058L74.3613 97.5108C74.3613 97.5509 74.3452 97.583 74.3131 97.607C74.2891 97.6391 74.257 97.6552 74.2169 97.6552H73.1103C73.0702 97.6552 73.0342 97.6391 73.0021 97.607C72.978 97.583 72.966 97.5509 72.966 97.5108V89.3799C72.966 89.3398 72.978 89.3078 73.0021 89.2837C73.0342 89.2516 73.0702 89.2356 73.1103 89.2356H74.1808C74.261 89.2356 74.3171 89.2677 74.3492 89.3318L77.8013 95.009C77.8173 95.0331 77.8333 95.0411 77.8494 95.0331C77.8654 95.0331 77.8734 95.017 77.8734 94.985L77.8614 89.3799ZM86.5456 89.2356C86.5857 89.2356 86.6178 89.2516 86.6418 89.2837C86.6739 89.3078 86.6899 89.3398 86.6899 89.3799V90.3061C86.6899 90.3462 86.6739 90.3783 86.6418 90.4023C86.6178 90.4344 86.5857 90.4504 86.5456 90.4504H84.3325C84.2924 90.4504 84.2723 90.4705 84.2723 90.5106V97.5108C84.2723 97.5509 84.2603 97.583 84.2362 97.607C84.2042 97.6391 84.1681 97.6552 84.128 97.6552H83.0214C82.9813 97.6552 82.9492 97.6391 82.9252 97.607C82.8931 97.583 82.8771 97.5509 82.8771 97.5108V90.5106C82.8771 90.4705 82.857 90.4504 82.8169 90.4504H80.688C80.6479 90.4504 80.6118 90.4344 80.5797 90.4023C80.5557 90.3783 80.5436 90.3462 80.5436 90.3061V89.3799C80.5436 89.3398 80.5557 89.3078 80.5797 89.2837C80.6118 89.2516 80.6479 89.2356 80.688 89.2356H86.5456ZM93.6782 90.2941C93.6782 90.3341 93.6622 90.3662 93.6301 90.3903C93.606 90.4224 93.574 90.4384 93.5339 90.4384H89.4323C89.3922 90.4384 89.3722 90.4584 89.3722 90.4985V92.7478C89.3722 92.7878 89.3922 92.8079 89.4323 92.8079H92.1867C92.2268 92.8079 92.2629 92.8199 92.295 92.844C92.319 92.8761 92.3311 92.9121 92.3311 92.9522V93.8664C92.3311 93.9064 92.319 93.9425 92.295 93.9746C92.2629 93.9987 92.2268 94.0107 92.1867 94.0107H89.4323C89.3922 94.0107 89.3722 94.0307 89.3722 94.0708V96.3922C89.3722 96.4323 89.3922 96.4524 89.4323 96.4524H93.5339C93.574 96.4524 93.606 96.4684 93.6301 96.5005C93.6622 96.5245 93.6782 96.5566 93.6782 96.5967V97.5108C93.6782 97.5509 93.6622 97.583 93.6301 97.607C93.606 97.6391 93.574 97.6552 93.5339 97.6552H88.1213C88.0812 97.6552 88.0451 97.6391 88.013 97.607C87.989 97.583 87.9769 97.5509 87.9769 97.5108V89.3799C87.9769 89.3398 87.989 89.3078 88.013 89.2837C88.0451 89.2516 88.0812 89.2356 88.1213 89.2356H93.5339C93.574 89.2356 93.606 89.2516 93.6301 89.2837C93.6622 89.3078 93.6782 89.3398 93.6782 89.3799V90.2941ZM99.8245 97.6552C99.7443 97.6552 99.6882 97.6191 99.6561 97.5469L98.0684 94.0829C98.0524 94.0508 98.0283 94.0347 97.9962 94.0347H96.5529C96.5128 94.0347 96.4927 94.0548 96.4927 94.0949V97.5108C96.4927 97.5509 96.4767 97.583 96.4446 97.607C96.4206 97.6391 96.3885 97.6552 96.3484 97.6552H95.2418C95.2017 97.6552 95.1657 97.6391 95.1336 97.607C95.1095 97.583 95.0975 97.5509 95.0975 97.5108V89.3799C95.0975 89.3398 95.1095 89.3078 95.1336 89.2837C95.1657 89.2516 95.2017 89.2356 95.2418 89.2356H98.5495C99.0387 89.2356 99.4717 89.3358 99.8486 89.5363C100.225 89.7448 100.518 90.0334 100.727 90.4023C100.935 90.7792 101.039 91.2082 101.039 91.6893C101.039 92.2426 100.895 92.7117 100.606 93.0966C100.326 93.4895 99.9328 93.7621 99.4276 93.9145C99.4115 93.9145 99.3995 93.9225 99.3915 93.9385C99.3835 93.9546 99.3835 93.9706 99.3915 93.9866L101.087 97.4868C101.103 97.5188 101.111 97.5429 101.111 97.5589C101.111 97.6231 101.067 97.6552 100.979 97.6552H99.8245ZM96.5529 90.4384C96.5128 90.4384 96.4927 90.4584 96.4927 90.4985V92.8921C96.4927 92.9322 96.5128 92.9522 96.5529 92.9522H98.3571C98.742 92.9522 99.0547 92.836 99.2953 92.6034C99.5278 92.3789 99.6441 92.0782 99.6441 91.7013C99.6441 91.3244 99.5278 91.0197 99.2953 90.7872C99.0547 90.5547 98.742 90.4384 98.3571 90.4384H96.5529Z" fill="white"/>
<path d="M66.1219 119.378C66.0979 119.402 66.0898 119.426 66.0979 119.45C66.1139 119.474 66.138 119.486 66.17 119.486H70.897C70.9532 119.486 71.0013 119.506 71.0414 119.546C71.0895 119.586 71.1135 119.634 71.1135 119.69V121.386C71.1135 121.443 71.0895 121.491 71.0414 121.531C71.0013 121.571 70.9532 121.591 70.897 121.591H63.0548C62.9906 121.591 62.9385 121.571 62.8984 121.531C62.8583 121.491 62.8383 121.443 62.8383 121.386V119.775C62.8383 119.67 62.8744 119.582 62.9465 119.51C63.5159 118.957 64.0972 118.351 64.6906 117.694C65.284 117.036 65.6568 116.627 65.8092 116.467C66.1299 116.082 66.4587 115.713 66.7955 115.36C67.854 114.19 68.3832 113.32 68.3832 112.75C68.3832 112.341 68.2389 112.005 67.9502 111.74C67.6615 111.483 67.2846 111.355 66.8195 111.355C66.3545 111.355 65.9776 111.483 65.6889 111.74C65.3922 112.005 65.2439 112.353 65.2439 112.786V113.219C65.2439 113.276 65.2238 113.324 65.1837 113.364C65.1436 113.404 65.0955 113.424 65.0394 113.424H62.9826C62.9265 113.424 62.8784 113.404 62.8383 113.364C62.7902 113.324 62.7661 113.276 62.7661 113.219V112.402C62.8062 111.776 63.0067 111.219 63.3675 110.73C63.7284 110.249 64.2055 109.88 64.7988 109.623C65.4002 109.366 66.0738 109.238 66.8195 109.238C67.6455 109.238 68.3631 109.395 68.9726 109.707C69.582 110.012 70.0511 110.425 70.3798 110.946C70.7166 111.475 70.885 112.057 70.885 112.69C70.885 113.179 70.7607 113.68 70.5121 114.194C70.2716 114.707 69.9067 115.26 69.4176 115.854C69.0568 116.303 68.6678 116.752 68.2509 117.201C67.8339 117.642 67.2125 118.279 66.3865 119.113L66.1219 119.378ZM76.7787 121.783C75.4957 121.783 74.4854 121.427 73.7477 120.713C73.0019 119.999 72.6291 119.025 72.6291 117.79V113.183C72.6291 111.973 73.0019 111.014 73.7477 110.309C74.4854 109.595 75.4957 109.238 76.7787 109.238C78.0537 109.238 79.0681 109.595 79.8218 110.309C80.5675 111.014 80.9404 111.973 80.9404 113.183V117.79C80.9404 119.025 80.5675 119.999 79.8218 120.713C79.0681 121.427 78.0537 121.783 76.7787 121.783ZM76.7787 119.678C77.2999 119.678 77.7129 119.518 78.0176 119.197C78.3303 118.877 78.4867 118.448 78.4867 117.91V113.111C78.4867 112.582 78.3303 112.157 78.0176 111.836C77.7129 111.515 77.2999 111.355 76.7787 111.355C76.2655 111.355 75.8566 111.515 75.5519 111.836C75.2391 112.157 75.0828 112.582 75.0828 113.111V117.91C75.0828 118.448 75.2391 118.877 75.5519 119.197C75.8566 119.518 76.2655 119.678 76.7787 119.678ZM85.8238 119.378C85.7997 119.402 85.7957 119.426 85.8117 119.45C85.8198 119.474 85.8438 119.486 85.8839 119.486H90.6109C90.667 119.486 90.7152 119.506 90.7553 119.546C90.7953 119.586 90.8154 119.634 90.8154 119.69V121.386C90.8154 121.443 90.7953 121.491 90.7553 121.531C90.7152 121.571 90.667 121.591 90.6109 121.591H82.7566C82.7005 121.591 82.6524 121.571 82.6123 121.531C82.5722 121.491 82.5522 121.443 82.5522 121.386V119.775C82.5522 119.67 82.5842 119.582 82.6484 119.51C83.2257 118.957 83.8071 118.351 84.3924 117.694C84.9858 117.036 85.3587 116.627 85.511 116.467C85.8398 116.082 86.1726 115.713 86.5094 115.36C87.5678 114.19 88.0971 113.32 88.0971 112.75C88.0971 112.341 87.9527 112.005 87.6641 111.74C87.3674 111.483 86.9865 111.355 86.5214 111.355C86.0563 111.355 85.6794 111.483 85.3908 111.74C85.1021 112.005 84.9578 112.353 84.9578 112.786V113.219C84.9578 113.276 84.9377 113.324 84.8976 113.364C84.8575 113.404 84.8054 113.424 84.7413 113.424H82.6845C82.6283 113.424 82.5802 113.404 82.5401 113.364C82.5 113.324 82.48 113.276 82.48 113.219V112.402C82.5121 111.776 82.7085 111.219 83.0694 110.73C83.4302 110.249 83.9113 109.88 84.5127 109.623C85.1141 109.366 85.7837 109.238 86.5214 109.238C87.3473 109.238 88.065 109.395 88.6744 109.707C89.2918 110.012 89.7649 110.425 90.0937 110.946C90.4225 111.475 90.5869 112.057 90.5869 112.69C90.5869 113.179 90.4666 113.68 90.226 114.194C89.9774 114.707 89.6086 115.26 89.1194 115.854C88.7586 116.303 88.3697 116.752 87.9527 117.201C87.5358 117.642 86.9143 118.279 86.0884 119.113L85.8238 119.378ZM94.0389 109.431C94.103 109.399 94.1912 109.382 94.3035 109.382H96.4204C96.4766 109.382 96.5247 109.403 96.5648 109.443C96.6049 109.483 96.6249 109.531 96.6249 109.587V121.386C96.6249 121.443 96.6049 121.491 96.5648 121.531C96.5247 121.571 96.4766 121.591 96.4204 121.591H94.3757C94.3195 121.591 94.2714 121.571 94.2313 121.531C94.1832 121.491 94.1592 121.443 94.1592 121.386V111.824C94.1592 111.8 94.1512 111.776 94.1351 111.752C94.1111 111.728 94.087 111.724 94.063 111.74L92.3309 112.209L92.2588 112.221C92.1545 112.221 92.1024 112.157 92.1024 112.029L92.0543 110.537C92.0543 110.417 92.1064 110.333 92.2106 110.285L94.0389 109.431Z" fill="#252530"/>
</svg>
