<svg xmlns="http://www.w3.org/2000/svg" width="87" height="42" fill="none" viewBox="0 0 87 42">
    <rect width="85" height="40" x="1" y="1" fill="#F5F5F6" stroke="#D6D8D9" rx="3"/>
    <path fill="#4285F4" d="M54.271 21.566c0-.768-.063-1.54-.196-2.297H43.36v4.354h6.136c-.255 1.404-1.073 2.646-2.27 3.435v2.825h3.66c2.15-1.969 3.385-4.877 3.385-8.317z"/>
    <path fill="#34A853" d="M43.36 32.612c3.064 0 5.648-1 7.53-2.729l-3.66-2.825c-1.02.69-2.334 1.08-3.866 1.08-2.964 0-5.476-1.99-6.378-4.665h-3.778v2.912c1.929 3.818 5.857 6.227 10.152 6.227z"/>
    <path fill="#FBBC04" d="M36.982 23.473c-.476-1.404-.476-2.924 0-4.329v-2.912h-3.774c-1.61 3.195-1.61 6.959 0 10.153l3.774-2.912z"/>
    <path fill="#EA4335" d="M43.36 14.475c1.62-.025 3.185.582 4.358 1.695l3.243-3.228c-2.054-1.92-4.78-2.974-7.601-2.941-4.295 0-8.223 2.41-10.152 6.231l3.774 2.912c.897-2.68 3.414-4.67 6.378-4.67z"/>
</svg>
