<svg xmlns="http://www.w3.org/2000/svg" width="72" height="72" viewBox="0 0 72 72">
    <path fill="#6B7179" fill-rule="nonzero" d="M54 46.512c0-2.063-.732-3.832-2.197-5.309-1.465-1.476-3.229-2.215-5.291-2.215-1.969 0-3.668.68-5.098 2.04l-8.473-4.22c.047-.374.07-.644.07-.808 0-.164-.023-.434-.07-.809l8.473-4.218c1.43 1.359 3.129 2.039 5.098 2.039 2.062 0 3.826-.739 5.29-2.215C53.269 29.32 54 27.55 54 25.488c0-2.062-.732-3.826-2.197-5.29C50.338 18.731 48.574 18 46.512 18c-2.063 0-3.832.732-5.309 2.197-1.476 1.465-2.215 3.229-2.215 5.291 0 .164.024.434.07.809l-8.472 4.219c-1.453-1.336-3.152-2.004-5.098-2.004-2.062 0-3.826.732-5.29 2.197C18.731 32.174 18 33.938 18 36c0 2.063.732 3.826 2.197 5.291 1.465 1.465 3.229 2.197 5.291 2.197 1.946 0 3.645-.668 5.098-2.004l8.473 4.22c-.047.374-.07.644-.07.808 0 2.062.738 3.826 2.214 5.29C42.68 53.269 44.45 54 46.512 54c2.062 0 3.826-.732 5.29-2.197C53.269 50.338 54 48.574 54 46.512zm9-27.387v33.75c0 2.79-.99 5.174-2.97 7.154C58.048 62.01 55.663 63 52.874 63h-33.75c-2.79 0-5.174-.99-7.154-2.97C9.99 58.048 9 55.663 9 52.874v-33.75c0-2.79.99-5.174 2.97-7.154C13.952 9.99 16.337 9 19.126 9h33.75c2.79 0 5.174.99 7.154 2.97C62.01 13.952 63 16.337 63 19.126z"/>
</svg>
