<svg xmlns="http://www.w3.org/2000/svg" width="48" height="48" fill="none" viewBox="0 0 48 48">
    <path fill="#6B7179" d="M41.799 6.535c-.296-.07-.607-.032-.877.107L39 7.602l-1.938-.97c-.174-.086-.365-.131-.559-.131-.194 0-.385.045-.559.132l-1.962.97-1.935-.97c-.175-.088-.367-.133-.562-.133-.194 0-.386.045-.56.133L29 7.599l-1.91-.964c-.174-.088-.366-.134-.56-.135-.195-.001-.387.044-.562.13l-1.968.973-1.938-.971c-.174-.087-.365-.132-.56-.132-.194 0-.386.045-.56.132l-1.942.97-1.941-.97c-.25-.126-.535-.163-.81-.108-.274.056-.521.202-.703.416-.195.232-.3.528-.296.832V26.5l.004.004H30.25c.663 0 1.298.263 1.767.732.47.469.733 1.105.733 1.768v8.12c0 2.417 2.583 4.376 5 4.376h.937c1.078 0 2.11-.428 2.873-1.19.762-.762 1.19-1.795 1.19-2.873V7.75c0-.28-.094-.552-.266-.772-.173-.22-.414-.376-.686-.443zM36.501 22.75H26.54c-.675 0-1.258-.519-1.288-1.194-.007-.169.02-.337.079-.495.059-.158.15-.303.266-.425.117-.122.257-.22.412-.285.156-.067.323-.101.492-.101h9.96c.675 0 1.258.518 1.288 1.194.008.168-.019.337-.078.495-.06.158-.15.302-.267.424-.117.122-.257.22-.412.286-.155.066-.322.1-.491.1zm0-6.25H21.54c-.675 0-1.258-.519-1.288-1.194-.007-.169.02-.337.079-.495.059-.158.15-.303.266-.425.117-.122.257-.22.412-.285.156-.067.323-.101.492-.101h14.96c.675 0 1.258.518 1.288 1.194.008.168-.019.337-.078.495-.06.158-.15.302-.267.424-.117.122-.257.22-.412.286-.155.066-.322.1-.491.1z"/>
    <path fill="#6B7179" d="M30.25 37.125V30.25c0-.331-.132-.65-.366-.884C29.649 29.132 29.33 29 29 29H7.75c-.663.002-1.298.267-1.767.736-.468.47-.732 1.105-.733 1.768 0 3.95.452 5.591 1.13 6.841 1.15 2.123 3.234 3.155 6.37 3.155h19.194c.061 0 .122-.018.173-.052.051-.034.092-.083.115-.14.024-.057.03-.12.019-.18-.012-.06-.041-.116-.085-.16-.739-.741-1.916-1.734-1.916-3.843z"/>
</svg>
