<svg xmlns="http://www.w3.org/2000/svg" width="200" height="120" fill="none" viewBox="0 0 200 120">
    <g fill="#fff" clip-path="url(#prefix__clip0)">
        <path d="M136.718 66.43c-.474 1.608-.891 3.034-1.332 4.534-.535.09-1.063.193-1.595.267-3.263.455-6.525.567-9.776-.09a8.204 8.204 0 01-1.67-.527c-2.634-1.159-3.795-3.32-3.819-6.12-.033-3.588 2.16-7.902 6.167-9.397 1.123-.42 2.317-.736 3.504-.879 2.179-.261 4.37-.192 6.495.45 2.216.67 3.757 2.055 4.266 4.424.246 1.147.078 2.738-.417 4.195-.369.016-.786.047-1.201.047-3.434.01-6.87.01-10.304.02-.422 0-.845.035-1.227.052-.509 1.438-.173 2.54.969 3.25.849.525 1.789.756 2.782.804 1.85.088 3.652-.221 5.446-.626.497-.117.99-.236 1.712-.405zm-4.503-5.52c.476-1.387.014-2.532-1.199-2.98-2.104-.776-4.412.63-4.803 2.926.842.238 4.838.276 6.002.055zM92 59.23c2.414 4.109 5.114 7.835 7.617 11.822H90.49l-6.474-11.71c3.141-3.43 6.296-6.876 9.535-10.416h8.639L92 59.23zM168.514 58.985c-2.2-.517-4.334-1.122-6.316-.324a1.04 1.04 0 00-.655 1.016c.026.36.23.6.505.805.532.4 1.093.762 1.63 1.155.727.533 1.477 1.038 2.155 1.63 2.454 2.143 1.572 5.01-.262 6.426-1.173.907-2.541 1.379-3.976 1.63-3.009.534-5.986.184-8.946-.413-.11-.022-.211-.077-.371-.134v-4.554c.732.226 1.384.455 2.053.629 1.477.383 2.958.747 4.499.354.645-.164 1.165-.443 1.341-1.147-.066-.643-.567-.931-.994-1.257-.812-.617-1.649-1.198-2.463-1.812a11.401 11.401 0 01-1.077-.914c-1.534-1.495-1.731-3.471-.537-5.266.959-1.443 2.39-2.095 4.006-2.429 2.013-.412 4.042-.321 6.066-.174 1.159.084 2.31.284 3.579.446a1086.12 1086.12 0 01-.237 4.333zM186.8 54.661v4.33c-.518-.118-.924-.197-1.323-.306a10.293 10.293 0 00-3.825-.329c-.62.064-1.29.114-1.689.602-.254.308-.315.75-.115 1.096.164.283.438.47.708.661.833.588 1.677 1.157 2.503 1.753.38.273.739.583 1.093.89 1.989 1.719 1.672 4.683-.211 6.216-1.159.943-2.512 1.438-3.938 1.714-3.16.612-6.282.212-9.502-.438-.056-1.507-.009-2.988-.024-4.597.385.102.664.18.948.25 1.135.274 2.261.624 3.413.785.753.108 1.55-.009 2.312-.123l.019-.003c1.011-.154 1.363-1.469.556-2.107a23.42 23.42 0 00-.241-.183c-.819-.607-1.647-1.2-2.466-1.807-.314-.233-.609-.493-.91-.745-2.601-2.19-1.574-5.426.519-6.856 1.236-.846 2.648-1.172 4.088-1.286 2.69-.219 5.367.005 8.085.483zM81.328 71.057h-7.871c1.562-7.368 2.725-14.722 3.767-22.136h7.857l-3.753 22.136zM102.049 71.06c1.051-5.483 2.083-10.895 2.535-16.449h6.713c0 .296.007.557-.002.817-.007.224-.033.447-.07.943 1.369-1.16 2.636-2.081 4.245-2.22.687-.059 1.384 0 2.238.008-.364 1.833-.118 3.571-.502 5.311-.552-.069-1.007-.154-1.466-.178-2.54-.126-4.595 1.307-5.292 3.783-.331 1.173-.532 2.388-.72 3.597-.223 1.436-.368 2.885-.553 4.388h-7.126zM148.15 71.062h-7.644c1.288-5.452 1.987-10.927 2.742-16.448h7.276c-.464 2.802-.957 5.506-1.349 8.225-.389 2.7-.678 5.409-1.025 8.223zM143.612 52.285l.488-3.816 7.099-.069-.541 3.885h-7.046zM70.907 59.868l1.002-10.823H36.325L69.852 70.66s.722-7.18 1.055-10.792z"/>
        <path d="M13.2 70.66h56.652L50.313 58.063 13.2 70.66z"/>
    </g>
    <defs>
        <clipPath id="prefix__clip0">
            <path fill="#fff" d="M13.2 48.4H186.79999999999998V71.6H13.2z"/>
        </clipPath>
    </defs>
</svg>
