<svg xmlns="http://www.w3.org/2000/svg" width="85" height="40" fill="none" viewBox="0 0 85 40">
    <rect width="85" height="40" fill="#0A66C2" rx="3"/>
    <path fill="#fff" fill-rule="evenodd" d="M49.882 27.881h-3.33v-5.779c0-1.705-.725-2.23-1.66-2.23-.989 0-1.958.743-1.958 2.273v5.736h-3.33v-10.58h3.203v1.466h.042c.323-.652 1.448-1.764 3.166-1.764 1.858 0 3.867 1.102 3.867 4.334v6.544zM35.938 15.826c-1.06 0-1.92-.807-1.92-1.911 0-1.105.86-1.913 1.92-1.913s1.92.808 1.92 1.913c0 1.104-.86 1.912-1.92 1.912zm-1.665 12.047h3.33v-10.58h-3.33v10.58zM51.519 9H32.635C31.732 9 31 9.732 31 10.635v18.883c0 .904.732 1.636 1.635 1.636H51.52c.903 0 1.636-.732 1.636-1.636V10.636c0-.903-.733-1.635-1.636-1.635z" clip-rule="evenodd"/>
</svg>
