<svg xmlns="http://www.w3.org/2000/svg" width="200" height="120" fill="none" viewBox="0 0 200 120">
    <g fill="#fff" clip-path="url(#prefix__clip0)">
        <path d="M48.667 45.86c.02-2.524 2.089-4.559 4.628-4.543 2.555 0 4.62 2.041 4.62 4.544-.019 2.524-2.085 4.556-4.62 4.543-2.539.016-4.611-2.019-4.628-4.543zm11.991-5.945c-3.53-4.144-9.743-4.702-13.96-1.255a7.855 7.855 0 00-2.214 2.657l-6.875 14.73a2.385 2.385 0 00.392 2.525c.59.693 1.574 1.044 2.477.815l15.964-4.085a7.971 7.971 0 003.047-1.683 9.593 9.593 0 001.16-13.704h.01z"/>
        <path d="M35.297 61.248c2.247 2.747 7.649.867 7.649.867-.596 3.408-3.55 5.907-7.024 5.946-3.95 0-7.156-3.295-7.156-7.394 0-4.027 3.099-7.297 6.971-7.4 0 0-3.073 4.763-.44 7.98z"/>
        <path d="M35.68 71.785c5.931 0 10.747-4.724 11.074-10.656l3.455-.913v.274c0 8.177-6.49 14.8-14.523 14.8-8.015 0-14.53-6.623-14.53-14.8s6.49-14.794 14.53-14.794c1.159 0 2.292.13 3.374.41l-1.467 3.243a11.707 11.707 0 00-1.907-.157c-6.133 0-11.1 5.062-11.1 11.295 0 6.24 4.967 11.295 11.1 11.295l-.007.003z"/>
        <path d="M57.475 60.49c0 12.537-9.915 22.71-22.149 22.71C23.093 83.2 13.2 73.024 13.2 60.49s9.915-22.71 22.123-22.71c2.293 0 4.508.358 6.567 1.032l-1.6 3.576a17.6 17.6 0 00-4.967-.693c-10.132-.007-18.334 8.412-18.334 18.82 0 10.41 8.212 18.822 18.337 18.822 10.12 0 18.338-8.419 18.338-18.821 0-.439-.026-.848-.052-1.287l3.737-1.006c.097.745.126 1.496.126 2.267zM86.414 55.118c0 .987-.171 1.906-.511 2.754a6.594 6.594 0 01-3.682 3.692c-.878.351-1.849.529-2.918.529-1.062 0-2.03-.178-2.91-.536a6.618 6.618 0 01-3.702-3.692 7.302 7.302 0 01-.511-2.747c0-.987.171-1.906.511-2.754a6.567 6.567 0 013.701-3.679c.878-.358 1.85-.535 2.911-.535 1.069 0 2.037.184 2.912.542a6.603 6.603 0 013.681 3.685c.347.848.518 1.764.518 2.741zm-3.25 0c0-.67-.091-1.287-.263-1.828a3.812 3.812 0 00-.761-1.37 3.265 3.265 0 00-1.205-.861 4.152 4.152 0 00-1.632-.3 4.3 4.3 0 00-1.638.3c-.48.203-.884.49-1.211.86a3.877 3.877 0 00-.755 1.37c-.178.542-.262 1.155-.262 1.83 0 .676.084 1.292.262 1.827.172.542.428 1 .755 1.37.33.378.745.675 1.21.862.48.196 1.03.293 1.64.293.608 0 1.152-.097 1.631-.293a3.254 3.254 0 001.205-.855c.327-.377.583-.835.754-1.37.179-.542.263-1.155.263-1.835h.006zm6.446-6.82c.13 0 .25 0 .347.02.09.013.178.032.256.064a.984.984 0 01.217.152c.064.064.145.145.23.254l6.508 8.197a16.957 16.957 0 01-.071-1.46v-7.227h2.798v13.646h-1.652c-.249 0-.46-.032-.621-.11-.172-.07-.328-.209-.493-.409l-6.453-8.132c.032.445.055.89.064 1.338v7.316h-2.804V48.298h1.674zm26.116 0v2.512h-3.853v11.134h-3.18v-11.13h-3.854v-2.516h10.887zm13.276 13.646h-3.199v-5.768h-5.569v5.768h-3.193V48.298h3.199v5.704h5.563v-5.704h3.199v13.646zm11.075-13.646v2.435h-5.622v3.186h4.307v2.344h-4.307v3.25h5.622v2.434h-8.821V48.298h8.821zM152.116 55.889c.263.506.496 1.025.696 1.56.205-.541.438-1.07.703-1.586l3.501-7.036c.064-.116.129-.216.197-.28a.647.647 0 01.217-.152.87.87 0 01.275-.058c.12-.006.24-.006.36-.006h2.412v13.926h-2.785v-8.013c0-.39.02-.81.052-1.26l-3.604 7.158c-.116.222-.262.39-.46.51-.191.109-.404.17-.647.17h-.434c-.243 0-.46-.058-.648-.17a1.237 1.237 0 01-.46-.51l-3.617-7.165c.046.42.072.842.072 1.267v8.013h-2.785V48.334h2.412l.36.006a.723.723 0 01.275.065.521.521 0 01.223.145c.065.064.13.164.198.28l3.487 7.059zM175.398 62.257h-2.451c-.275 0-.498-.064-.673-.197a1.07 1.07 0 01-.373-.503l-.806-2.428h-5.178l-.806 2.428a1.083 1.083 0 01-1.03.7h-2.471l5.275-13.926h3.239l5.274 13.926zm-8.752-5.323h3.72l-1.253-3.812-.288-.854a23.574 23.574 0 01-.321-1.07 19.592 19.592 0 01-.608 1.944l-1.25 3.791zM179.666 57.598v4.66h-3.157V48.333h4.809c.955 0 1.781.116 2.471.345.628.2 1.211.529 1.703.967.437.397.774.887.984 1.435a5.39 5.39 0 01-.006 3.708 3.818 3.818 0 01-.998 1.5 4.732 4.732 0 01-1.709.967c-.687.235-1.506.345-2.445.345h-1.652v-.003zm0-2.435h1.652c.819 0 1.415-.196 1.774-.6.36-.403.544-.967.544-1.683a2.4 2.4 0 00-.145-.867 1.775 1.775 0 00-1.147-1.11 3.18 3.18 0 00-1.029-.157h-1.652l.003 4.417zM73.293 74.462h-.544v-7.44h.544v7.44zm2.675-7.44c.052 0 .09 0 .117.02a.306.306 0 01.09.078l4.822 6.445a3.237 3.237 0 01-.013-.306v-6.24h.473v7.44h-.262a.243.243 0 01-.198-.104l-4.844-6.462.02.3v6.265h-.474V67.02l.27.003zm12.574 0v.459h-2.623v6.98h-.538v-6.98h-2.635v-.458h5.796zm5.754 0v.446h-3.925v3.008h3.27v.439h-3.27v3.098h3.931v.452h-4.468v-7.439h4.462v-.003zm2.458 4.07v3.366h-.538V67.02h1.901c.865 0 1.506.164 1.933.496.421.326.635.816.635 1.46 0 .281-.052.543-.152.778-.097.232-.24.438-.421.613a2.18 2.18 0 01-.667.438 2.878 2.878 0 01-.878.23.798.798 0 01.224.209l2.567 3.218h-.472a.33.33 0 01-.146-.033.372.372 0 01-.117-.103l-2.386-3.021a.54.54 0 00-.198-.165.896.896 0 00-.314-.045l-.971-.003zm0-.397h1.298c.327 0 .622-.038.884-.116.263-.077.486-.196.667-.338.178-.152.315-.326.412-.529.09-.21.139-.445.139-.706 0-.522-.172-.913-.525-1.174-.34-.261-.851-.384-1.505-.384h-1.37v3.248zm6.22-3.672c.046 0 .084 0 .11.02a.2.2 0 01.091.076l4.831 6.446a2.424 2.424 0 01-.019-.306v-6.24h.479v7.44h-.262a.244.244 0 01-.198-.104l-4.85-6.462.019.3v6.265h-.466V67.02l.265.003zm12.169 0v.445h-3.924v3.008h3.264v.439h-3.264v3.098h3.924v.452h-4.468v-7.439h4.468v-.003zm6.625 0v.458h-2.622v6.98h-.532v-6.98h-2.635v-.458h5.789zm6.907 5.272c.059.097.098.203.14.313.045-.11.09-.216.145-.32l2.931-5.168a.206.206 0 01.084-.084l.117-.013h.372v7.439h-.479v-6.343l.019-.287-2.937 5.201c-.052.09-.116.13-.21.13h-.084a.233.233 0 01-.211-.13l-3.015-5.207.013.293v6.343h-.466v-7.44h.366c.052 0 .091 0 .116.014a.153.153 0 01.085.084l3.014 5.175zm11.612 2.167h-.421a.186.186 0 01-.116-.039.26.26 0 01-.078-.103l-.877-2.16h-3.663l-.871 2.16a.237.237 0 01-.071.097.194.194 0 01-.13.045h-.404l3.047-7.44h.537l3.047 7.44zm-4.993-2.702h3.342L137.114 68a3.093 3.093 0 01-.152-.445 5.623 5.623 0 01-.146.451l-1.522 3.754zm6.868-.668v3.366h-.537V67.02h1.901c.858 0 1.505.164 1.926.496.428.326.641.816.641 1.46 0 .281-.051.543-.152.778a1.767 1.767 0 01-.427.613 2.149 2.149 0 01-.661.438 2.868 2.868 0 01-.884.23.743.743 0 01.23.209l2.568 3.218h-.473c-.048 0-.1-.01-.146-.033a.358.358 0 01-.116-.103l-2.387-3.021a.53.53 0 00-.197-.165.9.9 0 00-.314-.045h-.972v-.003zm0-.397h1.299c.327 0 .621-.038.884-.116.262-.077.485-.196.66-.338.185-.152.327-.326.421-.529.091-.21.14-.445.14-.706 0-.522-.172-.913-.525-1.174-.34-.261-.852-.384-1.506-.384h-1.376l.003 3.248zm6.651-.241h.441l.178-.007a.543.543 0 00.243-.09l.11-.097 3.015-3.086a.479.479 0 01.152-.116.415.415 0 01.178-.032h.44l-3.257 3.334c-.065.071-.13.13-.178.165a.832.832 0 01-.172.096c.071.02.139.055.197.097.059.045.117.097.179.171l3.432 3.576h-.44a.395.395 0 01-.198-.039l-.116-.103-3.151-3.218c-.036-.032-.075-.068-.11-.097a.45.45 0 00-.25-.116l-.21-.013h-.479v3.59h-.538v-7.453h.538l-.004 3.438zm10.722-3.431v.445h-3.918v3.008h3.264v.439h-3.264v3.098h3.918v.452h-4.462v-7.439h4.462v-.003zm6.632 0v.458h-2.623v6.98h-.538v-6.98h-2.636v-.458h5.797zm2.03 7.439h-.544v-7.44h.537l.007 7.44zm2.675-7.44c.045 0 .084 0 .116.02a.29.29 0 01.084.078l4.832 6.445a2.425 2.425 0 01-.02-.306v-6.24h.48v7.44h-.263a.242.242 0 01-.197-.104l-4.851-6.462.019.3v6.265h-.466V67.02l.266.003zm10.902 7.085c.263 0 .493-.013.703-.039a3.787 3.787 0 001.6-.567v-2.003h-1.435a.133.133 0 01-.097-.032.108.108 0 01-.039-.084v-.293h2.063v2.644c-.379.258-.79.458-1.224.6a4.978 4.978 0 01-1.6.216 3.828 3.828 0 01-1.473-.274 3.27 3.27 0 01-1.888-1.97 4.447 4.447 0 01-.262-1.568c0-.574.09-1.096.262-1.567a3.289 3.289 0 011.927-1.963 4.964 4.964 0 012.338-.216c.44.074.868.228 1.253.457.184.11.353.236.518.378l-.146.235c-.032.052-.071.077-.129.077a.194.194 0 01-.084-.025 1.142 1.142 0 01-.23-.145 3.39 3.39 0 00-1.979-.568 3.58 3.58 0 00-1.311.229c-.777.3-1.38.929-1.639 1.715-.155.449-.23.916-.223 1.39 0 .529.071 1 .223 1.416.152.416.366.77.635 1.057.275.294.596.516.984.665.376.158.797.235 1.253.235z"/>
    </g>
    <defs>
        <clipPath id="prefix__clip0">
            <path fill="#fff" d="M13.2 36.4H186.79999999999998V83.19999999999999H13.2z"/>
        </clipPath>
    </defs>
</svg>
