<svg xmlns="http://www.w3.org/2000/svg" width="200" height="120" fill="none" viewBox="0 0 200 120">
    <g clip-path="url(#prefix__clip0)">
        <path fill="#fff" fill-rule="evenodd" d="M165.184 43.062c-4.008 0-6.259 2.02-7.362 4.387h-.101v-3.795h-5.709v1.37c1.617 2.878 2.533 6.205 2.533 9.78 0 3.576-.916 6.903-2.533 9.78v2.726h6.01V54.397c0-3.155 1.55-6.013 5.506-6.013 4.209 0 4.409 4.335 4.409 6.947V67.31h6.011V52.376c0-4.83-2.303-9.314-8.764-9.314zm-139.132.592h5.703v3.698h.1c1.052-2.217 3.352-4.29 7.354-4.29 3.7 0 6.253 1.43 7.505 4.387 1.75-3.006 4.302-4.387 7.906-4.387 6.405 0 8.657 4.484 8.657 10.152v14.093h-6.004V53.906c0-2.955-.903-5.52-4.452-5.52-3.752 0-5.153 3.056-5.153 6.111V67.31h-6.004V53.217c0-2.91-1.2-4.83-4.105-4.83-3.953 0-5.503 2.858-5.503 6.013v12.91h-6.004V43.654zm56.1 20.465h-.148c-1.695 2.67-4.487 3.857-7.677 3.857-4.438 0-8.724-2.422-8.724-7.12 0-7.71 9.074-8.253 15.055-8.253h1.495v-.644c0-2.916-2.294-4.448-5.484-4.448-2.49 0-4.784.99-6.382 2.47l-3.141-3.114c2.643-2.67 6.38-3.805 10.17-3.805 10.22 0 10.22 7.317 10.22 10.676v13.64h-5.383v-3.26zm-.349-7.365h-1.245c-3.29 0-8.974.249-8.974 3.66 0 2.176 2.242 3.113 4.19 3.113 4.088 0 6.033-2.124 6.033-5.438v-1.335h-.004zm31.418-1.82c0-2.486.437-4.856 1.243-7.042-2.032-2.958-5.377-4.827-9.741-4.827-3.384 0-6.567 1.297-8.336 4.184h-.1V43.66h-5.759v35.276h6.062v-14.4h.152c1.262 1.545 3.688 3.637 8.233 3.637 4.309 0 7.797-2.124 9.812-5.438a20.126 20.126 0 01-1.566-7.801zm-9.708 7.86c-4.445 0-7.123-3.437-7.123-7.175 0-3.737 2.678-7.174 7.123-7.174s7.124 3.44 7.124 7.174c-.004 3.738-2.679 7.174-7.124 7.174z" clip-rule="evenodd"/>
        <mask id="prefix__a" width="40" height="48" x="113" y="36" maskUnits="userSpaceOnUse">
            <path fill="#fff" fill-rule="evenodd" d="M113.474 83.478h38.529V36.522h-38.529v46.956z" clip-rule="evenodd"/>
        </mask>
        <g mask="url(#prefix__a)">
            <path fill="#fff" fill-rule="evenodd" d="M144.811 54.691c0 6.069-4.946 10.986-11.044 10.986-6.098 0-11.041-4.917-11.041-10.986 0-6.068 4.946-10.985 11.041-10.985 6.101 0 11.044 4.917 11.044 10.985zm-31.337 28.787l13.079-12.117c8.382 3.592 18.323.45 23.001-7.607 5.037-8.684 2.047-19.786-6.677-24.798-8.728-5.01-19.889-2.037-24.926 6.647-4.121 7.103-2.869 15.823 2.495 21.503l-6.972 16.372z" clip-rule="evenodd"/>
        </g>
    </g>
    <defs>
        <clipPath id="prefix__clip0">
            <path fill="#fff" d="M26.052 36.522H173.94799999999998V83.47800000000001H26.052z"/>
        </clipPath>
    </defs>
</svg>
