<svg xmlns="http://www.w3.org/2000/svg" width="72" height="72" viewBox="0 0 72 72">
    <path fill="#6B7179" fill-rule="nonzero" d="M49.9 41.757c.7-1.734 1.1-3.644 1.1-5.629 0-8.317-6.725-15.077-15-15.077-1.975 0-3.875.402-5.6 1.106l4.05 4.07c.5-.075 1.025-.15 1.55-.15 5.525 0 10 4.498 10 10.051 0 .528-.05 1.056-.125 1.583l4.025 4.046zM36 16.026c11.05 0 20 8.996 20 20.102 0 3.393-.875 6.584-2.375 9.398L57.3 49.22c2.35-3.82 3.7-8.292 3.7-13.092C61 22.258 49.8 11 36 11c-4.775 0-9.225 1.382-13.025 3.694l3.65 3.669c2.8-1.483 6-2.337 9.375-2.337zm-21.825-3.77L11 15.448l5.25 5.277C12.975 24.996 11 30.324 11 36.128c0 9.298 5.025 17.389 12.475 21.736l2.5-4.347C20.025 50.024 16 43.567 16 36.128a19.93 19.93 0 0 1 3.825-11.785l3.575 3.619a15.113 15.113 0 0 0-2.4 8.166c0 5.579 3.025 10.428 7.5 13.042l2.5-4.373c-2.975-1.759-5-4.95-5-8.669 0-1.633.425-3.14 1.1-4.498l3.95 3.97-.05.528c0 2.764 2.25 5.026 5 5.026l.525-.05.025.025L55.325 60l3.175-3.191-41.825-42.04-2.5-2.513z"/>
</svg>
