<svg xmlns="http://www.w3.org/2000/svg" width="200" height="120" fill="none" viewBox="0 0 200 120">
    <g clip-path="url(#prefix__clip0)">
        <path fill="#fff" d="M74.891 52.252a5.003 5.003 0 00-1.987-1.554c-.782-.434-1.649-.603-2.6-.603H61.91v19.82h4.504V63.51h3.985c.951 0 1.818-.169 2.6-.517a5.704 5.704 0 001.988-1.47c.602-.687.95-1.385 1.3-2.167.253-.782.433-1.649.433-2.516 0-.782-.169-1.649-.518-2.42-.275-.783-.793-1.48-1.31-2.167zm-3.298 6.575c-.349.433-.867.697-1.385.697h-3.72V54.07h3.551c.265 0 .518 0 .783.169.253.18.518.264.687.518.264.264.433.518.518.867.084.348.169.782.169 1.215.01.867-.17 1.554-.603 1.988zM91.593 61.512c.434-.434.782-.867 1.036-1.385.264-.434.434-.952.603-1.554.169-.518.264-1.131.264-1.734 0-.782-.17-1.649-.518-2.42-.349-.783-.782-1.554-1.385-2.167-.602-.688-1.3-1.216-2.072-1.554-.782-.434-1.649-.603-2.6-.603h-8.922v19.82h4.672V63.51h2.95l3.985 6.406h5.106l-4.504-7.357c.529-.264.952-.613 1.385-1.046zm-3.456-2.77c-.35.518-.867.782-1.385.782h-4.154l-.085-5.37h4.07c.518 0 1.036.17 1.469.688.433.433.698 1.13.698 1.902-.01.878-.18 1.48-.613 1.998zM100.43 50.085h-4.587V69.82h4.587V50.085zM115.23 61.691l-9.176-11.606h-3.552V69.82h4.588V58.573l9.091 11.247h3.636V50.085h-4.587V61.69zM120.948 54.07h6.057v15.75h4.588V54.07h5.973v-3.985h-16.618v3.985zM138.697 69.83h4.588v-7.8h7.272v-3.721h-7.272v-4.24h8.826v-3.984h-13.414V69.83zM165.885 60.127c0 .782 0 1.47-.169 2.167a4.173 4.173 0 01-.698 1.818 4.757 4.757 0 01-1.3 1.3c-.518.35-1.216.518-1.987.518-.783 0-1.385-.169-1.903-.433a4.759 4.759 0 01-1.3-1.3 8.425 8.425 0 01-.687-1.819 8.84 8.84 0 01-.265-2.167V50.085h-4.587V60.21c0 1.3.169 2.516.518 3.721.348 1.216.866 2.252 1.553 3.119.698.867 1.554 1.638 2.685 2.167 1.121.518 2.516.782 4.07.782 1.47 0 2.854-.254 3.901-.782 1.036-.518 1.987-1.216 2.685-2.072.687-.867 1.215-1.903 1.554-3.118.349-1.132.518-2.421.518-3.806V50.085h-4.588v10.042zM177.481 65.846V50.085h-4.588V69.83h14.113v-3.985h-9.525zM24.807 50L13.2 69.915h9.144l7.03-12.071L24.806 50zM34.151 69.915h2.252l-1.131-1.934-1.12 1.934zM30.04 58.996l-6.364 10.92h9.143l1.797-3.077-4.577-7.843zM35.282 65.698l4.567-7.854L35.283 50l-4.578 7.844 4.25 7.293.328.56zM35.948 66.84l1.787 3.075h9.144l-6.364-10.92-4.567 7.844zM41.181 57.844l7.03 12.071h9.143L45.758 50l-4.577 7.844z"/>
    </g>
    <defs>
        <clipPath id="prefix__clip0">
            <path fill="#fff" d="M13.2 50H187.005V70H13.2z"/>
        </clipPath>
    </defs>
</svg>
