<svg xmlns="http://www.w3.org/2000/svg" width="72" height="72" viewBox="0 0 72 72">
    <path fill="#6B7179" fill-rule="nonzero" d="M61.786 36c-3.337-5.19-7.518-9.071-12.544-11.644a14.437 14.437 0 0 1 2.008 7.422c0 4.068-1.443 7.548-4.33 10.44-2.886 2.892-6.36 4.338-10.42 4.338s-7.534-1.446-10.42-4.338c-2.887-2.892-4.33-6.372-4.33-10.44 0-2.661.67-5.135 2.008-7.422C18.732 26.929 14.551 30.81 11.214 36c2.92 4.508 6.58 8.098 10.98 10.77 4.401 2.672 9.17 4.008 14.306 4.008 5.136 0 9.905-1.336 14.306-4.008 4.4-2.672 8.06-6.262 10.98-10.77zM38.08 23.333c0-.44-.153-.813-.46-1.121a1.523 1.523 0 0 0-1.12-.462c-2.744 0-5.098.984-7.062 2.952-1.965 1.968-2.947 4.327-2.947 7.076 0 .44.154.813.461 1.121.307.308.68.462 1.12.462.438 0 .812-.154 1.119-.462.307-.308.46-.681.46-1.121 0-1.891.67-3.508 2.01-4.85 1.338-1.34 2.951-2.011 4.839-2.011.439 0 .812-.154 1.12-.462.307-.308.46-.682.46-1.122zM66 36c0 .748-.22 1.506-.658 2.276-3.073 5.058-7.205 9.11-12.396 12.155C47.755 53.477 42.273 55 36.5 55c-5.773 0-11.255-1.528-16.446-4.585-5.19-3.057-9.323-7.103-12.396-12.139C7.22 37.506 7 36.748 7 36c0-.748.22-1.506.658-2.276 3.073-5.036 7.205-9.082 12.396-12.139C25.245 18.528 30.727 17 36.5 17c5.773 0 11.255 1.528 16.446 4.585 5.19 3.057 9.323 7.103 12.396 12.139.439.77.658 1.528.658 2.276z"/>
</svg>
