<svg xmlns="http://www.w3.org/2000/svg" width="72" height="72" viewBox="0 0 72 72">
    <path fill="#6B7179" fill-rule="nonzero" d="M36.5 27.846c-5.695 0-10.313 4.649-10.313 10.385 0 5.735 4.618 10.384 10.313 10.384s10.313-4.65 10.313-10.384c0-5.735-4.618-10.385-10.313-10.385zm24.922-8.654H50.459l-4.379-4.408-.001.003A2.557 2.557 0 0 0 44.234 14H28.766a2.56 2.56 0 0 0-2.048 1.035l-4.129 4.157H11.58A2.587 2.587 0 0 0 9 21.788v34.616A2.587 2.587 0 0 0 11.578 59h49.844A2.587 2.587 0 0 0 64 56.404V21.788a2.587 2.587 0 0 0-2.578-2.596zM36.5 53.808c-8.543 0-15.469-6.974-15.469-15.577S27.957 22.654 36.5 22.654s15.469 6.974 15.469 15.577S45.043 53.808 36.5 53.808z"/>
</svg>
