<svg xmlns="http://www.w3.org/2000/svg" width="200" height="120" fill="none" viewBox="0 0 200 120">
    <g fill="#fff" clip-path="url(#prefix__clip0)">
        <path d="M18 72.267c.025-.035.063-.066.078-.104.68-1.755 1.353-3.51 2.038-5.262 2.333-5.987 4.671-11.97 7.003-17.958l1.381-3.529c.025-.066.056-.129.088-.201.084-.007.162-.013.24-.013h7.473c.063 0 .126.006.188.013-1.09 2.876-2.182 5.756-3.271 8.636-.216.568-.423 1.141-.636 1.711-.053.133-.11.265-.16.397l-6.451 17.006c-.232.611-.454 1.226-.683 1.837h-5.52c-.021-.013-.043-.031-.068-.038-.84-.23-1.365-.772-1.603-1.607-.019-.07-.063-.126-.097-.189v-.7zM182 62.404c-.019.073-.044.148-.05.22-.216 2.36-.955 4.507-2.567 6.284-1.581 1.742-3.535 2.823-5.858 3.207-.654.108-1.311.158-1.972.158h-5.707c-.097 0-.197.003-.294-.016a.8.8 0 01-.639-.706c-.006-.072-.003-.145-.003-.214 0-6.995 0-13.993.003-20.988 0-.133.01-.271.047-.397a.753.753 0 01.698-.536c.053-.003.107 0 .16 0 2.063 0 4.126-.028 6.189.013 2.655.05 4.956 1.011 6.891 2.851 1.455 1.383 2.335 3.085 2.783 5.03.144.63.266 1.263.281 1.912 0 .038.029.075.044.113-.006 1.021-.006 2.045-.006 3.07zm-13.502 6.453c.044.007.078.013.112.013.999-.016 2.001-.006 3-.054a7.67 7.67 0 002.964-.759c1.112-.532 2.057-1.254 2.693-2.341.588-1.008.892-2.108 1.033-3.258.106-.876.128-1.755.059-2.634-.072-.917-.228-1.815-.545-2.682-.378-1.04-.942-1.954-1.828-2.637-1.049-.807-2.229-1.305-3.525-1.538-1.302-.236-2.617-.139-3.929-.151-.006 0-.012.01-.034.028v16.013zM39.867 74.8c-.012-.076-.015-.154-.043-.224-1.225-3.233-2.452-6.465-3.676-9.698-.012-.032-.019-.07-.028-.101.04-.066.094-.126.119-.199.1-.258.188-.52.285-.781.291-.797.585-1.591.876-2.385.226-.621.448-1.245.674-1.863.36-.98.723-1.96 1.08-2.94.228-.63.447-1.26.679-1.89.069-.192.16-.375.24-.56.27.68.546 1.36.812 2.044 2.025 5.187 4.035 10.382 6.083 15.56.494 1.247-.21 2.694-1.475 2.987-.022.006-.034.031-.053.047-1.857.003-3.716.003-5.573.003zM109.404 57.618v-7.14c0-.126 0-.252.016-.375.05-.39.351-.68.736-.687a74.67 74.67 0 012.063 0c.419.006.732.33.754.756.003.088.003.18.003.271 0 4.6-.003 9.198.004 13.798 0 .756.097 1.503.353 2.222.451 1.254 1.309 2.082 2.583 2.445a5.942 5.942 0 003.484-.047c1.362-.435 2.182-1.406 2.564-2.773.176-.627.232-1.27.232-1.92-.003-4.58 0-9.162 0-13.74 0-.092-.006-.18.003-.268.038-.426.354-.735.777-.74.669-.007 1.339-.007 2.009 0 .448.002.771.33.789.78.003.054 0 .108 0 .161 0 4.607.003 9.217-.003 13.824-.003 1.304-.188 2.58-.71 3.784-.937 2.149-2.571 3.516-4.784 4.194-1.115.34-2.257.422-3.419.343-1.014-.066-2-.265-2.927-.693-2.226-1.027-3.641-2.741-4.232-5.136-.229-.92-.295-1.86-.295-2.805-.003-2.089 0-4.171 0-6.254zM76.308 61.828v7.036c.103.003.203.006.306.006h8.976c.116 0 .235 0 .344.028a.745.745 0 01.567.703 40.13 40.13 0 01-.003 1.94c-.01.392-.32.685-.705.722-.087.01-.178.007-.269.007H72.73V49.429c.057-.007.113-.02.172-.02 4.145 0 8.29.004 12.435-.006.486 0 .858.397.842.845-.018.52-.03 1.043.004 1.563.043.677-.38 1.024-1.015 1.008-1.186-.032-2.376-.01-3.562-.01H76.31v5.616h6.981c.072 0 .144-.004.213 0 .435.028.757.34.77.781a44.69 44.69 0 010 1.83c-.01.47-.338.776-.81.788-.151.004-.305 0-.458 0h-6.405c-.09.004-.188.004-.294.004zM130.029 49.41h8.299c.989 0 1.96.138 2.883.504 1.844.728 3.081 2.054 3.676 3.945.485 1.544.494 3.122-.013 4.663-.751 2.288-2.345 3.671-4.674 4.204a9.253 9.253 0 01-2.019.208h-4.574v8.312c0 .082.003.16 0 .242-.019.438-.329.77-.767.779-.679.012-1.359.012-2.035 0-.426-.007-.736-.322-.77-.747-.006-.073-.003-.145-.003-.214V49.728c-.003-.098-.003-.192-.003-.318zm3.584 10.12h.213c1.519 0 3.037.007 4.555-.003a4.33 4.33 0 00.877-.097c1.096-.243 1.831-.901 2.154-1.985a4.392 4.392 0 00-.007-2.55c-.272-.92-.854-1.56-1.768-1.878a3.683 3.683 0 00-1.184-.204c-1.553-.004-3.108 0-4.661 0-.06 0-.119.012-.182.022.003 2.23.003 4.446.003 6.696zM62.242 72.528c-1.669-.01-3.2-.413-4.527-1.44-1.284-.992-2.154-2.284-2.68-3.816a7.833 7.833 0 01-.147-.46c-.119-.431 0-.753.376-.995.479-.312.96-.621 1.446-.924.52-.327 1.042-.148 1.246.432.22.618.476 1.22.826 1.774.445.703.987 1.314 1.757 1.648 1.352.59 2.683.564 3.904-.347 1.246-.93 1.465-2.596 1.095-3.601-.197-.536-.529-.974-.948-1.349-.417-.375-.896-.646-1.4-.888-1.518-.734-3.033-1.481-4.467-2.38a5.704 5.704 0 01-1.935-2.01 5.625 5.625 0 01-.745-2.53c-.063-1.027.035-2.035.467-2.974.873-1.888 2.323-3.072 4.376-3.419 1.785-.3 3.466.022 4.984 1.046.789.533 1.421 1.226 1.941 2.02.257.387.17.854-.21 1.115-.513.356-1.036.703-1.562 1.043-.4.259-.842.158-1.12-.242a5.188 5.188 0 00-.861-.993c-.633-.551-1.362-.838-2.208-.813-1.142.035-2.05.85-2.22 1.995-.153 1.046.176 1.91.953 2.609.716.646 1.54 1.13 2.4 1.55.94.457 1.873.93 2.803 1.402 1.083.551 1.944 1.358 2.623 2.363.538.797.817 1.686.89 2.647.09 1.22-.042 2.407-.54 3.53-.9 2.031-2.466 3.27-4.608 3.79-.626.16-1.274.214-1.91.217zM147.241 72.27h-.514c-.482 0-.964-.022-1.446.003-.88.047-1.437-.794-1.149-1.607.917-2.584 1.797-5.18 2.692-7.773l4.562-13.212c.028-.085.059-.167.091-.259h3.387c.106.306.216.608.319.914 2.339 6.768 4.674 13.537 7.013 20.302.084.242.128.485.075.74-.094.46-.498.864-.964.88-.73.024-1.462.005-2.207.005a65617.76 65617.76 0 01-5.902-18.228l-.04-.003c-1.966 6.075-3.939 12.147-5.917 18.238zM99.58 52.813v18.404c0 .098.004.199-.003.297-.022.416-.322.74-.732.75-.695.015-1.393.012-2.088 0-.392-.007-.689-.3-.736-.69-.013-.117-.013-.234-.013-.35V53.172v-.362H90.65c-.09 0-.179.003-.27-.004a.777.777 0 01-.723-.765c-.009-.621-.009-1.239 0-1.86a.77.77 0 01.767-.771c.063-.003.126 0 .188 0H105c.072 0 .144-.003.212.003.392.025.721.328.73.725a39.25 39.25 0 010 1.94c-.009.385-.319.687-.701.728-.088.01-.179.007-.27.007H99.58z"/>
        <path d="M34.458 60.41c-.25-.65-.504-1.302-.755-1.95-.344-.905-.686-1.81-1.03-2.71-.025-.067-.063-.127-.094-.19.213-.57.42-1.14.636-1.71 1.09-2.88 2.179-5.757 3.271-8.637.135-.041.141.069.172.148l.498 1.273 1.152 2.949c.032.082.057.17.088.255-.038.057-.085.11-.11.173a1390.226 1390.226 0 00-2.326 6.365c-.435 1.201-.864 2.401-1.299 3.602-.053.148-.135.287-.203.432z"/>
        <path d="M34.458 60.41c.069-.145.147-.284.2-.432.435-1.2.864-2.401 1.3-3.602a1837.265 1837.265 0 012.325-6.364c.022-.063.072-.117.11-.174.31.782.62 1.56.926 2.341.226.574.448 1.15.67 1.724.032.082.054.167.082.252-.082.186-.172.369-.241.56-.232.628-.451 1.261-.68 1.891-.356.98-.723 1.96-1.08 2.94-.225.621-.447 1.242-.673 1.862-.29.798-.585 1.592-.876 2.386-.094.258-.185.523-.285.781-.028.07-.078.132-.12.199-.218-.567-.44-1.135-.66-1.702-.322-.844-.642-1.692-.964-2.536l-.034-.126z"/>
    </g>
    <defs>
        <clipPath id="prefix__clip0">
            <path fill="#fff" d="M18 45.2H182V74.80000000000001H18z"/>
        </clipPath>
    </defs>
</svg>
