<svg width="160" height="160" viewBox="0 0 160 160" fill="none" xmlns="http://www.w3.org/2000/svg">
<g clip-path="url(#clip0)">
<path d="M79.9998 142.857C114.873 142.857 143.143 114.587 143.143 79.7143C143.143 44.8414 114.873 16.5714 79.9998 16.5714C45.127 16.5714 16.8569 44.8414 16.8569 79.7143C16.8569 114.587 45.127 142.857 79.9998 142.857Z" fill="#01386F"/>
<path d="M79.9999 141.514C114.131 141.514 141.799 113.845 141.799 79.7143C141.799 45.5835 114.131 17.915 79.9999 17.915C45.8692 17.915 18.2007 45.5835 18.2007 79.7143C18.2007 113.845 45.8692 141.514 79.9999 141.514Z" fill="white"/>
<path d="M79.9998 138.826C112.646 138.826 139.112 112.361 139.112 79.7143C139.112 47.0676 112.646 20.6022 79.9998 20.6022C47.3531 20.6022 20.8877 47.0676 20.8877 79.7143C20.8877 112.361 47.3531 138.826 79.9998 138.826Z" fill="#01386F"/>
<path d="M79.9999 133.9C109.926 133.9 134.186 109.64 134.186 79.7143C134.186 49.7882 109.926 25.5283 79.9999 25.5283C50.0738 25.5283 25.814 49.7882 25.814 79.7143C25.814 109.64 50.0738 133.9 79.9999 133.9Z" fill="white"/>
<path d="M80 130.766C108.195 130.766 131.052 107.909 131.052 79.7143C131.052 51.5192 108.195 28.6626 80 28.6626C51.8049 28.6626 28.9482 51.5192 28.9482 79.7143C28.9482 107.909 51.8049 130.766 80 130.766Z" fill="#01386F"/>
<path d="M43.6287 70.9068V61.6848H40.6318V59.8074H48.6597V61.6848H45.6688V70.9068H43.6287Z" fill="white"/>
<path d="M49.3066 65.4252C49.3066 64.2949 49.4609 63.3454 49.7682 62.5778C49.9983 62.0126 50.3116 61.5053 50.7093 61.0558C51.1069 60.6063 51.5419 60.2738 52.0143 60.0569C52.6433 59.764 53.37 59.6182 54.1918 59.6182C55.68 59.6182 56.8705 60.1255 57.7647 61.1402C58.6576 62.1548 59.1046 63.5659 59.1046 65.3734C59.1046 67.1653 58.6612 68.5679 57.7743 69.5801C56.8874 70.5923 55.7029 71.0984 54.2195 71.0984C52.718 71.0984 51.5227 70.5947 50.637 69.5873C49.7489 68.5787 49.3066 67.1918 49.3066 65.4252ZM51.4082 65.3493C51.4082 66.6061 51.6721 67.5593 52.2011 68.2076C52.7289 68.8559 53.4001 69.18 54.2135 69.18C55.0269 69.18 55.6932 68.8583 56.215 68.2148C56.7368 67.5714 56.9971 66.6061 56.9971 65.318C56.9971 64.0455 56.7428 63.0971 56.2355 62.4705C55.7282 61.8451 55.0534 61.5318 54.2135 61.5318C53.3724 61.5318 52.6951 61.8487 52.1806 62.4826C51.6649 63.1176 51.4082 64.072 51.4082 65.3493Z" fill="white"/>
<path d="M60.6953 70.9068V59.8074H63.9681C65.2081 59.8074 66.0167 59.8629 66.3938 59.9737C66.9723 60.14 67.4567 60.5027 67.8483 61.0606C68.2387 61.6186 68.4339 62.3392 68.4339 63.2224C68.4339 63.9045 68.3219 64.4769 68.0965 64.9408C67.8712 65.4047 67.5856 65.7698 67.2386 66.035C66.8915 66.3001 66.5397 66.476 66.1806 66.5615C65.6937 66.6676 64.9888 66.7206 64.0657 66.7206H62.7354V70.908H60.6953V70.9068ZM62.7354 61.6848V64.8348H63.8513C64.655 64.8348 65.1924 64.7769 65.4636 64.66C65.7347 64.5443 65.9468 64.3624 66.101 64.1154C66.2553 63.8683 66.3324 63.5803 66.3324 63.2526C66.3324 62.8489 66.2239 62.5151 66.0082 62.2536C65.7925 61.9909 65.519 61.827 65.1888 61.762C64.9454 61.7114 64.4562 61.686 63.7211 61.686H62.7354V61.6848Z" fill="white"/>
<path d="M73.7808 70.9068V59.8074H78.073C79.1527 59.8074 79.9372 59.9074 80.4264 60.1063C80.9157 60.3063 81.3073 60.6606 81.6013 61.1703C81.8953 61.68 82.0424 62.2633 82.0424 62.92C82.0424 63.7527 81.8194 64.4407 81.3736 64.983C80.9277 65.5252 80.2613 65.8675 79.3757 66.0084C79.8167 66.2916 80.1806 66.6013 80.4674 66.9399C80.7542 67.2785 81.141 67.8786 81.6278 68.7426L82.8618 70.908H80.4228L78.9479 68.4932C78.4237 67.6304 78.0658 67.0857 77.873 66.8616C77.6802 66.6375 77.4753 66.4832 77.2596 66.4001C77.0439 66.3169 76.7017 66.2747 76.233 66.2747H75.8196V70.9092H73.7808V70.9068ZM75.8196 64.501H77.3283C78.3068 64.501 78.9177 64.4552 79.1612 64.3648C79.4046 64.2744 79.595 64.1178 79.7335 63.8948C79.8709 63.6731 79.9408 63.3948 79.9408 63.0622C79.9408 62.6886 79.8504 62.3874 79.6685 62.1572C79.4865 61.927 79.2311 61.7824 78.8997 61.7222C78.7346 61.6969 78.2381 61.6848 77.4115 61.6848H75.8196V64.501Z" fill="white"/>
<path d="M93.0729 70.9068H90.8545L89.9724 68.3859H85.9344L85.1005 70.9068H82.9375L86.8719 59.8062H89.0289L93.0729 70.9068ZM89.3181 66.5157L87.9263 62.397L86.5622 66.5157H89.3181Z" fill="white"/>
<path d="M95.3816 70.9068V61.6848H92.3848V59.8074H100.413V61.6848H97.4217V70.9068H95.3816Z" fill="white"/>
<path d="M101.728 70.9068V59.8074H109.218V61.6848H103.768V64.1455H108.838V66.0157H103.768V69.0366H109.411V70.9068H101.728Z" fill="white"/>
<path d="M111.133 59.8074H114.86C115.701 59.8074 116.341 59.8785 116.782 60.0195C117.375 60.2111 117.882 60.5521 118.305 61.0414C118.728 61.5306 119.048 62.1307 119.269 62.8392C119.489 63.549 119.599 64.4226 119.599 65.4626C119.599 66.376 119.495 67.1641 119.289 67.8244C119.036 68.6318 118.676 69.2861 118.207 69.785C117.853 70.1633 117.376 70.4586 116.774 70.6707C116.324 70.8273 115.722 70.9056 114.969 70.9056H111.131V59.8074H111.133ZM113.173 61.6848V69.0367H114.696C115.266 69.0367 115.677 69.0017 115.93 68.9306C116.261 68.8402 116.535 68.686 116.753 68.4691C116.971 68.2522 117.149 67.8955 117.287 67.3978C117.424 66.9002 117.493 66.2229 117.493 65.365C117.493 64.507 117.424 63.8478 117.287 63.3887C117.149 62.9296 116.955 62.5705 116.708 62.3139C116.46 62.056 116.145 61.8825 115.765 61.7909C115.48 61.7198 114.921 61.6848 114.091 61.6848H113.173Z" fill="white"/>
<path d="M34.9009 91.0704V84.6079H39.698V85.7008H36.2071V87.1336H39.4546V88.2229H36.2071V89.9822H39.821V91.0716H34.9009V91.0704Z" fill="white"/>
<path d="M40.8274 86.3889H41.9697V87.0275C42.3782 86.5311 42.8651 86.2828 43.4302 86.2828C43.7303 86.2828 43.9905 86.3443 44.2111 86.4684C44.4316 86.5925 44.6123 86.7781 44.7533 87.0287C44.9594 86.7793 45.1811 86.5925 45.4197 86.4684C45.6583 86.3443 45.9125 86.2828 46.1825 86.2828C46.5271 86.2828 46.8175 86.3527 47.0561 86.4925C47.2947 86.6323 47.4718 86.8371 47.5899 87.1071C47.6755 87.3071 47.7177 87.6301 47.7177 88.0771V91.0704H46.4777V88.394C46.4777 87.9301 46.4355 87.6301 46.35 87.4951C46.2355 87.3192 46.0584 87.2312 45.821 87.2312C45.6474 87.2312 45.4848 87.2842 45.3317 87.3903C45.1787 87.4963 45.0678 87.6517 45.0003 87.8554C44.9329 88.0602 44.8991 88.382 44.8991 88.823V91.0716H43.6592V88.5061C43.6592 88.0506 43.6375 87.7566 43.5929 87.624C43.5483 87.4915 43.4808 87.3927 43.388 87.3288C43.2952 87.2637 43.1699 87.2324 43.0109 87.2324C42.8193 87.2324 42.647 87.2842 42.4939 87.3866C42.3409 87.4891 42.2312 87.6373 42.1649 87.8313C42.0987 88.0253 42.0661 88.347 42.0661 88.7965V91.0716H40.8262V86.3889H40.8274Z" fill="white"/>
<path d="M48.9201 86.3889H50.0758V87.0769C50.2264 86.842 50.4288 86.6504 50.6843 86.5046C50.9398 86.3588 51.2241 86.284 51.5362 86.284C52.0809 86.284 52.5424 86.4973 52.922 86.9227C53.3016 87.3493 53.4908 87.9421 53.4908 88.7037C53.4908 89.4858 53.2992 90.0931 52.9172 90.5269C52.5352 90.9607 52.0713 91.1776 51.5266 91.1776C51.2675 91.1776 51.0325 91.1258 50.8229 91.0234C50.612 90.9209 50.3915 90.7438 50.1589 90.4944V92.8526H48.9189V86.3889H48.9201ZM50.1469 88.6507C50.1469 89.1773 50.2517 89.5653 50.4602 89.8172C50.6686 90.069 50.9241 90.1943 51.2241 90.1943C51.5121 90.1943 51.7519 90.0786 51.9435 89.8485C52.1351 89.6183 52.2303 89.2399 52.2303 88.7134C52.2303 88.2229 52.1315 87.8578 51.9351 87.6204C51.7375 87.3818 51.4941 87.2637 51.2024 87.2637C50.9 87.2637 50.6481 87.3806 50.4481 87.6144C50.2469 87.8457 50.1469 88.1916 50.1469 88.6507Z" fill="white"/>
<path d="M54.4766 91.0704V84.6079H55.7165V91.0704H54.4766Z" fill="white"/>
<path d="M56.6997 88.664C56.6997 88.253 56.8009 87.8542 57.0046 87.4698C57.207 87.0854 57.495 86.7914 57.8674 86.5877C58.2397 86.3853 58.6554 86.284 59.1146 86.284C59.8231 86.284 60.4051 86.5142 60.857 86.9733C61.3101 87.4336 61.5366 88.0144 61.5366 88.717C61.5366 89.4255 61.3077 90.0124 60.851 90.4775C60.3943 90.9426 59.8171 91.1764 59.123 91.1764C58.6928 91.1764 58.2843 91.08 57.8939 90.886C57.5047 90.692 57.2082 90.4076 57.0046 90.0328C56.8009 89.6581 56.6997 89.2014 56.6997 88.664ZM57.971 88.7302C57.971 89.1942 58.0819 89.5496 58.3024 89.7967C58.5229 90.0437 58.7952 90.1666 59.1182 90.1666C59.4411 90.1666 59.7134 90.0437 59.9328 89.7967C60.1521 89.5496 60.2617 89.1917 60.2617 88.7206C60.2617 88.2627 60.1521 87.9096 59.9328 87.6626C59.7134 87.4156 59.4423 87.2926 59.1182 87.2926C58.794 87.2926 58.5229 87.4156 58.3024 87.6626C58.0807 87.9096 57.971 88.2651 57.971 88.7302Z" fill="white"/>
<path d="M61.9199 86.3889H63.2394L64.3601 89.7123L65.4542 86.3889H66.7388L65.0843 90.8944L64.7891 91.7102C64.6806 91.9838 64.577 92.1922 64.4782 92.3356C64.3794 92.479 64.2661 92.5959 64.1384 92.6863C64.0106 92.7755 63.8528 92.8454 63.666 92.896C63.4792 92.9466 63.2683 92.9707 63.0334 92.9707C62.7948 92.9707 62.561 92.9454 62.332 92.896L62.2212 91.9259C62.4152 91.9645 62.5899 91.9838 62.7466 91.9838C63.0346 91.9838 63.2479 91.8994 63.3864 91.7307C63.525 91.562 63.631 91.3463 63.7045 91.0848L61.9199 86.3889Z" fill="white"/>
<path d="M70.2476 89.581L71.4827 89.7882C71.3237 90.2413 71.073 90.5859 70.7308 90.8221C70.3886 91.0583 69.9596 91.1764 69.445 91.1764C68.6304 91.1764 68.0267 90.9101 67.6363 90.3787C67.3278 89.9521 67.1724 89.4147 67.1724 88.7652C67.1724 87.9891 67.3748 87.3818 67.7809 86.942C68.187 86.5022 68.7003 86.2828 69.3209 86.2828C70.0186 86.2828 70.5681 86.513 70.9718 86.9721C71.3743 87.4324 71.5671 88.1362 71.5502 89.0857H68.4437C68.4521 89.4532 68.5521 89.7388 68.7437 89.9437C68.9353 90.1485 69.1727 90.2497 69.4583 90.2497C69.6523 90.2497 69.8162 90.1967 69.9475 90.0907C70.0789 89.9846 70.1789 89.8159 70.2476 89.581ZM70.3175 88.329C70.309 87.9711 70.2162 87.6975 70.0391 87.5108C69.8632 87.324 69.6475 87.2312 69.3944 87.2312C69.1233 87.2312 68.9004 87.33 68.7232 87.5264C68.5473 87.7228 68.4593 87.9903 68.4629 88.329H70.3175Z" fill="white"/>
<path d="M75.2739 89.581L76.5091 89.7882C76.35 90.2413 76.0994 90.5859 75.7571 90.8221C75.4149 91.0583 74.9859 91.1764 74.4714 91.1764C73.6568 91.1764 73.0531 90.9101 72.6627 90.3787C72.3542 89.9521 72.1987 89.4147 72.1987 88.7652C72.1987 87.9891 72.4012 87.3818 72.8073 86.942C73.2134 86.5022 73.7267 86.2828 74.3473 86.2828C75.045 86.2828 75.5945 86.513 75.9982 86.9721C76.4006 87.4324 76.5934 88.1362 76.5766 89.0857H73.4688C73.4773 89.4532 73.5773 89.7388 73.7689 89.9437C73.9605 90.1485 74.1979 90.2497 74.4834 90.2497C74.6775 90.2497 74.8413 90.1967 74.9727 90.0907C75.104 89.9846 75.2052 89.8159 75.2739 89.581ZM75.3438 88.329C75.3354 87.9711 75.2426 87.6975 75.0655 87.5108C74.8895 87.324 74.6738 87.2312 74.4208 87.2312C74.1497 87.2312 73.9267 87.33 73.7496 87.5264C73.5737 87.7228 73.4857 87.9903 73.4893 88.329H75.3438Z" fill="white"/>
<path d="M80.0879 91.0704V84.6079H82.0424L83.2161 89.0158L84.3765 84.6079H86.3359V91.0704H85.1225V85.9828L83.8379 91.0704H82.5799L81.3001 85.9828V91.0704H80.0879Z" fill="white"/>
<path d="M87.3374 88.664C87.3374 88.253 87.4386 87.8542 87.6423 87.4698C87.8447 87.0854 88.1327 86.7914 88.5051 86.5877C88.8774 86.3853 89.2931 86.284 89.7522 86.284C90.4608 86.284 91.0428 86.5142 91.4947 86.9733C91.9478 87.4336 92.1743 88.0144 92.1743 88.717C92.1743 89.4255 91.9454 90.0124 91.4887 90.4775C91.032 90.9426 90.4548 91.1764 89.7607 91.1764C89.3305 91.1764 88.922 91.08 88.5316 90.886C88.1423 90.692 87.8459 90.4076 87.6423 90.0328C87.4386 89.6581 87.3374 89.2014 87.3374 88.664ZM88.6087 88.7302C88.6087 89.1942 88.7195 89.5496 88.9401 89.7967C89.1606 90.0437 89.4329 90.1666 89.7559 90.1666C90.0788 90.1666 90.3511 90.0437 90.5704 89.7967C90.7898 89.5496 90.8994 89.1917 90.8994 88.7206C90.8994 88.2627 90.7898 87.9096 90.5704 87.6626C90.3511 87.4156 90.08 87.2926 89.7559 87.2926C89.4317 87.2926 89.1606 87.4156 88.9401 87.6626C88.7195 87.9096 88.6087 88.2651 88.6087 88.7302Z" fill="white"/>
<path d="M97.4075 91.0704H96.1676V88.6808C96.1676 88.1759 96.141 87.8482 96.088 87.6999C96.035 87.5517 95.9494 87.436 95.8301 87.3541C95.7109 87.2722 95.5675 87.2312 95.4 87.2312C95.1855 87.2312 94.9927 87.2902 94.8216 87.4071C94.6504 87.5252 94.5336 87.6807 94.4709 87.8747C94.407 88.0687 94.3757 88.4266 94.3757 88.9507V91.0716H93.1357V86.3901H94.2877V87.0781C94.6962 86.5491 95.212 86.2853 95.8326 86.2853C96.1061 86.2853 96.3555 86.3347 96.5833 86.4335C96.8098 86.5323 96.9809 86.6576 97.0978 86.8106C97.2135 86.9637 97.2954 87.1372 97.34 87.3312C97.3858 87.5252 97.4087 87.8024 97.4087 88.1639V91.0704H97.4075Z" fill="white"/>
<path d="M98.6655 85.755V84.6091H99.9055V85.755H98.6655ZM98.6655 91.0704V86.3889H99.9055V91.0704H98.6655Z" fill="white"/>
<path d="M103.325 86.3889V87.3758H102.478V89.2629C102.478 89.6449 102.487 89.8678 102.502 89.9305C102.518 89.9931 102.555 90.0461 102.613 90.0871C102.671 90.1281 102.741 90.1486 102.823 90.1486C102.937 90.1486 103.104 90.1088 103.322 90.0293L103.428 90.9897C103.14 91.1126 102.813 91.1752 102.448 91.1752C102.224 91.1752 102.023 91.1379 101.843 91.0632C101.664 90.9885 101.532 90.8909 101.448 90.7716C101.363 90.6523 101.306 90.492 101.273 90.2895C101.247 90.1449 101.233 89.8545 101.233 89.4171V87.3758H100.665V86.3889H101.233V85.4586L102.478 84.7356V86.3889H103.325Z" fill="white"/>
<path d="M103.899 88.664C103.899 88.253 104 87.8542 104.204 87.4698C104.406 87.0854 104.694 86.7914 105.067 86.5877C105.439 86.3853 105.855 86.284 106.314 86.284C107.022 86.284 107.604 86.5142 108.056 86.9733C108.509 87.4336 108.736 88.0144 108.736 88.717C108.736 89.4255 108.507 90.0124 108.05 90.4775C107.594 90.9426 107.016 91.1764 106.322 91.1764C105.892 91.1764 105.484 91.08 105.093 90.886C104.704 90.692 104.407 90.4076 104.204 90.0328C104 89.6581 103.899 89.2014 103.899 88.664ZM105.17 88.7302C105.17 89.1942 105.281 89.5496 105.502 89.7967C105.722 90.0437 105.994 90.1666 106.317 90.1666C106.64 90.1666 106.913 90.0437 107.132 89.7967C107.351 89.5496 107.461 89.1917 107.461 88.7206C107.461 88.2627 107.351 87.9096 107.132 87.6626C106.913 87.4156 106.642 87.2926 106.317 87.2926C105.993 87.2926 105.722 87.4156 105.502 87.6626C105.28 87.9096 105.17 88.2651 105.17 88.7302Z" fill="white"/>
<path d="M110.893 91.0704H109.653V86.3889H110.805V87.054C111.002 86.7395 111.18 86.5323 111.336 86.4323C111.494 86.3322 111.672 86.2828 111.872 86.2828C112.154 86.2828 112.427 86.3612 112.688 86.5166L112.304 87.5963C112.095 87.4613 111.901 87.3939 111.722 87.3939C111.548 87.3939 111.401 87.4421 111.281 87.5373C111.16 87.6325 111.065 87.806 110.996 88.0554C110.928 88.3049 110.893 88.8278 110.893 89.6243V91.0704Z" fill="white"/>
<path d="M113.223 85.755V84.6091H114.463V85.755H113.223ZM113.223 91.0704V86.3889H114.463V91.0704H113.223Z" fill="white"/>
<path d="M119.997 91.0704H118.757V88.6808C118.757 88.1759 118.73 87.8482 118.677 87.6999C118.624 87.5517 118.539 87.436 118.42 87.3541C118.3 87.2722 118.157 87.2312 117.989 87.2312C117.775 87.2312 117.582 87.2902 117.411 87.4071C117.24 87.5252 117.123 87.6807 117.06 87.8747C116.996 88.0687 116.965 88.4266 116.965 88.9507V91.0716H115.725V86.3901H116.877V87.0781C117.286 86.5491 117.801 86.2853 118.422 86.2853C118.695 86.2853 118.945 86.3347 119.173 86.4335C119.399 86.5323 119.57 86.6576 119.687 86.8106C119.803 86.9637 119.885 87.1372 119.929 87.3312C119.975 87.5252 119.998 87.8024 119.998 88.1639V91.0704H119.997Z" fill="white"/>
<path d="M121.139 91.3788L122.555 91.5512C122.579 91.7162 122.633 91.8283 122.719 91.891C122.837 91.9789 123.021 92.0235 123.275 92.0235C123.597 92.0235 123.841 91.9753 124.002 91.8777C124.111 91.8127 124.194 91.709 124.249 91.5644C124.288 91.462 124.307 91.2716 124.307 90.9957V90.3124C123.936 90.8185 123.469 91.0704 122.905 91.0704C122.276 91.0704 121.777 90.8041 121.409 90.2726C121.121 89.8521 120.977 89.3291 120.977 88.7037C120.977 87.9192 121.166 87.3192 121.544 86.9058C121.923 86.4913 122.392 86.284 122.954 86.284C123.534 86.284 124.012 86.5383 124.388 87.0468V86.3901H125.548V90.5908C125.548 91.1427 125.503 91.556 125.411 91.8295C125.319 92.1031 125.192 92.3176 125.027 92.473C124.862 92.6284 124.642 92.7502 124.367 92.8393C124.093 92.9273 123.744 92.9719 123.324 92.9719C122.53 92.9719 121.966 92.8357 121.633 92.5646C121.301 92.2935 121.134 91.9476 121.134 91.5307C121.136 91.4885 121.137 91.4379 121.139 91.3788ZM122.247 88.6326C122.247 89.1291 122.343 89.493 122.536 89.7232C122.729 89.9545 122.966 90.069 123.248 90.069C123.55 90.069 123.807 89.9509 124.016 89.7135C124.224 89.4773 124.329 89.1267 124.329 88.6627C124.329 88.1783 124.229 87.818 124.029 87.5831C123.829 87.3481 123.576 87.23 123.27 87.23C122.972 87.23 122.727 87.3457 122.535 87.5758C122.343 87.8084 122.247 88.1603 122.247 88.6326Z" fill="white"/>
<path d="M61.4282 99.8019L62.6995 99.679C62.7754 100.106 62.9309 100.418 63.1647 100.618C63.3984 100.818 63.7141 100.918 64.1106 100.918C64.5311 100.918 64.8481 100.829 65.0613 100.651C65.2746 100.473 65.3819 100.266 65.3819 100.027C65.3819 99.8742 65.3373 99.7441 65.2469 99.6368C65.1565 99.5296 65.0011 99.4368 64.777 99.3573C64.6239 99.3042 64.2757 99.2103 63.731 99.0753C63.0309 98.9018 62.5392 98.6885 62.2573 98.4366C61.8596 98.0812 61.662 97.6473 61.662 97.1364C61.662 96.8074 61.756 96.499 61.9428 96.2134C62.1295 95.9266 62.3983 95.7085 62.7501 95.559C63.102 95.4096 63.5262 95.3337 64.0226 95.3337C64.8348 95.3337 65.4457 95.5121 65.8567 95.8675C66.2676 96.223 66.4821 96.6978 66.5025 97.2919L65.1963 97.3497C65.1409 97.0171 65.0204 96.7785 64.8372 96.6327C64.6528 96.4869 64.3769 96.4146 64.0094 96.4146C63.6298 96.4146 63.3321 96.4929 63.1177 96.6484C62.9791 96.7484 62.9104 96.8822 62.9104 97.0497C62.9104 97.2027 62.9755 97.3328 63.1044 97.4425C63.2695 97.5811 63.6696 97.7245 64.3046 97.8739C64.9396 98.0233 65.4096 98.1788 65.7145 98.339C66.0193 98.4993 66.2567 98.7186 66.429 98.9958C66.6014 99.2729 66.6869 99.6163 66.6869 100.025C66.6869 100.395 66.5845 100.742 66.3784 101.065C66.1724 101.388 65.8808 101.629 65.5048 101.785C65.1276 101.942 64.6589 102.022 64.0973 102.022C63.2791 102.022 62.6513 101.832 62.2127 101.455C61.7753 101.074 61.5138 100.525 61.4282 99.8019Z" fill="white"/>
<path d="M67.4917 99.497C67.4917 99.0861 67.5929 98.6873 67.7966 98.3029C67.999 97.9185 68.287 97.6244 68.6594 97.4208C69.0317 97.2184 69.4474 97.1171 69.9065 97.1171C70.6151 97.1171 71.1971 97.3473 71.649 97.8064C72.1021 98.2667 72.3286 98.8475 72.3286 99.5501C72.3286 100.259 72.0997 100.845 71.643 101.311C71.1863 101.776 70.6091 102.01 69.915 102.01C69.4848 102.01 69.0763 101.913 68.6859 101.719C68.2966 101.525 68.0002 101.241 67.7966 100.866C67.5929 100.491 67.4917 100.036 67.4917 99.497ZM68.7618 99.5633C68.7618 100.027 68.8726 100.383 69.0932 100.63C69.3137 100.877 69.586 101 69.909 101C70.2319 101 70.5042 100.877 70.7235 100.63C70.9429 100.383 71.0525 100.025 71.0525 99.5537C71.0525 99.0958 70.9429 98.7427 70.7235 98.4957C70.5042 98.2486 70.2331 98.1257 69.909 98.1257C69.5848 98.1257 69.3137 98.2486 69.0932 98.4957C68.8726 98.7439 68.7618 99.0994 68.7618 99.5633Z" fill="white"/>
<path d="M72.7554 97.2232H73.4434V96.8701C73.4434 96.4761 73.4856 96.1821 73.5688 95.988C73.6531 95.794 73.8073 95.6362 74.0327 95.5145C74.258 95.3928 74.5424 95.3313 74.887 95.3313C75.2401 95.3313 75.5859 95.3843 75.9246 95.4904L75.7571 96.3544C75.5594 96.3074 75.3703 96.2845 75.1883 96.2845C75.0087 96.2845 74.8798 96.3267 74.8027 96.4098C74.7244 96.4942 74.6858 96.6544 74.6858 96.893V97.2232H75.6125V98.1968H74.6858V101.905H73.4446V98.1968H72.7566V97.2232H72.7554Z" fill="white"/>
<path d="M78.4576 97.2232V98.2101H77.6104V100.097C77.6104 100.479 77.6189 100.702 77.6345 100.765C77.6502 100.827 77.6875 100.88 77.7454 100.921C77.8032 100.962 77.8731 100.983 77.9551 100.983C78.0695 100.983 78.2358 100.943 78.4539 100.864L78.56 101.824C78.272 101.947 77.9454 102.01 77.5803 102.01C77.3562 102.01 77.1549 101.972 76.9754 101.897C76.7958 101.823 76.6645 101.725 76.5801 101.606C76.4958 101.487 76.4379 101.326 76.4054 101.124C76.3789 100.979 76.3656 100.689 76.3656 100.251V98.2101H75.7969V97.2232H76.3656V96.2929L77.6104 95.5699V97.2232H78.4576Z" fill="white"/>
<path d="M80.1916 101.905L78.7095 97.2232H79.9145L80.7929 100.291L81.6003 97.2232H82.7957L83.5765 100.291L84.4719 97.2232H85.6937L84.1887 101.905H82.9969L82.1896 98.8933L81.3955 101.905H80.1916Z" fill="white"/>
<path d="M87.2734 98.6511L86.148 98.4487C86.2745 97.9956 86.4926 97.6606 86.8011 97.4437C87.1096 97.2268 87.5687 97.1171 88.1772 97.1171C88.7303 97.1171 89.1424 97.1822 89.4123 97.3136C89.6823 97.4449 89.8739 97.61 89.9835 97.8112C90.0932 98.0125 90.1486 98.3824 90.1486 98.9198L90.1353 100.366C90.1353 100.777 90.1546 101.08 90.1944 101.276C90.2342 101.471 90.3089 101.681 90.4173 101.903H89.1906C89.1581 101.822 89.1183 101.7 89.0713 101.537C89.0508 101.464 89.0364 101.415 89.0267 101.391C88.8146 101.597 88.5881 101.752 88.3471 101.854C88.1061 101.956 87.8482 102.008 87.5747 102.008C87.0927 102.008 86.7119 101.878 86.4335 101.615C86.1552 101.354 86.0166 101.024 86.0166 100.624C86.0166 100.359 86.0805 100.124 86.207 99.9164C86.3335 99.7091 86.5107 99.5501 86.7384 99.4404C86.9662 99.3295 87.2951 99.2343 87.7241 99.1512C88.3037 99.0428 88.705 98.9415 88.9291 98.8475V98.7246C88.9291 98.486 88.8701 98.3173 88.7532 98.2149C88.6351 98.1137 88.4134 98.0631 88.0868 98.0631C87.8663 98.0631 87.694 98.1065 87.5711 98.1932C87.4482 98.28 87.3506 98.433 87.2734 98.6511ZM88.9327 99.6561C88.7737 99.7091 88.5218 99.7718 88.1784 99.8453C87.8338 99.9188 87.6096 99.9911 87.5036 100.061C87.3421 100.175 87.2614 100.321 87.2614 100.497C87.2614 100.671 87.3265 100.82 87.4554 100.947C87.5843 101.073 87.7494 101.136 87.9494 101.136C88.1736 101.136 88.3869 101.062 88.5893 100.915C88.7399 100.803 88.8375 100.667 88.8845 100.506C88.9171 100.4 88.9327 100.198 88.9327 99.9019V99.6561Z" fill="white"/>
<path d="M92.5598 101.905H91.3198V97.2232H92.4718V97.8883C92.6694 97.5738 92.8466 97.3666 93.0032 97.2666C93.1611 97.1665 93.3394 97.1171 93.5395 97.1171C93.8214 97.1171 94.0938 97.1955 94.3553 97.3509L93.9709 98.4306C93.7624 98.2956 93.5684 98.2282 93.3888 98.2282C93.2153 98.2282 93.0683 98.2764 92.9478 98.3716C92.8273 98.4668 92.7321 98.6403 92.6634 98.8897C92.5947 99.1392 92.5598 99.6621 92.5598 100.459V101.905Z" fill="white"/>
<path d="M97.604 100.414L98.8392 100.621C98.6801 101.074 98.4294 101.419 98.0872 101.655C97.745 101.891 97.316 102.01 96.8015 102.01C95.9869 102.01 95.3832 101.743 94.9927 101.212C94.6843 100.785 94.5288 100.248 94.5288 99.5983C94.5288 98.8223 94.7312 98.2149 95.1373 97.7751C95.5434 97.3353 96.0568 97.116 96.6774 97.116C97.3751 97.116 97.9245 97.3461 98.3282 97.8052C98.7307 98.2656 98.9235 98.9693 98.9066 99.9188H95.8001C95.8085 100.286 95.9085 100.572 96.1001 100.777C96.2917 100.982 96.5291 101.083 96.8147 101.083C97.0087 101.083 97.1726 101.03 97.304 100.924C97.4353 100.818 97.5365 100.649 97.604 100.414ZM97.6751 99.1621C97.6667 98.8042 97.5739 98.5307 97.3967 98.3439C97.2208 98.1571 97.0051 98.0643 96.7521 98.0643C96.4809 98.0643 96.258 98.1631 96.0809 98.3595C95.9049 98.556 95.817 98.8235 95.8206 99.1621H97.6751Z" fill="white"/>
<path d="M141.351 108.374H79.9999H18.6489L28.0529 121.138L18.6489 133.9H79.9999H141.351L131.947 121.138L141.351 108.374Z" fill="#38B6FF"/>
<path d="M131.947 75.6835H28.0527V78.3707H131.947V75.6835Z" fill="white"/>
<path d="M137.721 128.974H22.2556L28.053 121.138L21.6182 112.405H138.382L131.947 121.138L137.721 128.974Z" fill="#01386F"/>
<path d="M30.5435 121.498L32.0292 121.358C32.1184 121.842 32.3004 122.196 32.5727 122.422C32.8462 122.649 33.215 122.762 33.6789 122.762C34.1706 122.762 34.5405 122.661 34.7899 122.46C35.0394 122.259 35.1635 122.022 35.1635 121.752C35.1635 121.579 35.1105 121.432 35.0056 121.31C34.9008 121.189 34.7176 121.083 34.4561 120.993C34.2778 120.933 33.8693 120.827 33.2343 120.674C32.4161 120.478 31.8413 120.237 31.5123 119.95C31.0484 119.547 30.8158 119.056 30.8158 118.476C30.8158 118.102 30.9254 117.754 31.1436 117.429C31.3617 117.104 31.6762 116.857 32.0871 116.687C32.498 116.517 32.9945 116.432 33.5753 116.432C34.5248 116.432 35.2382 116.634 35.7178 117.037C36.1974 117.441 36.4492 117.978 36.4733 118.651L34.9466 118.716C34.8815 118.34 34.7405 118.069 34.526 117.904C34.3115 117.739 33.9886 117.657 33.5584 117.657C33.115 117.657 32.7679 117.745 32.5161 117.922C32.3546 118.035 32.2739 118.187 32.2739 118.376C32.2739 118.55 32.3498 118.698 32.5004 118.821C32.6932 118.977 33.1608 119.14 33.903 119.31C34.6453 119.48 35.1948 119.656 35.5503 119.838C35.9058 120.02 36.1841 120.268 36.3854 120.582C36.5866 120.897 36.6866 121.286 36.6866 121.749C36.6866 122.168 36.5661 122.562 36.3251 122.929C36.0841 123.295 35.7443 123.567 35.3045 123.746C34.8646 123.924 34.3164 124.013 33.6596 124.013C32.7041 124.013 31.9702 123.799 31.4569 123.371C30.9483 122.942 30.6423 122.318 30.5435 121.498Z" fill="white"/>
<path d="M37.665 120.264C37.665 119.518 37.7807 118.892 38.0109 118.386C38.1832 118.012 38.417 117.678 38.7146 117.382C39.0122 117.085 39.3376 116.866 39.6919 116.723C40.163 116.53 40.7065 116.434 41.3211 116.434C42.4357 116.434 43.3262 116.769 43.995 117.437C44.6638 118.107 44.9976 119.038 44.9976 120.231C44.9976 121.413 44.6662 122.338 44.0022 123.006C43.3383 123.673 42.4514 124.007 41.3415 124.007C40.2173 124.007 39.3231 123.674 38.6592 123.011C37.9976 122.345 37.665 121.43 37.665 120.264ZM39.2388 120.214C39.2388 121.043 39.4364 121.672 39.8317 122.1C40.2269 122.527 40.7294 122.742 41.3379 122.742C41.9465 122.742 42.4453 122.53 42.8358 122.104C43.2262 121.68 43.4214 121.043 43.4214 120.193C43.4214 119.353 43.231 118.728 42.8514 118.315C42.4719 117.901 41.967 117.695 41.3379 117.695C40.7089 117.695 40.2016 117.905 39.816 118.322C39.4304 118.741 39.2388 119.371 39.2388 120.214Z" fill="white"/>
<path d="M46.2017 123.882V116.556H51.3844V117.795H47.7284V119.529H50.8844V120.768H47.7284V123.881H46.2017V123.882Z" fill="white"/>
<path d="M54.3448 123.882V117.795H52.1011V116.556H58.1093V117.795H55.8704V123.882H54.3448Z" fill="white"/>
<path d="M60.1674 123.882L58.3623 116.556H59.9252L61.0652 121.589L62.4473 116.556H64.2633L65.5888 121.673L66.7492 116.556H68.2856L66.4492 123.882H64.8296L63.3234 118.405L61.8219 123.882H60.1674Z" fill="white"/>
<path d="M75.3002 123.882H73.6397L72.9793 122.218H69.9571L69.3329 123.882H67.7134L70.6584 116.556H72.2732L75.3002 123.882ZM72.4889 120.984L71.4465 118.265L70.4259 120.984H72.4889Z" fill="white"/>
<path d="M76.1147 123.882V116.556H79.3285C80.1359 116.556 80.7239 116.623 81.0903 116.754C81.4566 116.885 81.7494 117.119 81.9699 117.457C82.1904 117.793 82.3001 118.178 82.3001 118.611C82.3001 119.161 82.1338 119.615 81.8 119.973C81.4662 120.331 80.9674 120.557 80.3046 120.65C80.6348 120.837 80.9071 121.042 81.1216 121.264C81.3361 121.487 81.6265 121.884 81.9904 122.454L82.9135 123.883H81.0879L79.9841 122.289C79.5924 121.719 79.3237 121.36 79.1791 121.211C79.0345 121.063 78.8815 120.962 78.72 120.907C78.5585 120.851 78.3019 120.825 77.9512 120.825H77.6415V123.883H76.1147V123.882ZM77.6415 119.655H78.7706C79.5033 119.655 79.96 119.624 80.1419 119.564C80.3239 119.504 80.4673 119.402 80.5697 119.254C80.6733 119.107 80.7239 118.924 80.7239 118.705C80.7239 118.459 80.6565 118.259 80.5203 118.107C80.3841 117.955 80.1925 117.86 79.9455 117.821C79.8214 117.804 79.4502 117.795 78.8309 117.795H77.6391V119.655H77.6415Z" fill="white"/>
<path d="M83.7378 123.882V116.556H89.3435V117.795H85.2633V119.42H89.0592V120.654H85.2633V122.647H89.4869V123.881H83.7378V123.882Z" fill="white"/>
<path d="M91.8549 123.882L90.0498 116.556H91.6127L92.7526 121.589L94.1348 116.556H95.9507L97.2763 121.673L98.4367 116.556H99.9731L98.1366 123.882H96.5171L95.0108 118.405L93.5094 123.882H91.8549Z" fill="white"/>
<path d="M100.443 120.264C100.443 119.518 100.559 118.892 100.789 118.386C100.961 118.012 101.195 117.678 101.492 117.382C101.79 117.085 102.115 116.866 102.47 116.723C102.941 116.53 103.484 116.434 104.099 116.434C105.214 116.434 106.104 116.769 106.773 117.437C107.442 118.107 107.775 119.038 107.775 120.231C107.775 121.413 107.444 122.338 106.78 123.006C106.116 123.673 105.229 124.007 104.119 124.007C102.995 124.007 102.101 123.674 101.437 123.011C100.774 122.345 100.443 121.43 100.443 120.264ZM102.015 120.214C102.015 121.043 102.213 121.672 102.608 122.1C103.004 122.527 103.506 122.742 104.115 122.742C104.723 122.742 105.222 122.53 105.612 122.104C106.003 121.68 106.198 121.043 106.198 120.193C106.198 119.353 106.008 118.728 105.628 118.315C105.248 117.901 104.744 117.695 104.115 117.695C103.486 117.695 102.978 117.905 102.593 118.322C102.208 118.741 102.015 119.371 102.015 120.214Z" fill="white"/>
<path d="M108.973 123.882V116.556H112.187C112.994 116.556 113.582 116.623 113.949 116.754C114.315 116.885 114.608 117.119 114.828 117.457C115.049 117.793 115.159 118.178 115.159 118.611C115.159 119.161 114.992 119.615 114.658 119.973C114.325 120.331 113.826 120.557 113.163 120.65C113.493 120.837 113.765 121.042 113.98 121.264C114.194 121.487 114.485 121.884 114.849 122.454L115.772 123.883H113.945L112.841 122.289C112.45 121.719 112.181 121.36 112.036 121.211C111.892 121.063 111.739 120.962 111.577 120.907C111.416 120.851 111.159 120.825 110.808 120.825H110.499V123.883H108.973V123.882ZM110.5 119.655H111.629C112.362 119.655 112.818 119.624 113 119.564C113.182 119.504 113.326 119.402 113.428 119.254C113.532 119.107 113.582 118.924 113.582 118.705C113.582 118.459 113.515 118.259 113.379 118.107C113.243 117.955 113.051 117.86 112.804 117.821C112.68 117.804 112.309 117.795 111.689 117.795H110.497V119.655H110.5Z" fill="white"/>
<path d="M116.637 123.882V116.617H118.164V122.648H121.96V123.882H116.637Z" fill="white"/>
<path d="M123.043 116.556H125.834C126.463 116.556 126.942 116.603 127.273 116.696C127.716 116.823 128.096 117.048 128.413 117.371C128.729 117.694 128.969 118.089 129.134 118.558C129.299 119.026 129.381 119.603 129.381 120.29C129.381 120.892 129.304 121.413 129.149 121.849C128.96 122.382 128.69 122.813 128.339 123.143C128.074 123.393 127.716 123.588 127.267 123.728C126.929 123.831 126.48 123.883 125.916 123.883H123.043V116.556ZM124.57 117.795V122.647H125.71C126.136 122.647 126.444 122.624 126.633 122.577C126.88 122.516 127.086 122.415 127.25 122.272C127.412 122.128 127.546 121.893 127.65 121.565C127.753 121.237 127.804 120.79 127.804 120.223C127.804 119.657 127.752 119.222 127.65 118.919C127.546 118.617 127.403 118.38 127.217 118.21C127.032 118.04 126.795 117.925 126.511 117.865C126.298 117.818 125.88 117.795 125.258 117.795H124.57Z" fill="white"/>
<path d="M86.3876 53.469H85.9502C85.9502 52.6508 85.2874 51.9881 84.4692 51.9881H75.5316C74.7134 51.9881 74.0507 52.6508 74.0507 53.469H73.6132C72.9589 53.469 72.4287 53.9992 72.4287 54.6536C72.4287 55.3079 72.9589 55.8381 73.6132 55.8381H86.3888C87.0432 55.8381 87.5734 55.3079 87.5734 54.6536C87.5721 54.0004 87.0419 53.469 86.3876 53.469Z" fill="#3BB6FF"/>
<path d="M82.1559 45.7148L80.0279 45.5569V45.5545L80.0146 45.5557L80.0014 45.5545V45.5569L77.8733 45.7148C78.0167 49.2623 77.5938 50.5312 76.2622 51.9881H80.0002H80.0279H83.767C82.4343 50.5312 82.0113 49.2623 82.1559 45.7148Z" fill="white"/>
<path d="M77.5779 45.1195H73.0868C70.343 45.1195 69.2344 39.1715 69.2344 36.6916C69.2344 35.7794 69.3452 35.0275 69.5645 34.4563C70.0682 33.1464 71.0467 33.0054 71.4444 33.0054H74.9992V35.2444H71.6553C71.4649 35.7107 71.3287 37.1965 71.7649 39.3438C72.1939 41.4526 72.8699 42.6468 73.1772 42.8806H77.5779V45.1195Z" fill="white"/>
<path d="M86.913 45.1195H82.4219V42.8806H86.8226C87.1287 42.6468 87.8059 41.4526 88.2349 39.3438C88.6711 37.1977 88.5349 35.7119 88.3445 35.2456H85.0018V33.0066H88.5554C89.3809 33.0066 90.7654 33.485 90.7654 36.6928C90.7666 39.1727 89.658 45.1195 86.913 45.1195Z" fill="white"/>
<path d="M84.5307 32.1499C82.264 32.1499 79.9998 32.1499 79.9998 32.1499C79.9998 32.1499 77.7356 32.1499 75.469 32.1499C73.2023 32.1499 72.5323 34.3647 72.7384 36.3228C72.9444 38.2798 75.7208 48.0163 79.9986 48.0163C84.2764 48.0163 87.0528 38.281 87.2588 36.3228C87.4661 34.3647 86.7973 32.1499 84.5307 32.1499Z" fill="#3BB6FF"/>
<path d="M61.9979 42.6118L62.8896 40.5067C62.9486 40.3669 63.0908 40.2813 63.2414 40.2946L65.5201 40.4922C65.8575 40.5211 66.0347 40.1018 65.7792 39.8801L64.0524 38.381C63.9379 38.2822 63.9006 38.1207 63.9596 37.981L64.8513 35.8758C64.9839 35.5649 64.6393 35.2661 64.3501 35.4408L62.3907 36.6205C62.2606 36.6988 62.0955 36.6844 61.9822 36.5855L60.2554 35.0865C60 34.8648 59.6095 35.0998 59.6866 35.4287L60.2024 37.6568C60.2361 37.8038 60.1723 37.9569 60.0421 38.0352L58.0828 39.2149C57.7924 39.3896 57.896 39.8331 58.2322 39.862L60.5109 40.0596C60.6615 40.0729 60.7868 40.1813 60.8206 40.3283L61.3363 42.5564C61.4122 42.8842 61.8665 42.9239 61.9979 42.6118Z" fill="#3BB6FF"/>
<path d="M47.004 53.6281L47.5752 51.4133C47.6126 51.2663 47.7403 51.1614 47.8921 51.1518L50.1744 51.0108C50.5118 50.9903 50.6263 50.5493 50.3407 50.3673L48.4115 49.1394C48.2838 49.0587 48.2235 48.9044 48.2609 48.7574L48.832 46.5426C48.9164 46.2148 48.5332 45.9702 48.2717 46.1859L46.5076 47.6416C46.3907 47.738 46.2256 47.7476 46.0979 47.6669L44.1686 46.439C43.883 46.257 43.5324 46.5474 43.6565 46.8619L44.4952 48.9888C44.5506 49.1298 44.5096 49.29 44.3928 49.3864L42.6286 50.8421C42.3671 51.0578 42.5346 51.4808 42.872 51.4603L45.1543 51.3193C45.305 51.3096 45.4447 51.3988 45.5002 51.5398L46.3389 53.6667C46.4654 53.9836 46.9197 53.9559 47.004 53.6281Z" fill="#3BB6FF"/>
<path d="M53.8653 47.7657L54.6703 45.2219C54.7233 45.0532 54.8788 44.9387 55.0559 44.9375L57.7238 44.917C58.1179 44.9134 58.2781 44.4073 57.9576 44.1784L55.7874 42.6275C55.644 42.5251 55.5825 42.3419 55.6355 42.1732L56.4405 39.6294C56.5598 39.2534 56.1272 38.945 55.8102 39.1787L53.6641 40.7633C53.5219 40.8682 53.3291 40.8694 53.1857 40.7669L51.0155 39.2161C50.6949 38.9871 50.2672 39.3016 50.3925 39.6764L51.236 42.2069C51.2914 42.3744 51.2336 42.5588 51.0914 42.6636L48.9453 44.2482C48.6283 44.4832 48.7958 44.9857 49.1899 44.9833L51.8578 44.9628C52.0337 44.9616 52.1916 45.0737 52.247 45.2412L53.0905 47.7717C53.2158 48.1453 53.7473 48.1417 53.8653 47.7657Z" fill="#3BB6FF"/>
<path d="M98.0546 42.6118L97.1628 40.5067C97.1038 40.3669 96.9616 40.2813 96.811 40.2946L94.5323 40.4922C94.1949 40.5211 94.0178 40.1018 94.2732 39.8801L96 38.381C96.1145 38.2822 96.1518 38.1207 96.0928 37.981L95.2011 35.8758C95.0685 35.5649 95.4132 35.2661 95.7024 35.4408L97.6617 36.6205C97.7919 36.6988 97.957 36.6844 98.0702 36.5855L99.797 35.0865C100.052 34.8648 100.443 35.0998 100.366 35.4287L99.85 37.6568C99.8163 37.8038 99.8802 37.9569 100.01 38.0352L101.97 39.2149C102.26 39.3896 102.156 39.8331 101.82 39.862L99.5416 40.0596C99.3909 40.0729 99.2656 40.1813 99.2319 40.3283L98.7161 42.5564C98.639 42.8842 98.1859 42.9239 98.0546 42.6118Z" fill="#3BB6FF"/>
<path d="M113.049 53.6281L112.477 51.4133C112.44 51.2663 112.312 51.1614 112.16 51.1518L109.878 51.0108C109.541 50.9903 109.426 50.5493 109.712 50.3673L111.641 49.1394C111.769 49.0587 111.829 48.9044 111.792 48.7574L111.221 46.5426C111.136 46.2148 111.519 45.9702 111.781 46.1859L113.545 47.6416C113.662 47.738 113.827 47.7476 113.955 47.6669L115.884 46.439C116.17 46.257 116.52 46.5474 116.396 46.8619L115.557 48.9888C115.502 49.1298 115.543 49.29 115.66 49.3864L117.424 50.8421C117.685 51.0578 117.518 51.4808 117.181 51.4603L114.898 51.3193C114.748 51.3096 114.608 51.3988 114.552 51.5398L113.714 53.6667C113.587 53.9836 113.133 53.9559 113.049 53.6281Z" fill="#3BB6FF"/>
<path d="M106.186 47.7657L105.381 45.2219C105.328 45.0532 105.173 44.9387 104.995 44.9375L102.327 44.917C101.933 44.9134 101.773 44.4073 102.094 44.1784L104.264 42.6275C104.407 42.5251 104.469 42.3419 104.416 42.1732L103.611 39.6294C103.492 39.2534 103.924 38.945 104.241 39.1787L106.387 40.7633C106.529 40.8682 106.722 40.8694 106.866 40.7669L109.036 39.2161C109.356 38.9871 109.784 39.3016 109.659 39.6764L108.815 42.2069C108.76 42.3744 108.818 42.5588 108.96 42.6636L111.106 44.2482C111.423 44.4832 111.255 44.9857 110.861 44.9833L108.193 44.9628C108.018 44.9616 107.86 45.0737 107.804 45.2412L106.961 47.7717C106.837 48.1453 106.305 48.1417 106.186 47.7657Z" fill="#3BB6FF"/>
</g>
<defs>
<clipPath id="clip0">
<rect width="126.286" height="126.286" fill="white" transform="translate(16.8569 16.5714)"/>
</clipPath>
</defs>
</svg>
