<svg width="160" height="160" viewBox="0 0 160 160" fill="none" xmlns="http://www.w3.org/2000/svg">
<g clip-path="url(#clip0)">
<path d="M80.0009 144.859C115.821 144.859 144.859 115.821 144.859 80.0009C144.859 44.1808 115.821 15.1429 80.0009 15.1429C44.1808 15.1429 15.1428 44.1808 15.1428 80.0009C15.1428 115.821 44.1808 144.859 80.0009 144.859Z" fill="url(#paint0_linear)"/>
<path d="M33.238 91.8444V59.1377H47.4183C49.9114 59.1377 52.0054 59.4738 53.7022 60.1443C55.399 60.8147 56.6824 61.762 57.5506 62.9861C58.4188 64.2101 58.852 65.6535 58.852 67.3126C58.8645 68.4558 58.5931 69.5846 58.0629 70.5965C57.5326 71.5888 56.7741 72.439 55.8502 73.0789C54.8526 73.7673 53.7202 74.2382 52.5285 74.4611V74.7793C53.873 74.817 55.1887 75.1801 56.3607 75.8416C57.4967 76.4851 58.4439 77.4143 59.1072 78.5396C59.7884 79.6828 60.13 81.0273 60.13 82.5713C60.1569 84.2681 59.6698 85.9325 58.7333 87.3472C57.8022 88.742 56.4793 89.8366 54.7645 90.6311C53.0497 91.4256 51.006 91.8264 48.6316 91.8282L33.238 91.8444ZM42.1175 72.3635H45.7592C46.4638 72.376 47.163 72.252 47.8191 71.995C48.3763 71.7811 48.8616 71.4126 49.2193 70.9327C49.5662 70.4348 49.7424 69.838 49.7226 69.2323C49.7226 68.2221 49.3595 67.4456 48.6352 66.9063C47.9108 66.3671 46.9959 66.0975 45.8886 66.0993H42.1175V72.3635ZM42.1175 84.7552H46.2697C47.7598 84.7552 48.8778 84.4748 49.6238 83.9158C50.3697 83.3568 50.7418 82.5281 50.74 81.4317C50.7616 80.7451 50.5782 80.0674 50.2133 79.485C49.8484 78.9404 49.3272 78.518 48.7196 78.2717C47.9809 77.9787 47.1882 77.8385 46.3937 77.8619H42.1175V84.7552Z" fill="white"/>
<path d="M86.0314 81.624V79.5821C86.0314 77.6336 85.7438 75.8829 85.1686 74.3281C84.6383 72.8452 83.7971 71.4935 82.7061 70.3593C81.6222 69.2556 80.3082 68.4018 78.8577 67.8608C77.3568 67.2856 75.6798 66.998 73.8284 66.998C71.2939 66.998 69.0956 67.5247 67.2317 68.578C65.3947 69.6061 63.892 71.1412 62.9034 73.0016C61.8806 74.8961 61.3701 77.1106 61.3701 79.645C61.3701 82.2855 61.8788 84.5521 62.8944 86.4412C63.8758 88.2962 65.3964 89.8097 67.255 90.7839C69.1442 91.7869 71.3982 92.2884 74.0189 92.2884C76.2855 92.2884 78.2681 91.9451 79.9667 91.2584C81.6653 90.5718 83.0296 89.6048 84.0614 88.3573C85.1075 87.0847 85.7869 85.5533 86.0314 83.9248H77.9769C77.8116 84.3759 77.5365 84.7786 77.1789 85.0967C76.8014 85.4311 76.3574 85.6845 75.8775 85.8391C75.3382 86.0134 74.7756 86.1015 74.2094 86.0943C73.4311 86.1159 72.66 85.9343 71.9734 85.5677C71.3694 85.2297 70.8751 84.7246 70.5516 84.1135C70.2137 83.4628 70.0447 82.7384 70.0573 82.0051V81.6222L86.0314 81.624ZM70.6235 74.9033C70.983 74.3676 71.4755 73.9362 72.0525 73.6504C72.6618 73.3431 73.3359 73.1867 74.0171 73.1939C74.7019 73.1831 75.3796 73.3395 75.9889 73.6504C76.5551 73.9416 77.035 74.3766 77.3784 74.9123C77.7307 75.4695 77.9158 76.113 77.914 76.7726H70.0573C70.0627 76.1058 70.2586 75.4569 70.6235 74.9033Z" fill="white"/>
<path d="M109.675 79.3988C108.444 78.3185 106.575 77.5474 104.064 77.0908L99.0811 76.1975C98.1446 76.0285 97.5155 75.7876 97.1902 75.4785C96.8648 75.1693 96.7085 74.8332 96.7174 74.4719C96.7085 73.9596 96.9727 73.5678 97.5173 73.2892C98.6407 72.7787 99.9205 72.7373 101.076 73.1705C101.535 73.3503 101.943 73.6361 102.266 74.0081C102.575 74.373 102.759 74.826 102.793 75.3023H110.896C110.79 72.705 109.711 70.672 107.662 69.2017C105.613 67.7314 102.814 66.998 99.2699 66.998C96.9403 66.998 94.9254 67.309 93.2268 67.9309C91.5282 68.5528 90.2232 69.4588 89.3137 70.6469C88.4006 71.8332 87.9512 73.2784 87.9638 74.9824C87.953 76.9093 88.5713 78.4856 89.817 79.7097C91.0626 80.9338 92.9374 81.7642 95.4376 82.201L99.7821 82.9667C100.74 83.1357 101.445 83.3604 101.898 83.6372C102.351 83.914 102.583 84.2879 102.593 84.7552C102.583 85.2657 102.313 85.6593 101.786 85.9361C101.26 86.213 100.591 86.3496 99.7821 86.346C98.7791 86.346 97.9505 86.1357 97.298 85.7151C96.6617 85.3214 96.2357 84.6617 96.1405 83.9194H87.3904C87.6348 86.4322 88.814 88.4544 90.9278 89.9876C93.0416 91.5209 95.9715 92.2884 99.7156 92.292C101.984 92.292 104.004 91.9433 105.777 91.2459C107.549 90.5484 108.951 89.558 109.979 88.2746C111.007 86.993 111.525 85.4796 111.536 83.7324C111.525 81.9224 110.905 80.479 109.675 79.3988Z" fill="white"/>
<path d="M127.594 85.2351C127.424 85.2783 127.161 85.3304 126.804 85.3933C126.496 85.4526 126.183 85.485 125.871 85.4886C125.549 85.4993 125.227 85.4436 124.927 85.3214C124.69 85.2207 124.496 85.0392 124.379 84.8091C124.253 84.5431 124.192 84.2501 124.203 83.9553V73.7044H128.419V67.3162H124.213V61.4402H115.395V67.3162H112.266V73.7044H115.395V84.7893C115.373 86.5023 115.708 87.9295 116.402 89.0691C117.094 90.2087 118.127 91.0409 119.5 91.5676C120.868 92.0943 122.567 92.3046 124.594 92.1985C125.47 92.1626 126.34 92.0511 127.195 91.8624C127.925 91.6934 128.486 91.5496 128.88 91.431L127.594 85.2351Z" fill="white"/>
<path d="M56.1609 112.995V105.552H61.6791V106.81H57.6636V108.46H61.4005V109.715H57.6636V111.741H61.8211V112.995H56.1609Z" fill="white"/>
<path d="M62.9789 107.605H64.2946V108.342C64.7655 107.77 65.3245 107.484 65.9752 107.484C66.3203 107.484 66.6205 107.556 66.874 107.698C67.1274 107.84 67.3359 108.056 67.4977 108.343C67.7349 108.056 67.9902 107.84 68.2652 107.698C68.5384 107.556 68.8314 107.484 69.1442 107.484C69.5396 107.484 69.8757 107.565 70.1489 107.725C70.4222 107.887 70.6271 108.122 70.7637 108.433C70.8625 108.663 70.9111 109.035 70.9111 109.549V112.997H69.4839V109.914C69.4839 109.381 69.4354 109.034 69.3365 108.879C69.2053 108.676 69.0022 108.573 68.7272 108.573C68.5276 108.573 68.3389 108.635 68.1627 108.757C67.9866 108.879 67.859 109.057 67.7817 109.292C67.7044 109.528 67.6649 109.898 67.6649 110.407V112.997H66.2377V110.042C66.2377 109.517 66.2125 109.179 66.1622 109.026C66.1118 108.874 66.0327 108.76 65.9267 108.687C65.8206 108.613 65.6751 108.575 65.4935 108.575C65.2742 108.575 65.0747 108.635 64.8985 108.753C64.7224 108.872 64.5966 109.043 64.5193 109.265C64.4438 109.488 64.4042 109.86 64.4042 110.378V112.997H62.9771V107.605H62.9789Z" fill="white"/>
<path d="M72.2896 107.605H73.6198V108.397C73.7923 108.126 74.026 107.907 74.3208 107.738C74.6156 107.569 74.9427 107.484 75.3004 107.484C75.9259 107.484 76.458 107.729 76.8947 108.219C77.3315 108.71 77.549 109.393 77.549 110.27C77.549 111.171 77.3297 111.87 76.8894 112.37C76.449 112.869 75.9151 113.119 75.2896 113.119C74.9912 113.119 74.7216 113.06 74.4789 112.941C74.2363 112.823 73.9828 112.62 73.715 112.332V115.048H72.2878V107.605H72.2896ZM73.7024 110.209C73.7024 110.815 73.8229 111.262 74.0619 111.552C74.3028 111.841 74.594 111.987 74.9409 111.987C75.2716 111.987 75.5484 111.854 75.7677 111.588C75.987 111.322 76.0985 110.887 76.0985 110.281C76.0985 109.717 75.9852 109.296 75.7588 109.023C75.5323 108.748 75.2501 108.611 74.9157 108.611C74.567 108.611 74.2776 108.746 74.0476 109.014C73.8175 109.282 73.7024 109.681 73.7024 110.209Z" fill="white"/>
<path d="M78.6833 112.995V105.552H80.1105V112.995H78.6833Z" fill="white"/>
<path d="M81.241 110.224C81.241 109.749 81.3578 109.291 81.5915 108.847C81.8251 108.403 82.1559 108.065 82.5837 107.831C83.0115 107.597 83.4896 107.481 84.0181 107.481C84.8341 107.481 85.5028 107.745 86.024 108.275C86.5453 108.805 86.8059 109.474 86.8059 110.283C86.8059 111.099 86.5435 111.775 86.0168 112.31C85.4902 112.846 84.8287 113.116 84.0288 113.116C83.5345 113.116 83.0636 113.004 82.6142 112.781C82.1649 112.558 81.8251 112.23 81.5915 111.798C81.3578 111.369 81.241 110.844 81.241 110.224ZM82.7041 110.299C82.7041 110.835 82.8317 111.243 83.0852 111.527C83.3386 111.811 83.6514 111.953 84.0252 111.953C84.3973 111.953 84.7101 111.811 84.9617 111.527C85.2134 111.243 85.3392 110.829 85.3392 110.288C85.3392 109.76 85.2134 109.354 84.9617 109.07C84.7101 108.786 84.3973 108.644 84.0252 108.644C83.6532 108.644 83.3404 108.786 83.0852 109.07C82.8299 109.354 82.7041 109.765 82.7041 110.299Z" fill="white"/>
<path d="M87.2483 107.605H88.7653L90.0559 111.433L91.3159 107.605H92.7934L90.8899 112.794L90.5502 113.734C90.4244 114.049 90.3058 114.289 90.1925 114.455C90.0793 114.62 89.9481 114.755 89.8007 114.859C89.6533 114.962 89.4717 115.043 89.2578 115.1C89.0422 115.158 88.7995 115.186 88.5299 115.186C88.2549 115.186 87.987 115.158 87.7228 115.1L87.5952 113.984C87.8181 114.029 88.0194 114.05 88.1991 114.05C88.5317 114.05 88.7761 113.953 88.9361 113.759C89.0961 113.565 89.2165 113.317 89.301 113.015L87.2483 107.605Z" fill="white"/>
<path d="M96.8287 111.279L98.2505 111.518C98.0671 112.039 97.7795 112.436 97.3841 112.708C96.9904 112.981 96.4961 113.116 95.9048 113.116C94.9665 113.116 94.2727 112.81 93.8233 112.197C93.4674 111.706 93.2913 111.086 93.2913 110.339C93.2913 109.445 93.5249 108.746 93.9923 108.239C94.4596 107.734 95.051 107.481 95.7646 107.481C96.5662 107.481 97.199 107.745 97.6627 108.275C98.1264 108.805 98.3475 109.616 98.3278 110.709H94.7544C94.7652 111.133 94.8802 111.462 95.0995 111.696C95.3188 111.931 95.5938 112.048 95.9228 112.048C96.1456 112.048 96.3344 111.987 96.4854 111.865C96.6345 111.746 96.7496 111.55 96.8287 111.279ZM96.9096 109.837C96.8988 109.424 96.7927 109.111 96.5896 108.895C96.3865 108.68 96.1384 108.573 95.8491 108.573C95.5381 108.573 95.2811 108.687 95.0779 108.913C94.8748 109.14 94.7742 109.449 94.7778 109.837H96.9096Z" fill="white"/>
<path d="M102.611 111.279L104.033 111.518C103.85 112.039 103.562 112.436 103.167 112.708C102.771 112.979 102.279 113.116 101.687 113.116C100.749 113.116 100.055 112.81 99.6059 112.197C99.25 111.706 99.072 111.086 99.072 110.339C99.072 109.445 99.3057 108.746 99.773 108.239C100.24 107.732 100.83 107.481 101.545 107.481C102.347 107.481 102.98 107.745 103.443 108.275C103.907 108.805 104.128 109.616 104.109 110.709H100.535C100.546 111.133 100.661 111.462 100.88 111.696C101.1 111.931 101.375 112.048 101.704 112.048C101.926 112.048 102.115 111.987 102.268 111.865C102.419 111.746 102.532 111.55 102.611 111.279ZM102.692 109.837C102.681 109.424 102.575 109.111 102.372 108.895C102.169 108.68 101.923 108.573 101.632 108.573C101.321 108.573 101.064 108.687 100.861 108.913C100.657 109.14 100.557 109.449 100.56 109.837H102.692Z" fill="white"/>
<path d="M53.8477 124.024V116.581H56.0963L57.4462 121.659L58.7817 116.581H61.0357V124.024H59.6391V118.165L58.1616 124.024H56.7146L55.2425 118.165V124.024H53.8477Z" fill="white"/>
<path d="M62.1897 121.251C62.1897 120.776 62.3065 120.318 62.5402 119.874C62.7739 119.43 63.1046 119.092 63.5324 118.859C63.9602 118.625 64.4383 118.508 64.9668 118.508C65.7828 118.508 66.4515 118.772 66.9728 119.303C67.494 119.833 67.7547 120.501 67.7547 121.31C67.7547 122.126 67.4922 122.802 66.9656 123.338C66.4389 123.874 65.7774 124.143 64.9776 124.143C64.4833 124.143 64.0123 124.032 63.563 123.809C63.1136 123.586 62.7739 123.257 62.5402 122.826C62.3065 122.396 62.1897 121.871 62.1897 121.251ZM63.651 121.328C63.651 121.864 63.7787 122.272 64.0321 122.556C64.2855 122.84 64.5983 122.982 64.9722 122.982C65.3443 122.982 65.657 122.84 65.9087 122.556C66.1603 122.272 66.2861 121.859 66.2861 121.318C66.2861 120.789 66.1603 120.383 65.9087 120.099C65.657 119.815 65.3443 119.673 64.9722 119.673C64.6001 119.673 64.2873 119.815 64.0321 120.099C63.7769 120.383 63.651 120.793 63.651 121.328Z" fill="white"/>
<path d="M73.7762 124.025H72.349V121.273C72.349 120.69 72.3184 120.315 72.2573 120.142C72.1962 119.971 72.0973 119.838 71.9607 119.743C71.8241 119.648 71.6588 119.601 71.4664 119.601C71.2184 119.601 70.9973 119.669 70.8014 119.804C70.6054 119.939 70.4706 120.119 70.3969 120.341C70.325 120.564 70.2873 120.978 70.2873 121.58V124.023H68.8601V118.63H70.1848V119.423C70.6558 118.814 71.2471 118.51 71.9607 118.51C72.2753 118.51 72.5629 118.566 72.8235 118.679C73.0842 118.792 73.2819 118.938 73.4149 119.114C73.5479 119.29 73.6414 119.489 73.6935 119.712C73.7456 119.935 73.7726 120.255 73.7726 120.672V124.025H73.7762Z" fill="white"/>
<path d="M75.2231 117.901V116.581H76.6503V117.901H75.2231ZM75.2231 124.024V118.632H76.6503V124.024H75.2231Z" fill="white"/>
<path d="M80.5833 118.632V119.77H79.6091V121.943C79.6091 122.383 79.6181 122.639 79.6378 122.712C79.6558 122.784 79.6989 122.845 79.7655 122.892C79.832 122.939 79.911 122.964 80.0063 122.964C80.1375 122.964 80.3299 122.919 80.5797 122.827L80.7019 123.935C80.3694 124.077 79.9937 124.149 79.5749 124.149C79.3179 124.149 79.086 124.105 78.8793 124.019C78.6726 123.933 78.5216 123.821 78.4245 123.685C78.3275 123.548 78.261 123.363 78.2232 123.129C78.1927 122.964 78.1765 122.628 78.1765 122.125V119.773H77.5222V118.636H78.1765V117.564L79.6091 116.732V118.636H80.5833V118.632Z" fill="white"/>
<path d="M81.2446 121.251C81.2446 120.776 81.3615 120.318 81.5951 119.874C81.8288 119.43 82.1595 119.092 82.5873 118.859C83.0151 118.625 83.4933 118.508 84.0217 118.508C84.8378 118.508 85.5064 118.772 86.0277 119.303C86.5489 119.833 86.8096 120.501 86.8096 121.31C86.8096 122.126 86.5472 122.802 86.0205 123.338C85.4938 123.874 84.8324 124.143 84.0325 124.143C83.5382 124.143 83.0673 124.032 82.6179 123.809C82.1685 123.586 81.8288 123.257 81.5951 122.826C81.3615 122.396 81.2446 121.871 81.2446 121.251ZM82.706 121.328C82.706 121.864 82.8336 122.272 83.087 122.556C83.3405 122.84 83.6532 122.982 84.0271 122.982C84.3992 122.982 84.7119 122.84 84.9636 122.556C85.2152 122.272 85.3411 121.859 85.3411 121.318C85.3411 120.789 85.2152 120.383 84.9636 120.099C84.7119 119.815 84.3992 119.673 84.0271 119.673C83.655 119.673 83.3423 119.815 83.087 120.099C82.8336 120.383 82.706 120.793 82.706 121.328Z" fill="white"/>
<path d="M89.2919 124.024H87.8647V118.632H89.1895V119.4C89.416 119.037 89.6209 118.799 89.8006 118.684C89.9822 118.569 90.1871 118.512 90.4172 118.512C90.7425 118.512 91.0553 118.602 91.3572 118.781L90.9151 120.025C90.6742 119.869 90.4513 119.791 90.2446 119.791C90.0451 119.791 89.8761 119.847 89.7377 119.957C89.5993 120.066 89.4897 120.266 89.4106 120.554C89.3315 120.841 89.2919 121.443 89.2919 122.362V124.024Z" fill="white"/>
<path d="M91.9719 117.901V116.581H93.3991V117.901H91.9719ZM91.9719 124.024V118.632H93.3991V124.024H91.9719Z" fill="white"/>
<path d="M99.7658 124.025H98.3387V121.273C98.3387 120.69 98.3081 120.315 98.247 120.142C98.1859 119.971 98.087 119.838 97.9504 119.743C97.8138 119.648 97.6484 119.601 97.4561 119.601C97.2098 119.601 96.987 119.669 96.791 119.804C96.5951 119.939 96.4603 120.119 96.3884 120.341C96.3147 120.564 96.2788 120.978 96.2788 121.58V124.023H94.8516V118.63H96.1763V119.423C96.6472 118.814 97.2386 118.51 97.954 118.51C98.2686 118.51 98.5561 118.566 98.8168 118.679C99.0774 118.792 99.2751 118.938 99.4081 119.114C99.5412 119.29 99.6346 119.489 99.6868 119.712C99.7389 119.935 99.7658 120.255 99.7658 120.672V124.025Z" fill="white"/>
<path d="M101.08 124.379L102.71 124.576C102.737 124.765 102.8 124.896 102.899 124.966C103.034 125.067 103.248 125.119 103.539 125.119C103.911 125.119 104.189 125.063 104.376 124.952C104.502 124.878 104.596 124.758 104.66 124.592C104.705 124.474 104.727 124.256 104.727 123.938V123.151C104.301 123.733 103.762 124.024 103.113 124.024C102.388 124.024 101.815 123.719 101.391 123.106C101.058 122.622 100.893 122.02 100.893 121.298C100.893 120.394 101.11 119.703 101.545 119.227C101.98 118.749 102.521 118.512 103.167 118.512C103.833 118.512 104.384 118.805 104.817 119.391V118.634H106.152V123.473C106.152 124.109 106.1 124.585 105.994 124.9C105.89 125.214 105.742 125.462 105.552 125.64C105.361 125.82 105.11 125.96 104.793 126.063C104.477 126.163 104.076 126.216 103.593 126.216C102.678 126.216 102.031 126.059 101.648 125.746C101.265 125.434 101.074 125.036 101.074 124.557C101.074 124.504 101.076 124.447 101.08 124.379ZM102.354 121.217C102.354 121.788 102.466 122.207 102.687 122.473C102.908 122.739 103.181 122.872 103.506 122.872C103.855 122.872 104.15 122.736 104.391 122.464C104.632 122.193 104.75 121.788 104.75 121.253C104.75 120.694 104.635 120.28 104.405 120.009C104.175 119.738 103.884 119.603 103.532 119.603C103.19 119.603 102.908 119.736 102.687 120.002C102.466 120.266 102.354 120.67 102.354 121.217Z" fill="white"/>
<path d="M58.3845 132.631L59.8477 132.489C59.9357 132.979 60.1137 133.339 60.3833 133.571C60.6529 133.801 61.016 133.916 61.4726 133.916C61.9561 133.916 62.321 133.814 62.5672 133.609C62.8117 133.404 62.9357 133.165 62.9357 132.89C62.9357 132.713 62.8836 132.564 62.7811 132.44C62.6769 132.316 62.4971 132.21 62.2401 132.118C62.0639 132.057 61.6631 131.95 61.0376 131.793C60.2323 131.594 59.6661 131.347 59.3426 131.056C58.886 130.646 58.6577 130.147 58.6577 129.559C58.6577 129.18 58.7656 128.826 58.9795 128.495C59.1934 128.164 59.5043 127.914 59.9088 127.742C60.3132 127.569 60.8021 127.483 61.3737 127.483C62.3084 127.483 63.0112 127.688 63.4839 128.098C63.9567 128.507 64.2047 129.054 64.2281 129.737L62.7254 129.803C62.6607 129.42 62.5223 129.145 62.312 128.978C62.0999 128.811 61.7835 128.727 61.3593 128.727C60.9225 128.727 60.581 128.817 60.333 128.996C60.173 129.111 60.0939 129.266 60.0939 129.458C60.0939 129.634 60.1676 129.785 60.3168 129.909C60.5055 130.068 60.9657 130.235 61.6973 130.407C62.4288 130.58 62.9681 130.758 63.3186 130.943C63.6691 131.128 63.9423 131.38 64.1418 131.7C64.3395 132.02 64.4384 132.415 64.4384 132.886C64.4384 133.312 64.3198 133.711 64.0825 134.085C63.8452 134.457 63.5109 134.734 63.0777 134.915C62.6445 135.097 62.1053 135.187 61.4582 135.187C60.5163 135.187 59.7937 134.969 59.2904 134.534C58.7836 134.096 58.4834 133.463 58.3845 132.631Z" fill="white"/>
<path d="M65.3604 132.28C65.3604 131.806 65.4772 131.347 65.7109 130.903C65.9445 130.459 66.2753 130.122 66.7031 129.888C67.1309 129.654 67.609 129.537 68.1374 129.537C68.9535 129.537 69.6221 129.802 70.1434 130.332C70.6647 130.862 70.9253 131.531 70.9253 132.34C70.9253 133.156 70.6629 133.831 70.1362 134.367C69.6096 134.903 68.9481 135.172 68.1482 135.172C67.6539 135.172 67.183 135.061 66.7336 134.838C66.2842 134.615 65.9445 134.286 65.7109 133.855C65.4772 133.425 65.3604 132.899 65.3604 132.28ZM66.8217 132.356C66.8217 132.891 66.9493 133.299 67.2028 133.583C67.4562 133.867 67.769 134.009 68.1428 134.009C68.5149 134.009 68.8277 133.867 69.0793 133.583C69.331 133.299 69.4568 132.886 69.4568 132.345C69.4568 131.817 69.331 131.41 69.0793 131.126C68.8277 130.842 68.5149 130.7 68.1428 130.7C67.7708 130.7 67.458 130.842 67.2028 131.126C66.9493 131.412 66.8217 131.822 66.8217 132.356Z" fill="white"/>
<path d="M71.418 129.66H72.2107V129.253C72.2107 128.8 72.2592 128.461 72.3562 128.238C72.4533 128.015 72.6295 127.832 72.8883 127.691C73.1471 127.551 73.4743 127.481 73.8715 127.481C74.2777 127.481 74.675 127.542 75.065 127.664L74.8727 128.66C74.6462 128.606 74.4269 128.579 74.2184 128.579C74.0117 128.579 73.8643 128.628 73.7744 128.723C73.6846 128.818 73.6396 129.005 73.6396 129.278V129.66H74.7055V130.781H73.6396V135.05H72.2125V130.781H71.4198V129.66H71.418Z" fill="white"/>
<path d="M77.9768 129.66V130.797H77.0025V132.97C77.0025 133.411 77.0115 133.666 77.0313 133.74C77.0493 133.812 77.0924 133.873 77.1589 133.92C77.2254 133.966 77.3063 133.991 77.3998 133.991C77.5328 133.991 77.7233 133.947 77.9732 133.855L78.0954 134.962C77.7629 135.104 77.3872 135.176 76.9684 135.176C76.7114 135.176 76.4795 135.133 76.2728 135.047C76.0661 134.96 75.9151 134.849 75.818 134.712C75.721 134.576 75.6544 134.39 75.6167 134.157C75.5861 133.991 75.5718 133.655 75.5718 133.152V130.801H74.9175V129.663H75.5718V128.592L77.0025 127.76V129.663H77.9768V129.66Z" fill="white"/>
<path d="M79.9722 135.052L78.2664 129.66H79.6522L80.6624 133.193L81.5917 129.66H82.9685L83.8673 133.193L84.8972 129.66H86.3028L84.5719 135.052H83.2004L82.2711 131.585L81.358 135.052H79.9722Z" fill="white"/>
<path d="M88.1199 131.304L86.8257 131.071C86.9713 130.549 87.2211 130.163 87.577 129.913C87.9329 129.663 88.4596 129.537 89.1606 129.537C89.7969 129.537 90.2714 129.613 90.5824 129.764C90.8934 129.915 91.1127 130.105 91.2403 130.337C91.3679 130.569 91.4308 130.995 91.4308 131.613L91.4164 133.278C91.4164 133.752 91.4398 134.101 91.4847 134.326C91.5297 134.55 91.616 134.791 91.7418 135.05H90.3308C90.293 134.955 90.2481 134.815 90.1942 134.628C90.1708 134.543 90.1528 134.488 90.1438 134.461C89.8994 134.698 89.6387 134.876 89.3619 134.994C89.0851 135.113 88.7885 135.172 88.474 135.172C87.9185 135.172 87.4818 135.021 87.1618 134.721C86.8419 134.419 86.6819 134.04 86.6819 133.58C86.6819 133.274 86.7538 133.003 86.8994 132.766C87.045 132.527 87.2481 132.345 87.5105 132.217C87.773 132.09 88.1504 131.98 88.6447 131.885C89.3116 131.759 89.7735 131.642 90.0306 131.534V131.392C90.0306 131.117 89.9623 130.923 89.8275 130.806C89.6927 130.69 89.4374 130.63 89.0599 130.63C88.8065 130.63 88.6088 130.681 88.465 130.779C88.3212 130.878 88.2097 131.054 88.1199 131.304ZM90.0288 132.462C89.8454 132.523 89.5561 132.595 89.1606 132.679C88.7652 132.764 88.5063 132.846 88.3841 132.927C88.1972 133.059 88.1055 133.228 88.1055 133.431C88.1055 133.63 88.1792 133.803 88.3284 133.948C88.4776 134.094 88.6663 134.166 88.8964 134.166C89.1534 134.166 89.3997 134.081 89.6315 133.912C89.8041 133.785 89.9173 133.627 89.9713 133.44C90.009 133.317 90.027 133.086 90.027 132.744V132.462H90.0288Z" fill="white"/>
<path d="M94.2026 135.052H92.7754V129.66H94.1001V130.427C94.3266 130.064 94.5315 129.827 94.7113 129.712C94.8928 129.597 95.0977 129.539 95.3278 129.539C95.6531 129.539 95.9659 129.629 96.2679 129.809L95.8257 131.053C95.5848 130.896 95.3619 130.819 95.1552 130.819C94.9557 130.819 94.7868 130.875 94.6484 130.984C94.5099 131.094 94.4003 131.293 94.3212 131.581C94.2421 131.869 94.2026 132.471 94.2026 133.389V135.052Z" fill="white"/>
<path d="M100.007 133.335L101.429 133.574C101.245 134.096 100.958 134.493 100.562 134.764C100.169 135.038 99.6742 135.172 99.0828 135.172C98.1446 135.172 97.4507 134.867 97.0014 134.254C96.6455 133.763 96.4675 133.143 96.4675 132.395C96.4675 131.502 96.7012 130.803 97.1685 130.296C97.6359 129.791 98.2254 129.537 98.9408 129.537C99.7425 129.537 100.375 129.802 100.839 130.332C101.303 130.862 101.524 131.673 101.504 132.766H97.9307C97.9414 133.19 98.0565 133.519 98.2758 133.752C98.4951 133.986 98.7701 134.105 99.099 134.105C99.3219 134.105 99.5106 134.044 99.6634 133.921C99.8144 133.803 99.9276 133.607 100.007 133.335ZM100.088 131.894C100.077 131.48 99.9708 131.168 99.7677 130.952C99.5646 130.736 99.3183 130.63 99.0271 130.63C98.7162 130.63 98.4591 130.743 98.256 130.97C98.0529 131.196 97.9522 131.506 97.9558 131.894H100.088Z" fill="white"/>
<path d="M61.9723 41.1037C60.9604 41.1037 60.1551 40.7676 59.5547 40.0971C58.9544 39.4249 58.656 38.4686 58.656 37.2283C58.656 36.628 58.7513 36.087 58.9454 35.6034C59.1377 35.1199 59.393 34.7101 59.7129 34.374C60.0311 34.0378 60.3996 33.779 60.8184 33.5957C61.2354 33.4123 61.6758 33.3207 62.1377 33.3207C62.5997 33.3207 63.0005 33.3961 63.342 33.5489C63.6835 33.7017 64.0286 33.9102 64.3809 34.1744L64.3144 32.9072V30.0547H65.6841V40.9221H64.5625L64.4474 40.0522H64.3971C64.0772 40.338 63.7123 40.5842 63.2989 40.7927C62.889 40.9994 62.4451 41.1037 61.9723 41.1037ZM62.2689 40.0522C62.6428 40.0522 62.9951 39.9677 63.3258 39.8005C63.6566 39.6334 63.9855 39.3763 64.3162 39.0294V35.1523C63.9747 34.8683 63.6476 34.667 63.3348 34.5501C63.0221 34.4333 62.7003 34.374 62.3696 34.374C62.0496 34.374 61.7512 34.4423 61.4708 34.5807C61.1904 34.7173 60.946 34.9114 60.7357 35.1613C60.5272 35.4111 60.3618 35.7077 60.2414 36.0546C60.1209 36.4015 60.0598 36.788 60.0598 37.214C60.0598 38.1091 60.2522 38.8065 60.6368 39.3044C61.0215 39.8023 61.5661 40.0522 62.2689 40.0522Z" fill="white"/>
<path d="M69.0849 31.9779C68.8206 31.9779 68.5977 31.9025 68.4162 31.7497C68.2347 31.5969 68.1448 31.4046 68.1448 31.1691C68.1448 30.9246 68.2364 30.7287 68.4162 30.5813C68.5977 30.4339 68.8206 30.3602 69.0849 30.3602C69.3491 30.3602 69.572 30.4339 69.7535 30.5813C69.9351 30.7287 70.0249 30.9246 70.0249 31.1691C70.0249 31.4028 69.9333 31.5969 69.7535 31.7497C69.572 31.9007 69.3491 31.9779 69.0849 31.9779ZM68.391 40.9221V33.504H69.7445V40.9221H68.391Z" fill="white"/>
<path d="M75.1567 44.3409C74.6624 44.3409 74.2112 44.2978 73.8032 44.2115C73.3951 44.1252 73.0464 43.9958 72.7552 43.8215C72.4641 43.6489 72.2376 43.4404 72.0794 43.1959C71.9194 42.9515 71.8403 42.6675 71.8403 42.3421C71.8403 42.0258 71.9446 41.7256 72.1531 41.4416C72.3616 41.1558 72.6474 40.897 73.0105 40.6633V40.6022C72.8128 40.4908 72.6438 40.3344 72.5072 40.1367C72.3688 39.9389 72.3005 39.6909 72.3005 39.3961C72.3005 39.0815 72.394 38.8065 72.5809 38.5711C72.7678 38.3374 72.9655 38.154 73.1741 38.021V37.9599C72.9098 37.7568 72.6708 37.4836 72.4569 37.1439C72.243 36.8023 72.1351 36.4087 72.1351 35.9611C72.1351 35.5549 72.2142 35.1882 72.3742 34.8629C72.5342 34.5375 72.7516 34.2607 73.0267 34.0307C73.3017 33.8024 73.6234 33.6262 73.9919 33.504C74.3604 33.3818 74.7486 33.3207 75.1549 33.3207C75.3742 33.3207 75.5809 33.3404 75.7732 33.3746C76.1021 33.4321 76.3718 33.5094 76.7636 33.7377L78.2088 32.7634L78.8199 33.5202L77.4323 34.4656C77.6192 34.6382 77.7756 34.8575 77.9032 35.1217C78.029 35.3859 78.0937 35.6771 78.0937 35.9917C78.0937 36.3889 78.0164 36.7466 77.8619 37.0684C77.7073 37.3883 77.4988 37.6579 77.2345 37.8772C76.9703 38.0965 76.6593 38.2655 76.3017 38.3877C75.944 38.5099 75.5611 38.5711 75.1549 38.5711C74.9571 38.5711 74.754 38.5477 74.5437 38.5028C74.3352 38.4578 74.1357 38.3931 73.9488 38.3122C73.805 38.4237 73.6845 38.5495 73.5857 38.6861C73.4868 38.8227 73.4365 38.9935 73.4365 39.1966C73.4365 39.4302 73.5353 39.6244 73.7331 39.7772C73.9308 39.9299 74.3047 40.0054 74.8547 40.0054H76.4059C77.3406 40.0054 78.0416 40.1456 78.5089 40.4242C78.9763 40.7047 79.21 41.154 79.21 41.7759C79.21 42.1211 79.1165 42.45 78.9295 42.761C78.7426 43.0719 78.473 43.3433 78.1207 43.577C77.7684 43.8107 77.3424 43.9958 76.8427 44.1342C76.3466 44.2708 75.784 44.3409 75.1567 44.3409ZM75.3544 43.471C75.739 43.471 76.0895 43.4278 76.4023 43.3415C76.7151 43.2553 76.9829 43.1438 77.2022 43.0054C77.4215 42.8688 77.5922 42.707 77.7145 42.5255C77.8349 42.3421 77.896 42.1534 77.896 41.9611C77.896 41.6142 77.7576 41.3751 77.4826 41.2439C77.2076 41.1109 76.8067 41.0462 76.2783 41.0462H74.8924C74.7379 41.0462 74.5707 41.039 74.3891 41.0228C74.2076 41.0084 74.0279 40.9743 73.8535 40.9239C73.5677 41.1163 73.3592 41.3212 73.2262 41.5351C73.0932 41.749 73.0285 41.9629 73.0285 42.1768C73.0285 42.574 73.2352 42.8886 73.6468 43.1222C74.0584 43.3523 74.6282 43.471 75.3544 43.471ZM75.1567 37.7316C75.3885 37.7316 75.6042 37.6903 75.8091 37.6094C76.0123 37.5285 76.1938 37.4117 76.3538 37.2589C76.5138 37.1061 76.6378 36.921 76.7259 36.7017C76.8139 36.4824 76.8571 36.2361 76.8571 35.9611C76.8571 35.4111 76.6917 34.9869 76.3628 34.6867C76.032 34.3866 75.6312 34.2374 75.1585 34.2374C74.6857 34.2374 74.2849 34.3883 73.9542 34.6867C73.6234 34.9869 73.4599 35.4111 73.4599 35.9611C73.4599 36.2361 73.503 36.4824 73.5911 36.7017C73.6791 36.921 73.8032 37.1061 73.9631 37.2589C74.1231 37.4117 74.3047 37.5285 74.5078 37.6094C74.7073 37.6903 74.9248 37.7316 75.1567 37.7316Z" fill="white"/>
<path d="M81.4606 31.9779C81.1964 31.9779 80.9735 31.9025 80.7919 31.7497C80.6104 31.5969 80.5205 31.4046 80.5205 31.1691C80.5205 30.9246 80.6122 30.7287 80.7919 30.5813C80.9735 30.4339 81.1964 30.3602 81.4606 30.3602C81.7248 30.3602 81.9477 30.4339 82.1293 30.5813C82.3108 30.7287 82.4007 30.9246 82.4007 31.1691C82.4007 31.4028 82.309 31.5969 82.1293 31.7497C81.9459 31.9007 81.723 31.9779 81.4606 31.9779ZM80.7668 40.9221V33.504H82.1203V40.9221H80.7668Z" fill="white"/>
<path d="M87.3508 41.1037C86.9213 41.1037 86.5618 41.0426 86.2706 40.9203C85.9794 40.7981 85.7421 40.6309 85.5606 40.4171C85.379 40.2032 85.2496 39.9443 85.1723 39.6387C85.095 39.3332 85.0573 38.9971 85.0573 38.6322V34.5267H83.8691V33.5813L85.1238 33.5058L85.2891 31.4297H86.4269V33.5058H88.5893V34.5285H86.4269V38.6501C86.4269 39.1085 86.5168 39.4626 86.6984 39.7106C86.8799 39.9605 87.2017 40.0845 87.6636 40.0845C87.8056 40.0845 87.9602 40.0647 88.1256 40.0234C88.2909 39.9821 88.4383 39.9371 88.5713 39.8868L88.8356 40.8323C88.6145 40.9042 88.3754 40.9671 88.1184 41.0228C87.8595 41.0767 87.6025 41.1037 87.3508 41.1037Z" fill="white"/>
<path d="M91.9037 41.1037C91.2333 41.1037 90.6742 40.9203 90.2285 40.5537C89.7827 40.187 89.5598 39.6675 89.5598 38.9971C89.5598 38.1828 89.9499 37.5591 90.7318 37.1277C91.5137 36.6945 92.7611 36.3925 94.4777 36.22C94.4777 35.9863 94.4525 35.7562 94.404 35.5333C94.3537 35.3104 94.2692 35.1109 94.1487 34.9384C94.0283 34.7658 93.8594 34.6256 93.6455 34.5196C93.4316 34.4135 93.1583 34.3596 92.8294 34.3596C92.3675 34.3596 91.9325 34.4405 91.5262 34.604C91.1182 34.7676 90.7551 34.951 90.437 35.1541L89.9085 34.2841C90.2824 34.0612 90.739 33.8437 91.2782 33.6352C91.8174 33.4267 92.4106 33.3224 93.0595 33.3224C94.0391 33.3224 94.7473 33.5993 95.1877 34.1547C95.6281 34.7101 95.8474 35.4489 95.8474 36.3746V40.9221H94.7257L94.6107 40.0378H94.5604C94.1757 40.3326 93.7623 40.5842 93.3219 40.7927C92.8833 40.9994 92.4106 41.1037 91.9037 41.1037ZM92.301 40.0971C92.6856 40.0971 93.0487 40.0126 93.3902 39.8455C93.7317 39.6783 94.0948 39.4302 94.4795 39.1049V37.045C93.809 37.1259 93.2446 37.223 92.7881 37.3344C92.3315 37.4458 91.963 37.5789 91.6826 37.7316C91.4022 37.8844 91.1991 38.0606 91.0715 38.2583C90.9457 38.456 90.8809 38.6735 90.8809 38.9072C90.8809 39.335 91.0176 39.6406 91.2944 39.8221C91.5694 40.0054 91.9037 40.0971 92.301 40.0971Z" fill="white"/>
<path d="M99.809 41.1037C99.2913 41.1037 98.9228 40.9617 98.7035 40.6759C98.4842 40.3919 98.3728 39.9731 98.3728 39.4249V30.0547H99.7263V39.5183C99.7263 39.7214 99.764 39.8652 99.8413 39.9461C99.9186 40.027 100.007 40.0683 100.106 40.0683C100.149 40.0683 100.19 40.0683 100.23 40.0683C100.267 40.0683 100.325 40.0576 100.402 40.0378L100.584 40.9833C100.496 41.0246 100.391 41.0552 100.271 41.0749C100.149 41.0947 99.9959 41.1037 99.809 41.1037Z" fill="white"/>
<path d="M69.8972 53.0407V52.239C70.2855 51.8759 70.6396 51.538 70.9613 51.2234C71.2831 50.9089 71.5599 50.6123 71.7918 50.3355C72.0236 50.0587 72.2052 49.8016 72.3364 49.5626C72.4658 49.3235 72.5323 49.097 72.5323 48.8813C72.5323 48.583 72.4568 48.3547 72.304 48.2001C72.1513 48.0437 71.941 47.9664 71.6749 47.9664C71.452 47.9664 71.2543 48.0293 71.0836 48.1534C70.911 48.2774 70.7492 48.423 70.5964 48.5883L69.8325 47.8352C70.1309 47.5171 70.4365 47.278 70.7474 47.1144C71.0584 46.9509 71.4305 46.8718 71.8637 46.8718C72.162 46.8718 72.4335 46.9185 72.6797 47.0102C72.9242 47.1018 73.1363 47.2331 73.3142 47.402C73.4922 47.571 73.6288 47.7723 73.724 48.0078C73.8193 48.2432 73.8678 48.5075 73.8678 48.8004C73.8678 49.0557 73.8139 49.3145 73.7061 49.5787C73.5982 49.843 73.4526 50.1072 73.2711 50.3714C73.0895 50.6357 72.8828 50.8999 72.6509 51.1641C72.4191 51.4283 72.1782 51.6872 71.9302 51.9424C72.0829 51.9226 72.2537 51.9065 72.4406 51.8903C72.6276 51.8741 72.7947 51.8669 72.9421 51.8669H74.1626V53.0497H69.8972V53.0407Z" fill="white"/>
<path d="M77.1015 53.1539C76.778 53.1539 76.4814 53.0856 76.2135 52.949C75.9457 52.8124 75.7192 52.6111 75.5323 52.3433C75.3454 52.0754 75.198 51.7447 75.0937 51.3511C74.9895 50.9574 74.9355 50.5027 74.9355 49.9868C74.9355 49.4709 74.9877 49.0197 75.0937 48.6315C75.198 48.2432 75.3454 47.9179 75.5323 47.6537C75.7192 47.3894 75.9475 47.1917 76.2135 47.0623C76.4814 46.9329 76.7762 46.8664 77.1015 46.8664C77.4268 46.8664 77.7216 46.9311 77.9894 47.0623C78.2573 47.1935 78.4837 47.3894 78.6707 47.6537C78.8576 47.9179 79.005 48.2432 79.1093 48.6315C79.2135 49.0197 79.2674 49.4709 79.2674 49.9868C79.2674 50.5027 79.2153 50.9574 79.1093 51.3511C79.005 51.7465 78.8576 52.0754 78.6707 52.3433C78.4837 52.6111 78.2555 52.8124 77.9894 52.949C77.7216 53.0856 77.425 53.1539 77.1015 53.1539ZM77.1015 52.0664C77.2219 52.0664 77.3334 52.0359 77.4358 51.9766C77.5383 51.9173 77.6264 51.8058 77.7036 51.6476C77.7791 51.4895 77.8385 51.2756 77.8798 51.0077C77.9211 50.7399 77.9409 50.4002 77.9409 49.9868C77.9409 49.5734 77.9193 49.2354 77.8798 48.9712C77.8385 48.707 77.7791 48.5003 77.7036 48.3511C77.6282 48.2019 77.5383 48.0976 77.4358 48.0401C77.3334 47.9826 77.2219 47.9538 77.1015 47.9538C76.9865 47.9538 76.8786 47.9826 76.778 48.0401C76.6755 48.0976 76.5874 48.2001 76.5101 48.3511C76.4328 48.5021 76.3735 48.707 76.3286 48.9712C76.2836 49.2354 76.2621 49.5734 76.2621 49.9868C76.2621 50.4002 76.2836 50.7399 76.3286 51.0077C76.3735 51.2756 76.4328 51.4877 76.5101 51.6476C76.5856 51.8058 76.6755 51.9173 76.778 51.9766C76.8786 52.0377 76.9865 52.0664 77.1015 52.0664Z" fill="white"/>
<path d="M79.9739 53.0407V52.239C80.3621 51.8759 80.7162 51.538 81.038 51.2234C81.3597 50.9089 81.6365 50.6123 81.8684 50.3355C82.1003 50.0587 82.2818 49.8016 82.413 49.5626C82.5425 49.3235 82.609 49.097 82.609 48.8813C82.609 48.583 82.5335 48.3547 82.3807 48.2001C82.2279 48.0437 82.0176 47.9664 81.7516 47.9664C81.5287 47.9664 81.331 48.0293 81.1602 48.1534C80.9877 48.2774 80.8259 48.423 80.6731 48.5883L79.9092 47.8352C80.2076 47.5171 80.5131 47.278 80.8241 47.1144C81.135 46.9509 81.5071 46.8718 81.9403 46.8718C82.2387 46.8718 82.5101 46.9185 82.7564 47.0102C83.0008 47.1018 83.2129 47.2331 83.3909 47.402C83.5688 47.571 83.7054 47.7723 83.8007 48.0078C83.8959 48.2432 83.9445 48.5075 83.9445 48.8004C83.9445 49.0557 83.8906 49.3145 83.7827 49.5787C83.6749 49.843 83.5293 50.1072 83.3477 50.3714C83.1662 50.6357 82.9595 50.8999 82.7276 51.1641C82.4957 51.4283 82.2549 51.6872 82.0068 51.9424C82.1596 51.9226 82.3304 51.9065 82.5173 51.8903C82.7042 51.8741 82.8714 51.8669 83.0188 51.8669H84.2393V53.0497H79.9739V53.0407Z" fill="white"/>
<path d="M85.325 53.0407V51.9047H86.6407V48.4032H85.5047V47.535C85.8354 47.4721 86.1158 47.3948 86.3441 47.3067C86.5724 47.2169 86.7953 47.109 87.0128 46.9832H88.0427V51.9065H89.1787V53.0425H85.325V53.0407Z" fill="white"/>
</g>
<defs>
<linearGradient id="paint0_linear" x1="80.0001" y1="144.857" x2="80.0001" y2="15.1429" gradientUnits="userSpaceOnUse">
<stop stop-color="#6559C4"/>
<stop offset="1" stop-color="#FF66CC"/>
</linearGradient>
<clipPath id="clip0">
<rect width="129.714" height="129.714" fill="white" transform="translate(15.1428 15.1429)"/>
</clipPath>
</defs>
</svg>
