<svg xmlns="http://www.w3.org/2000/svg" width="85" height="40" fill="none" viewBox="0 0 85 40">
    <rect width="85" height="40" fill="#1DA1F2" rx="3"/>
    <path fill="#fff" d="M38.076 29.283c8.49 0 13.134-7.035 13.134-13.135 0-.2 0-.399-.013-.597.903-.653 1.683-1.462 2.303-2.39-.843.374-1.736.619-2.651.727.963-.577 1.684-1.484 2.03-2.553-.907.537-1.898.916-2.932 1.12-1.431-1.521-3.705-1.894-5.546-.908-1.842.985-2.793 3.084-2.321 5.119-3.712-.187-7.17-1.94-9.514-4.824-1.225 2.11-.6 4.808 1.43 6.163-.735-.022-1.454-.22-2.096-.578v.058c0 2.198 1.55 4.09 3.703 4.526-.68.185-1.392.212-2.084.079.605 1.88 2.338 3.169 4.313 3.206-1.635 1.284-3.654 1.982-5.733 1.98-.367-.001-.734-.023-1.099-.067 2.111 1.355 4.567 2.073 7.076 2.07"/>
</svg>
