<svg xmlns="http://www.w3.org/2000/svg" width="72" height="72" viewBox="0 0 72 72">
    <g fill="none" fill-rule="evenodd">
        <rect width="57" height="49" x="7" y="11" fill="#6B7179" fill-rule="nonzero" rx="7"/>
        <path fill="#FFF" d="M27.014 27.462l-2.86 10.23c-.066.22-.132.308-.33.308h-1.056c-.22 0-.308-.11-.352-.308l-1.936-7.436c-.11-.396-.198-.924-.22-1.034l-.264 1.056-2.112 7.414c-.066.198-.132.308-.352.308H16.52c-.22 0-.286-.088-.352-.308l-2.772-10.23c-.066-.198.066-.33.308-.33h.88c.198 0 .308.132.352.33l2.068 7.656c.088.374.154.814.176.88 0-.066.11-.484.22-.88l2.112-7.656c.066-.198.154-.33.374-.33h.946c.198 0 .308.132.352.33l1.98 7.656.198.858c0-.044.088-.418.22-.858l2.046-7.656c.066-.198.154-.33.374-.33h.748c.22 0 .33.132.264.33zm14.432 0l-2.86 10.23c-.066.22-.132.308-.33.308H37.2c-.22 0-.308-.11-.352-.308l-1.936-7.436c-.11-.396-.198-.924-.22-1.034l-.264 1.056-2.112 7.414c-.066.198-.132.308-.352.308h-1.012c-.22 0-.286-.088-.352-.308l-2.772-10.23c-.066-.198.066-.33.308-.33h.88c.198 0 .308.132.352.33l2.068 7.656c.088.374.154.814.176.88 0-.066.11-.484.22-.88l2.112-7.656c.066-.198.154-.33.374-.33h.946c.198 0 .308.132.352.33l1.98 7.656.198.858c0-.044.088-.418.22-.858l2.046-7.656c.066-.198.154-.33.374-.33h.748c.22 0 .33.132.264.33zm14.432 0l-2.86 10.23c-.066.22-.132.308-.33.308h-1.056c-.22 0-.308-.11-.352-.308l-1.936-7.436c-.11-.396-.198-.924-.22-1.034l-.264 1.056-2.112 7.414c-.066.198-.132.308-.352.308h-1.012c-.22 0-.286-.088-.352-.308l-2.772-10.23c-.066-.198.066-.33.308-.33h.88c.198 0 .308.132.352.33l2.068 7.656c.088.374.154.814.176.88 0-.066.11-.484.22-.88l2.112-7.656c.066-.198.154-.33.374-.33h.946c.198 0 .308.132.352.33l1.98 7.656.198.858c0-.044.088-.418.22-.858l2.046-7.656c.066-.198.154-.33.374-.33h.748c.22 0 .33.132.264.33z"/>
        <circle cx="14" cy="19" r="2" fill="#FFF" fill-rule="nonzero"/>
        <circle cx="20" cy="19" r="2" fill="#FFF" fill-rule="nonzero"/>
        <circle cx="26" cy="19" r="2" fill="#FFF" fill-rule="nonzero"/>
    </g>
</svg>
