<svg width="300" height="300" viewBox="0 0 300 300" fill="none" xmlns="http://www.w3.org/2000/svg">
<g clip-path="url(#clip0)">
<g clip-path="url(#clip1)">
<path d="M213.246 58.5562C231.611 71.2949 247.791 86.1398 257.389 106.792C265.732 124.737 272.683 143.189 273.96 163.255C274.701 174.94 273.305 186.348 269.14 197.297C262.897 213.707 256.043 229.838 245.67 244.174C233.725 260.684 218.07 272.413 199.178 280.007C180.47 287.534 161.128 292.01 140.952 291.876C106.109 291.653 78.0086 276.983 55.9012 250.538C44.7835 237.246 36.1557 222.218 29.3513 206.357C19.5338 183.446 19.0176 159.809 25.7485 135.871C31.6716 114.89 44.1633 98.0126 58.6749 82.3433C63.4242 77.2163 68.5435 72.4664 73.855 67.9378C72.9325 69.6688 73.1231 71.9326 71.1925 73.1896C70.2416 73.8157 70.6739 74.4839 71.4265 75.1056C75.0754 78.1187 78.6982 77.7325 81.7054 73.9602C84.2913 70.7282 87.7233 70.8634 90.1586 74.2667C91.5396 76.1946 93.1252 78.4838 95.6829 77.9265C102.696 76.41 109.606 76.1426 116.691 77.4669C119.205 77.9383 120.035 76.1728 118.911 73.7298C117.866 71.4537 116.082 69.847 114.116 68.3693C109.746 65.0844 109.824 64.1 114.608 61.1424C114.953 60.9261 115.301 60.7178 115.654 60.5177C121.114 57.3754 121.492 56.3452 119.382 50.2545C118.186 46.8027 117.51 46.3809 114.109 47.7055C109.598 49.4586 105.155 51.3954 100.519 52.8179C95.605 54.3269 91.2539 57.2925 86.2428 58.5816C100.342 50.4628 115.374 44.7431 131.238 41.1944C141.18 38.9735 151.175 39.8128 161.16 40.7307C165.276 41.1059 169.37 41.7334 173.473 42.241C171.402 44.2118 168.67 42.6121 166.246 43.5162C167.275 46.3663 170.667 46.6801 171.984 49.0926C170.292 48.3992 168.755 46.9008 166.726 48.169C165.575 48.8916 164.271 48.9956 162.965 49.1946C161.466 49.424 159.817 49.7237 159.424 51.5259C159.004 53.4899 160.243 54.6669 161.727 55.7336C164.26 57.5661 167.056 58.252 170.135 58.7028C173.677 59.2185 174.403 59.0695 174.872 55.5402C175.2 53.0921 174.74 50.931 172.712 49.2984C176.706 51.0263 177.055 51.6764 176.332 55.6669C176.054 57.1769 175.048 59.5499 178.27 57.5992C178.671 57.3523 179.064 57.3821 179.258 57.8221C179.368 58.0665 179.404 58.5606 179.266 58.6554C176.261 60.8349 179.259 61.2138 180.33 61.9996C182.636 63.6819 182.964 65.2857 181.326 67.5162C180.022 69.2955 179.712 71.0953 181.806 72.4619C183.485 73.5601 185.436 74.25 186.245 76.3597C186.437 76.874 187.191 77.1079 187.469 76.6129C188.561 74.6334 190.861 74.5499 192.388 73.3212C193.786 72.2035 194.961 70.494 194.099 68.8315C193.142 66.9902 193.775 65.4038 193.757 63.6755C193.736 61.9596 194.379 60.9753 195.772 60.3735C197.242 59.7406 198.363 60.657 199.237 61.6218C200.657 63.1938 202.241 63.8821 204.365 63.4529C205.017 63.3225 205.768 63.4945 206.422 63.6983C211.194 65.2179 213.378 63.5946 213.246 58.5562ZM37.48 113.644C36.961 114.645 36.5257 115.413 36.1448 116.204C34.2797 120.095 34.2921 120.099 38.4113 121.436C42.6597 122.818 43.5415 124.459 42.4995 128.987C42.3898 129.465 42.2913 130.041 42.449 130.49C43.6116 133.824 41.3495 133.489 39.4001 133.27C38.2081 133.135 37.055 132.645 35.8863 132.32C32.7172 131.447 31.2878 132.215 29.9616 135.22C22.797 151.455 23.271 168.35 25.6102 185.406C25.8461 187.112 26.822 188.168 28.6003 188.323C29.808 188.428 31.0275 188.516 32.2358 188.506C36.8675 188.478 40.1662 190.527 42.1625 194.711C44.612 199.855 47.8319 204.543 50.8974 209.315C54.4046 214.791 54.6069 214.798 61.065 213.339C61.95 213.135 62.8456 213.01 63.7455 212.893C74.0221 211.529 83.0174 214.131 90.439 221.556C92.8875 224.01 95.4381 224.472 98.6224 222.646C102.411 220.464 106.041 218.085 109.524 215.471C111.994 213.62 114.592 212.34 117.69 213.471C122.156 215.102 126.471 214.25 130.774 212.891C133.092 212.159 135.34 211.203 137.677 210.565C144.981 208.557 150.915 213.641 150.207 221.11C149.757 225.843 149.253 230.595 149.233 235.349C149.202 241.7 153.717 245.41 160.005 244.607C163.161 244.21 166.105 243.183 168.841 241.536C171.808 239.753 174.932 238.4 178.364 237.697C188.495 235.615 193.286 238.612 195.579 248.625C196.176 251.257 196.991 253.865 199.402 255.314C204.181 258.191 207.096 262.331 208.761 267.572C209.433 269.682 210.956 270.665 213.296 269.586C214.11 269.211 215.043 269.097 215.933 268.923C220.944 267.906 222.78 265.538 221.987 260.614C221.588 258.158 222.093 255.981 223.14 253.858C224.304 251.485 225.837 249.352 227.408 247.231C229.99 243.719 231.368 239.816 229.769 235.535C227.692 230.012 228.527 225.061 231.802 220.287C236.141 213.967 235.776 211.828 229.838 207.26C226.558 204.739 226.076 203.239 227.322 199.46C227.898 197.727 228.449 195.986 228.377 194.119C228.219 189.734 224.237 187.172 220.217 188.943C218.56 189.677 216.991 190.593 215.6 191.843C212.222 194.904 208.715 197.824 204.791 200.183C201.715 202.035 199.851 201.623 197.858 198.673C197.293 197.835 196.857 196.907 196.385 196.009C194.481 192.446 192.511 191.525 188.473 192.093C183.473 192.8 181.231 196.339 179.352 200.479C177.342 204.899 174.852 205.504 170.788 202.986C169.418 202.13 167.984 201.351 166.498 200.726C164.981 200.085 163.354 199.745 161.883 200.922C155.42 206.111 147.875 206.269 140.206 205.416C137.314 205.096 134.551 205.156 131.843 206.192C128.78 207.367 125.545 207.618 122.34 208.062C119.255 208.494 117.035 207.206 115.434 204.673C114.677 203.478 114.024 202.206 113.251 201.019C112.69 200.169 111.974 199.245 110.831 199.514C109.798 199.754 109.728 200.87 109.564 201.754C109.212 203.65 108.984 205.563 108.581 207.444C107.466 212.556 103.412 214.262 98.9365 211.484C95.4486 209.316 92.6352 206.378 90.3091 203.041C87.7592 199.386 86.2735 195.451 89.0682 191.186C91.8509 186.937 97.9646 184.291 102.702 185.201C105.992 185.832 109.127 184.985 112.291 184.27C114.556 183.754 114.877 182.189 114.493 180.344C114.136 178.609 113.049 177.266 111.679 176.118C110.127 174.826 108.554 173.535 107.158 172.086C104.737 169.586 103.961 166.485 105.616 163.429C107.313 160.277 106.493 157.796 104.56 155.327C101.984 152.052 102.237 148.743 104.513 145.521C105.971 143.46 107.659 141.558 109.227 139.586C111.112 137.212 111.067 135.278 109.035 133.113C108.345 132.374 107.519 131.771 106.801 131.058C104.344 128.608 104.275 126.53 106.306 123.67C107.415 122.11 108.471 120.413 108.636 118.46C108.771 116.901 109.567 116.18 110.878 115.581C114.846 113.774 118.636 111.633 122.23 109.147C124.481 107.592 124.898 105.62 123.705 103.361C122.603 101.251 121.699 98.9835 118.265 99.9171C114.795 100.86 111.019 100.376 107.526 101.55C106.579 101.871 105.751 101.227 104.987 100.758C101.142 98.3737 98.1909 99.4459 95.2915 102.679C92.8315 105.424 90.5511 108.387 88.1054 111.198C85.6159 114.064 82.8222 114.728 79.7684 112.588C77.4728 110.984 75.0016 111.254 72.6383 113.362C70.6323 115.141 70.624 117.093 71.8786 119.35C73.7606 122.737 76.2606 125.676 78.4856 128.805C79.3851 130.07 80.5456 131.373 79.2335 133.177C77.9051 134.99 76.2529 135.616 74.2171 134.846C69.9458 133.246 65.6184 132.963 61.0957 133.467C56.9963 133.92 55.1045 131.879 55.1789 127.829C55.1914 126.996 55.1265 126.057 54.5012 125.555C52.1996 123.745 53.549 122.224 54.7872 120.711C56.8931 118.124 59.4264 115.905 61.2401 113.067C61.7253 112.314 62.6833 111.37 61.8458 110.668C60.2976 109.364 60.8889 107.738 60.6497 106.201C60.2092 103.297 60.6203 99.8932 56.7782 98.7219C56.2244 98.5482 56.2999 97.89 56.046 97.5342C54.2482 95.0449 54.402 92.4285 55.4695 89.604C50.7207 94.1863 46.1336 98.6608 43.4725 104.655C43.024 105.671 42.3581 106.73 43.2016 107.774C44.0151 108.782 45.2111 108.632 46.3079 108.336C48.0392 107.877 49.7056 107.453 50.7487 109.531C51.8224 111.666 52.2155 113.664 50.2058 115.592C49.1946 116.554 48.4056 117.773 47.5817 118.928C45.6087 121.684 43.1601 121.743 40.8791 119.23C39.4746 117.629 39.076 115.446 37.48 113.644ZM224.144 69.5898C224.814 72.1615 222.54 73.3625 222.054 75.2252C221.527 77.2252 220.61 77.0168 219.331 76.1752C215.579 73.7304 211.367 73.4282 207.073 73.4626C205.238 73.4748 203.974 74.2379 203.395 76.0249C202.628 78.395 201.073 79.8061 198.722 80.8072C194.192 82.7382 193.111 85.9469 195.62 89.1954C197.996 92.2538 198.879 95.9045 198.714 99.5322C198.492 104.457 198.867 108.894 202.654 112.555C203.941 113.801 204.731 115.544 205.846 116.976C206.39 117.678 206.544 118.412 206.613 119.223C207.057 124.607 210.394 127.956 215.899 128.443C219.249 128.737 222.546 128.076 225.867 127.81C230.847 127.417 234.292 125.336 235.38 120.155C235.648 118.88 236.172 117.635 236.69 116.436C237.98 113.461 240.424 112.713 242.978 114.545C244.103 115.354 245.21 115.251 246.431 114.952C247.975 114.572 248.818 115.072 249.613 116.687C251.026 119.571 252.961 122.217 254.744 124.913C255.53 126.104 256.855 126.564 258.193 126.463C259.3 126.382 260.285 126.208 261.424 126.633C262.779 127.13 263.606 126.215 263.517 124.88C263.432 123.69 263.116 122.478 262.691 121.356C258.445 110.12 252.633 99.6729 245.701 89.9432C240.01 81.9227 232.288 75.7686 224.144 69.5898ZM63.9529 94.4278C61.316 95.7921 59.8013 98.6998 60.5928 100.641C61.6555 103.242 63.912 102.826 66.0361 102.533C66.7262 102.434 67.4819 102.322 68.0741 101.982C70.0327 100.836 72.1352 100.932 74.2508 101.051C80.271 101.388 81.8948 100.358 83.9967 94.706C84.5893 93.1207 85.465 91.3416 83.7456 89.9723C81.9757 88.5673 80.1228 88.8194 78.1037 89.8726C76.1008 90.9172 74.2709 92.7902 71.9885 92.7494C68.9256 92.6778 66.2845 93.7616 63.9529 94.4278ZM246.099 138.08C244.76 136.056 242.971 133.876 240.41 132.498C238.868 131.673 237.289 131.694 235.919 132.963C234.534 134.242 235.363 135.493 235.934 136.809C236.921 139.095 237.952 141.305 238.17 143.931C238.463 147.459 242.013 148.787 244.979 146.828C247.561 145.127 248.103 141.715 246.099 138.08ZM133.739 53.6816C134.535 53.2541 135.331 52.8265 136.135 52.3946C137.511 51.6448 138.94 50.8563 138.067 48.9383C137.273 47.2078 135.778 47.2885 134.181 47.7064C131.57 48.3973 129.54 50.0739 127.441 51.6205C126.69 52.1706 125.637 52.8408 126.16 54.0676C126.692 55.3106 127.794 55.7447 129.11 55.7394C130.962 55.739 132.24 54.4763 133.739 53.6816ZM41.4563 110C39.0205 111.329 40.2594 113.051 41.0525 114.625C42.1037 116.698 43.5045 118.176 46.0896 116.735C48.5611 115.355 50.0406 112.791 49.2544 111.171C48.4027 109.43 43.7703 108.736 41.4563 110ZM134.511 186.75C136.124 185.077 139.299 184.461 138.68 181.223C138.386 179.664 134.582 179.655 131.778 181.057C128.843 182.529 127.61 184.657 128.866 186.683C130.585 189.435 132.544 187.022 134.511 186.75ZM40.5341 125.991C38.9351 123.248 36.566 122.228 34.7941 123.41C33.0104 124.609 31.7677 126.251 32.8456 128.53C33.7876 130.537 36.9886 131.372 38.9391 130.23C40.817 129.148 41.3197 127.59 40.5341 125.991ZM266.395 131.271C266.033 130.596 265.811 129.93 265.093 129.918C264.214 129.898 263.969 130.689 263.694 131.308C262.355 134.289 264.984 136.436 265.387 139.057C265.51 139.871 265.826 140.769 266.9 140.548C267.728 140.375 267.803 139.54 267.806 138.826C267.826 136.156 267.03 133.641 266.395 131.271ZM163.951 60.517C162.556 59.1094 161.056 59.5699 159.557 60.3645C158.908 60.7136 158.218 61.2412 158.982 61.9823C160.273 63.2361 161.884 63.313 163.464 62.6108C164.344 62.2221 164.427 61.4027 163.951 60.517Z" fill="#447CBF"/>
<path d="M86.2141 58.5861C91.2296 57.3052 95.5682 54.3358 100.49 52.8224C105.134 51.3955 109.569 49.4631 114.08 47.71C117.489 46.3811 118.158 46.8072 119.353 50.259C121.463 56.3497 121.085 57.3799 115.626 60.5223C115.273 60.7224 114.928 60.9387 114.58 61.1469C109.803 64.1002 109.717 65.0889 114.088 68.3739C116.054 69.8515 117.838 71.4583 118.882 73.7344C120.007 76.1773 119.176 77.9428 116.662 77.4714C109.581 76.1346 102.667 76.4145 95.6542 77.9311C93.0965 78.4884 91.5066 76.191 90.1299 74.2712C87.699 70.876 84.2545 70.7371 81.6767 73.9647C78.6651 77.7289 75.0423 78.1151 71.3978 75.1102C70.6451 74.4884 70.2129 73.8202 71.1638 73.1942C73.0981 71.9247 72.9119 69.6689 73.8262 67.9423C77.322 63.9494 81.8969 61.4393 86.2141 58.5861Z" fill="#5FBA48"/>
<path d="M171.955 49.0973C170.642 46.6928 167.246 46.371 166.217 43.5208C168.649 42.6123 171.373 44.2164 173.444 42.2456C185.084 43.3217 195.855 47.1257 206.122 52.5619C208.917 54.0442 210.354 57.1671 213.246 58.5559C213.374 63.5862 211.186 65.222 206.406 63.7067C205.752 63.503 204.988 63.3272 204.348 63.4614C202.232 63.8861 200.636 63.1941 199.22 61.6302C198.346 60.6654 197.226 59.7491 195.756 60.382C194.355 60.9881 193.719 61.968 193.741 63.6839C193.759 65.4122 193.125 66.9987 194.083 68.8399C194.945 70.5024 193.774 72.1994 192.372 73.3296C190.844 74.5583 188.545 74.6419 187.453 76.6213C187.179 77.1244 186.421 76.8824 186.228 76.3681C185.424 74.2666 183.468 73.5685 181.79 72.4703C179.695 71.1037 180.005 69.3039 181.31 67.5246C182.948 65.2941 182.612 63.6947 180.314 62.008C179.243 61.2222 176.25 60.8515 179.25 58.6638C179.387 58.569 179.352 58.0749 179.242 57.8305C179.039 57.3949 178.659 57.3689 178.253 57.6076C175.032 59.5583 176.038 57.1853 176.315 55.6753C177.043 51.6929 176.694 51.0429 172.695 49.3068L172.778 49.325C172.474 49.2266 172.166 49.1406 171.862 49.0422L171.955 49.0973Z" fill="#5FBA48"/>
<path d="M37.48 113.643C39.076 115.445 39.4665 117.633 40.899 119.209C43.1801 121.721 45.6287 121.662 47.6016 118.906C48.4256 117.752 49.2109 116.544 50.2257 115.57C52.2399 113.65 51.8343 111.649 50.7687 109.509C49.7256 107.431 48.0673 107.851 46.3278 108.314C45.2392 108.606 44.0351 108.761 43.2216 107.753C42.3737 106.701 43.044 105.649 43.4925 104.634C46.1536 98.6392 50.7407 94.1647 55.4895 89.5824C54.4264 92.4151 54.2726 95.0314 56.066 97.5126C56.3155 97.8602 56.2444 98.5266 56.7982 98.7003C60.6402 99.8715 60.2292 103.275 60.6697 106.18C60.9008 107.72 60.3132 109.334 61.8658 110.646C62.6952 111.353 61.7372 112.297 61.2601 113.045C59.4463 115.883 56.913 118.102 54.8072 120.689C53.5733 122.211 52.2196 123.723 54.5212 125.533C55.1546 126.031 55.2114 126.974 55.1989 127.808C55.1245 131.858 57.0163 133.899 61.1157 133.445C65.6384 132.942 69.9739 133.22 74.2371 134.824C76.281 135.59 77.9375 134.972 79.2535 133.156C80.5656 131.351 79.4051 130.048 78.5056 128.783C76.2762 125.646 73.7806 122.715 71.8986 119.329C70.6439 117.071 70.6523 115.119 72.6582 113.34C75.0216 111.233 77.4928 110.963 79.7883 112.567C82.8422 114.706 85.6359 114.043 88.1254 111.177C90.5711 108.366 92.8433 105.407 95.3115 102.657C98.2109 99.4243 101.154 98.3565 105.007 100.736C105.771 101.205 106.599 101.849 107.546 101.529C111.051 100.358 114.815 100.838 118.285 99.8955C121.719 98.9619 122.623 101.23 123.725 103.339C124.909 105.603 124.497 107.562 122.25 109.126C118.648 111.616 114.866 113.752 110.897 115.559C109.587 116.159 108.787 116.871 108.656 118.439C108.491 120.391 107.435 122.089 106.326 123.648C104.295 126.509 104.364 128.586 106.821 131.036C107.539 131.749 108.365 132.353 109.055 133.092C111.087 135.256 111.132 137.19 109.247 139.564C107.676 141.549 105.983 143.443 104.533 145.499C102.261 148.73 102.012 152.026 104.58 155.306C106.513 157.774 107.333 160.255 105.635 163.408C103.985 166.472 104.757 169.565 107.178 172.065C108.574 173.514 110.155 174.8 111.699 176.096C113.065 177.237 114.152 178.579 114.513 180.322C114.889 182.172 114.576 183.733 112.31 184.248C109.147 184.964 106.017 185.818 102.722 185.18C97.9846 184.27 91.8709 186.916 89.0881 191.164C86.2935 195.43 87.7835 199.372 90.3291 203.02C92.6552 206.356 95.4605 209.299 98.9564 211.462C103.432 214.241 107.486 212.534 108.601 207.422C109.016 205.545 109.232 203.628 109.584 201.732C109.748 200.849 109.818 199.732 110.851 199.492C111.993 199.223 112.71 200.147 113.271 200.998C114.053 202.18 114.697 203.457 115.454 204.652C117.055 207.184 119.275 208.473 122.36 208.04C125.565 207.596 128.8 207.345 131.863 206.17C134.571 205.134 137.325 205.079 140.226 205.394C147.904 206.243 155.444 206.098 161.903 200.9C163.374 199.723 165.001 200.063 166.517 200.704C167.996 201.334 169.438 202.109 170.808 202.964C174.868 205.495 177.362 204.877 179.372 200.457C181.251 196.318 183.485 192.782 188.493 192.071C192.527 191.496 194.501 192.424 196.405 195.987C196.885 196.881 197.313 197.814 197.878 198.651C199.863 201.605 201.727 202.017 204.811 200.161C208.735 197.802 212.237 194.874 215.62 191.821C216.998 190.568 218.568 189.651 220.237 188.922C224.248 187.154 228.235 189.724 228.397 194.098C228.464 195.957 227.913 197.697 227.342 199.439C226.088 203.222 226.578 204.718 229.857 207.238C235.796 211.806 236.161 213.945 231.822 220.265C228.547 225.04 227.712 229.991 229.789 235.513C231.396 239.79 230.014 243.705 227.428 247.209C225.861 249.339 224.328 251.471 223.16 253.837C222.121 255.955 221.616 258.132 222.007 260.592C222.8 265.516 220.956 267.889 215.953 268.901C215.067 269.084 214.122 269.194 213.316 269.564C210.984 270.639 209.453 269.66 208.781 267.551C207.108 262.314 204.201 258.169 199.422 255.292C197.011 253.844 196.204 251.231 195.598 248.603C193.311 238.598 188.52 235.602 178.384 237.676C174.952 238.378 171.828 239.732 168.861 241.514C166.133 243.157 163.185 244.176 160.025 244.586C153.737 245.388 149.226 241.686 149.253 235.327C149.278 230.581 149.777 225.821 150.227 221.088C150.939 213.628 145.005 208.544 137.697 210.543C135.36 211.181 133.112 212.138 130.794 212.87C126.499 214.224 122.184 215.076 117.71 213.449C114.612 212.318 112.014 213.599 109.544 215.449C106.061 218.063 102.431 220.443 98.6424 222.624C95.4581 224.45 92.9075 223.988 90.459 221.534C83.033 214.101 74.034 211.512 63.7655 212.872C62.8656 212.989 61.9619 213.118 61.085 213.317C54.6269 214.776 54.4245 214.77 50.9174 209.293C47.86 204.518 44.6401 199.829 42.1825 194.689C40.1862 190.506 36.8875 188.456 32.2558 188.484C31.0431 188.486 29.8236 188.398 28.6203 188.301C26.8463 188.155 25.8705 187.098 25.6302 185.384C23.291 168.329 22.817 151.433 29.9816 135.198C31.3078 132.193 32.7372 131.425 35.9063 132.298C37.075 132.623 38.228 133.114 39.42 133.248C41.357 133.464 43.6235 133.806 42.469 130.469C42.3157 130.028 42.406 129.456 42.5194 128.965C43.5614 124.438 42.6797 122.796 38.4313 121.414C34.3121 120.078 34.3078 120.069 36.1648 116.182C36.5382 115.416 36.961 114.644 37.48 113.643Z" fill="#5FBA48"/>
<path d="M224.144 69.59C232.288 75.7689 240.01 81.923 245.712 89.9267C252.645 99.6564 258.448 110.108 262.703 121.339C263.128 122.462 263.452 123.67 263.529 124.864C263.618 126.198 262.795 127.122 261.436 126.617C260.301 126.2 259.304 126.369 258.205 126.447C256.867 126.548 255.542 126.087 254.756 124.897C252.972 122.201 251.042 119.563 249.625 116.67C248.83 115.055 247.986 114.556 246.442 114.935C245.214 115.239 244.115 115.337 242.99 114.528C240.428 112.701 237.987 113.436 236.701 116.42C236.176 117.623 235.66 118.864 235.392 120.138C234.295 125.324 230.85 127.405 225.879 127.793C222.558 128.059 219.261 128.721 215.911 128.426C210.406 127.939 207.069 124.591 206.625 119.207C206.556 118.396 206.41 117.657 205.858 116.96C204.743 115.527 203.953 113.784 202.666 112.539C198.879 108.878 198.504 104.441 198.726 99.5156C198.891 95.888 198 92.2416 195.632 89.1788C193.119 85.9429 194.204 82.7217 198.734 80.7906C201.085 79.7896 202.644 78.3866 203.407 76.0083C203.985 74.2213 205.25 73.4582 207.085 73.446C211.378 73.4116 215.599 73.7095 219.343 76.1586C220.63 76.9959 221.544 77.2168 222.066 75.2086C222.544 73.3709 224.814 72.1618 224.144 69.59Z" fill="#5FBA48"/>
<path d="M63.9529 94.4275C66.2845 93.7612 68.93 92.6856 71.9842 92.741C74.2666 92.7817 76.0965 90.9087 78.0993 89.8642C80.1184 88.8109 81.967 88.5507 83.7413 89.9638C85.465 91.3413 84.585 93.1123 83.9924 94.6975C81.8823 100.354 80.2666 101.379 74.2464 101.043C72.1308 100.923 70.0202 100.832 68.0697 101.974C67.4819 102.321 66.7262 102.434 66.0317 102.524C63.9077 102.817 61.6511 103.234 60.5884 100.632C59.8012 98.6995 61.3035 95.788 63.9529 94.4275Z" fill="#5FBA48"/>
<path d="M172.687 49.3115C174.715 50.9441 175.163 53.1015 174.847 55.5534C174.378 59.0826 173.661 59.2273 170.11 58.716C167.032 58.2652 164.227 57.5836 161.702 55.7467C160.227 54.6757 158.979 53.5031 159.4 51.5391C159.788 49.7288 161.437 49.429 162.941 49.2077C164.247 49.0088 165.551 48.9047 166.701 48.1821C168.731 46.914 170.276 48.408 171.959 49.1058L171.863 49.0632C172.061 49.4907 172.38 49.5392 172.779 49.346L172.687 49.3115Z" fill="#5FBA48"/>
<path d="M246.098 138.08C248.099 141.707 247.56 145.126 244.987 146.823C242.013 148.787 238.471 147.455 238.178 143.927C237.955 141.293 236.929 139.09 235.942 136.804C235.371 135.488 234.542 134.237 235.927 132.959C237.297 131.689 238.884 131.664 240.418 132.494C242.971 133.876 244.752 136.061 246.098 138.08Z" fill="#5FBA48"/>
<path d="M133.739 53.6819C132.248 54.4722 130.962 55.7393 129.118 55.7353C127.802 55.7407 126.692 55.3109 126.168 54.0635C125.645 52.8368 126.703 52.1747 127.449 51.6165C129.549 50.0699 131.578 48.3932 134.19 47.7023C135.782 47.2763 137.273 47.2081 138.075 48.9342C138.956 50.8478 137.519 51.6407 136.143 52.3905C135.335 52.8349 134.535 53.2544 133.739 53.6819Z" fill="#5FBA48"/>
<path d="M41.4563 110C43.7703 108.736 48.4152 109.434 49.2544 111.172C50.0406 112.791 48.5611 115.355 46.0896 116.735C43.5045 118.176 42.1081 116.707 41.0525 114.625C40.2512 113.056 39.0124 111.334 41.4563 110Z" fill="#5FBA48"/>
<path d="M134.511 186.75C132.535 187.026 130.577 189.439 128.866 186.683C127.615 184.665 128.843 182.529 131.778 181.057C134.582 179.655 138.386 179.664 138.68 181.223C139.299 184.461 136.133 185.073 134.511 186.75Z" fill="#5FBA48"/>
<path d="M40.5341 125.991C41.3197 127.59 40.8127 129.139 38.9472 130.225C36.9924 131.359 33.7914 130.524 32.8537 128.525C31.7758 126.246 33.0185 124.605 34.8023 123.406C36.5742 122.224 38.9351 123.248 40.5341 125.991Z" fill="#5FBA48"/>
<path d="M266.395 131.271C267.035 133.65 267.826 136.156 267.806 138.826C267.794 139.544 267.732 140.384 266.9 140.548C265.826 140.77 265.51 139.871 265.387 139.058C264.984 136.437 262.363 134.285 263.694 131.308C263.969 130.69 264.214 129.899 265.093 129.918C265.811 129.93 266.028 130.588 266.395 131.271Z" fill="#5FBA48"/>
<path d="M163.951 60.5166C164.419 61.4066 164.339 62.2136 163.464 62.6104C161.884 63.3125 160.273 63.2357 158.982 61.9818C158.222 61.2489 158.916 60.7088 159.557 60.3641C161.056 59.5694 162.564 59.1046 163.951 60.5166Z" fill="#5FBA48"/>
<path d="M172.771 49.33C172.377 49.5315 172.057 49.483 171.854 49.0469C172.167 49.1411 172.471 49.2396 172.771 49.33Z" fill="#447CBF"/>
<path d="M99.8165 65.3621C104.831 62.6682 108.421 59.6004 107.836 58.5099C107.25 57.4195 102.71 58.7193 97.6951 61.4133C92.6805 64.1072 89.0902 67.175 89.676 68.2654C90.2618 69.3559 94.8019 68.056 99.8165 65.3621Z" fill="#469945"/>
<path d="M99.1863 63.1562C103.45 60.8657 106.282 26.8451 92.1305 15.5804C78.9843 5.11576 58.9462 19.9847 65.8101 37.1643C69.8905 47.3897 93.9886 65.9485 99.1863 63.1562Z" fill="#FFC60E"/>
<path d="M71.3324 35.3073C75.7781 43.2321 79.0949 43.6595 85.0615 42.3178C90.7207 41.047 95.4634 33.1804 93.2198 25.7897C91.8944 21.4133 85.8808 16.5505 79.3721 17.974C73.7404 19.1986 66.8786 27.3869 71.3324 35.3073Z" fill="white"/>
<path d="M197.428 58.719C197.956 57.5772 194.127 54.6825 188.876 52.2535C183.625 49.8245 178.941 48.781 178.413 49.9228C177.885 51.0646 181.714 53.9593 186.965 56.3883C192.216 58.8173 196.901 59.8608 197.428 58.719Z" fill="#469945"/>
<path d="M188.376 54.5154C192.834 56.5806 222.18 38.1146 222.677 19.7549C223.147 2.68763 198.836 -4.50133 189.075 11.5577C183.277 21.1014 182.931 51.9962 188.376 54.5154Z" fill="#FFC60E"/>
<path d="M193.959 14.9023C190.24 23.3498 191.92 26.3006 196.646 30.3261C201.136 34.1441 210.414 33.2011 215.041 26.8727C217.781 23.1288 218.057 15.2851 212.927 10.8587C208.503 7.02647 197.67 6.4592 193.959 14.9023Z" fill="white"/>
<path d="M71.077 145.355C72.5469 139.896 72.3156 135.087 70.5603 134.614C68.805 134.14 66.1904 138.181 64.7204 143.64C63.2504 149.098 63.4817 153.907 65.2371 154.381C66.9924 154.854 69.607 150.813 71.077 145.355Z" fill="#469945"/>
<path d="M68.0284 144.035C69.2734 139.398 46.6405 114.157 28.8744 116.697C12.3611 119.056 9.44512 143.667 26.5327 150.423C36.6921 154.451 66.504 149.691 68.0284 144.035Z" fill="#FFC60E"/>
<path d="M28.9478 145.178C37.6998 147.366 40.2655 145.265 43.3619 140.042C46.3014 135.092 43.8472 126.296 36.9895 122.881C32.9326 120.862 25.3271 121.88 21.91 127.558C18.965 132.459 20.1957 142.991 28.9478 145.178Z" fill="white"/>
<path d="M98.0588 223.229C99.3756 221.94 97.191 217.572 93.1792 213.473C89.1675 209.374 84.8477 207.097 83.5309 208.387C82.214 209.676 84.3987 214.044 88.4104 218.143C92.4222 222.242 96.7419 224.519 98.0588 223.229Z" fill="#469945"/>
<path d="M90.4613 215.462C87.0544 211.984 53.3624 218.755 46.4384 235.593C40.003 251.238 59.9972 266.462 74.6954 255.017C83.4294 248.21 94.6169 219.71 90.4613 215.462Z" fill="#FFC60E"/>
<path d="M71.3438 250.201C77.7596 243.676 77.2408 240.353 74.2725 234.964C71.4608 229.847 62.5172 227.459 56.0007 231.692C52.1477 234.202 49.1254 241.375 52.3274 247.277C55.0973 252.374 64.9361 256.721 71.3438 250.201Z" fill="white"/>
<path d="M214.285 250.135C219.196 247.497 222.49 244.077 221.642 242.498C220.793 240.918 216.124 241.776 211.212 244.415C206.301 247.053 203.007 250.473 203.856 252.052C204.704 253.632 209.374 252.774 214.285 250.135Z" fill="#469945"/>
<path d="M212.326 247.503C208.16 249.741 205.385 283.05 219.233 294.08C232.096 304.33 251.715 289.77 245.002 272.95C241.006 262.94 217.418 244.767 212.326 247.503Z" fill="#FFC60E"/>
<path d="M239.594 274.766C235.235 267.004 231.997 266.587 226.162 267.9C220.625 269.146 215.981 276.845 218.17 284.076C219.468 288.363 225.351 293.118 231.733 291.731C237.233 290.535 243.948 282.52 239.594 274.766Z" fill="white"/>
<path d="M221.558 116.577C223.014 115.568 221.652 111.077 218.514 106.545C215.376 102.014 211.651 99.1584 210.194 100.167C208.738 101.176 210.101 105.668 213.238 110.199C216.376 114.731 220.101 117.586 221.558 116.577Z" fill="#469945"/>
<path d="M216.134 108.758C218.797 112.604 251.798 111.638 261.084 96.8186C269.707 83.0456 253.23 65.3871 237.466 73.8555C228.09 78.8822 212.877 104.058 216.134 108.758Z" fill="#FFC60E"/>
<path d="M239.849 78.9517C232.719 84.0903 232.666 87.3227 234.609 92.9066C236.453 98.2087 244.524 101.914 251.383 98.9618C255.444 97.2095 259.457 90.9073 257.38 84.7992C255.59 79.5203 246.978 73.8131 239.849 78.9517Z" fill="white"/>
</g>
</g>
<defs>
<clipPath id="clip0">
<rect width="300" height="300" fill="white"/>
</clipPath>
<clipPath id="clip1">
<rect width="268.397" height="324.674" fill="white" transform="translate(-44.7957 78.1348) rotate(-28.2452)"/>
</clipPath>
</defs>
</svg>
